  0
SECTION
  2
HEADER
  9
$ACADVER
  1
AC1009
  9
$EXTMAX
 10
388.730407714844
 20
365.153564453125
 30
0.0
  9
$EXTMIN
 10
245.916961669922
 20
269.846435546875
 30
0.0
  9
$INSUNITS
 70
     1
  9
$LUNITS
 70
     2
  9
$LUPREC
 70
     4
  9
$MEASUREMENT
 70
     0
  0
ENDSEC
  0
SECTION
  2
TABLES
  0
TABLE
  2
LAYER
 70
     1
  0
LAYER
  2
0
 70
     0
 62
     7
  6
Continuous
  0
LAYER
  2
Default
 70
     0
 62
    -7
  6
Continuous
  0
LAYER
  2
CenterLines16
 70
     0
 62
    -1
  6
Continuous
  0
LAYER
  2
BG_OUTLINE
 70
     0
 62
    -4
  6
Continuous
  0
LAYER
  2
PORTS
 70
     0
 62
    -9
  6
Continuous
  0
LAYER
  2
BASE
 70
     0
 62
   173
  6
Continuous
  0
LAYER
  2
TOP
 70
     0
 62
  -173
  6
Continuous
  0
LAYER
  2
PINE
 70
     0
 62
    -2
  6
Continuous
  0
LAYER
  2
PORTS1
 70
     0
 62
  -254
  6
Continuous
  0
LAYER
  2
HOLES
 70
     0
 62
     6
  6
Continuous
  0
LAYER
  2
PINETXT
 70
     0
 62
     2
  6
Continuous
  0
LAYER
  2
PINE_LG
 70
     0
 62
     2
  6
Continuous
  0
LAYER
  2
AIR_BOTTOM
 70
     0
 62
    -2
  6
Continuous
  0
LAYER
  2
AIR_TOP
 70
     0
 62
     2
  6
Continuous
  0
ENDTAB
  0
TABLE
  2
APPID
 70
     1
  0
APPID
  2
ACAD
 70
     0
  0
ENDTAB
  0
ENDSEC
  0
SECTION
  2
ENTITIES
  0
LINE
  8
CenterLines16
 10
20.5
 20
12.5
 30
0.0
 11
4.5
 21
12.5
 31
0.0
  0
LINE
  8
CenterLines16
 10
12.5
 20
24.5
 30
0.0
 11
12.5
 21
0.5
 31
0.0
  0
CIRCLE
  8
CenterLines16
 10
12.5
 20
16.0
 30
0.0
 40
0.1255
  0
CIRCLE
  8
CenterLines16
 10
12.5
 20
9.0
 30
0.0
 40
0.1255
  0
CIRCLE
  8
CenterLines16
 10
9.0
 20
9.0
 30
0.0
 40
0.1255
  0
CIRCLE
  8
CenterLines16
 10
9.0
 20
16.0
 30
0.0
 40
0.1255
  0
CIRCLE
  8
CenterLines16
 10
16.0
 20
9.0
 30
0.0
 40
0.1255
  0
CIRCLE
  8
CenterLines16
 10
16.0
 20
16.0
 30
0.0
 40
0.1255
  0
POLYLINE
  8
BG_OUTLINE
 66
     1
 10
0.0
 20
0.0
 30
0.0
 70
     1
  0
VERTEX
  8
BG_OUTLINE
 10
11.575163011811
 20
12.005823011811
 42
1.0
  0
VERTEX
  8
BG_OUTLINE
 10
11.466895019685
 20
12.005823011811
 42
1.0
  0
SEQEND
  0
POLYLINE
  8
BG_OUTLINE
 66
     1
 10
0.0
 20
0.0
 30
0.0
 70
     1
  0
VERTEX
  8
BG_OUTLINE
 10
13.234808011811
 20
11.117823011811
 42
1.0
  0
VERTEX
  8
BG_OUTLINE
 10
13.142288011811
 20
11.117823011811
 42
1.0
  0
SEQEND
  0
POLYLINE
  8
BG_OUTLINE
 66
     1
 10
0.0
 20
0.0
 30
0.0
 70
     1
  0
VERTEX
  8
BG_OUTLINE
 10
12.323391003937
 20
11.117823011811
 42
1.0
  0
VERTEX
  8
BG_OUTLINE
 10
12.230871003937
 20
11.117823011811
 42
1.0
  0
SEQEND
  0
POLYLINE
  8
BG_OUTLINE
 66
     1
 10
0.0
 20
0.0
 30
0.0
 70
     1
  0
VERTEX
  8
BG_OUTLINE
 10
10.232918011811
 20
11.108751003937
 42
1.0
  0
VERTEX
  8
BG_OUTLINE
 10
10.104966003937
 20
11.108751003937
 42
1.0
  0
SEQEND
  0
POLYLINE
  8
BG_OUTLINE
 66
     1
 10
0.0
 20
0.0
 30
0.0
 70
     1
  0
VERTEX
  8
BG_OUTLINE
 10
10.235030019685
 20
13.892718011811
 42
1.0
  0
VERTEX
  8
BG_OUTLINE
 10
10.107078011811
 20
13.892718011811
 42
1.0
  0
SEQEND
  0
POLYLINE
  8
BG_OUTLINE
 66
     1
 10
0.0
 20
0.0
 30
0.0
 70
     1
  0
VERTEX
  8
BG_OUTLINE
 10
14.888436988189
 20
13.892830019685
 42
1.0
  0
VERTEX
  8
BG_OUTLINE
 10
14.760485019685
 20
13.892830019685
 42
1.0
  0
SEQEND
  0
POLYLINE
  8
BG_OUTLINE
 66
     1
 10
0.0
 20
0.0
 30
0.0
 70
     1
  0
VERTEX
  8
BG_OUTLINE
 10
14.890088011811
 20
11.107988996063
 42
1.0
  0
VERTEX
  8
BG_OUTLINE
 10
14.762136003937
 20
11.107988996063
 42
1.0
  0
SEQEND
  0
POLYLINE
  8
BG_OUTLINE
 66
     1
 10
0.0
 20
0.0
 30
0.0
 70
     1
  0
VERTEX
  8
BG_OUTLINE
 10
14.991593011811
 20
13.9218920275591
 42
0.414212
  0
VERTEX
  8
BG_OUTLINE
 10
14.849861003937
 20
14.063623996063
 42
0.0
  0
VERTEX
  8
BG_OUTLINE
 10
10.136001988189
 20
14.063623996063
 42
0.414212
  0
VERTEX
  8
BG_OUTLINE
 10
9.994270019685
 20
13.9218920275591
 42
0.0
  0
VERTEX
  8
BG_OUTLINE
 10
9.994270019685
 20
11.078108011811
 42
0.414212
  0
VERTEX
  8
BG_OUTLINE
 10
10.136001988189
 20
10.936376003937
 42
0.0
  0
VERTEX
  8
BG_OUTLINE
 10
14.850115019685
 20
10.936376003937
 42
0.414212
  0
VERTEX
  8
BG_OUTLINE
 10
14.991846988189
 20
11.078108011811
 42
0.0
  0
VERTEX
  8
BG_OUTLINE
 10
14.991846988189
 20
11.3957870275591
 42
0.0
  0
VERTEX
  8
BG_OUTLINE
 10
14.944580019685
 20
11.3957870275591
 42
0.0
  0
VERTEX
  8
BG_OUTLINE
 10
14.944580019685
 20
11.5103620275591
 42
0.0
  0
VERTEX
  8
BG_OUTLINE
 10
14.944580019685
 20
11.5141120275591
 42
0.0
  0
VERTEX
  8
BG_OUTLINE
 10
14.991846988189
 20
11.5141120275591
 42
0.0
  0
VERTEX
  8
BG_OUTLINE
 10
14.991846988189
 20
13.717548996063
 42
0.414217
  0
VERTEX
  8
BG_OUTLINE
 10
14.991593011811
 20
13.717803011811
 42
0.0
  0
SEQEND
  0
POLYLINE
  8
PORTS
 66
     1
 10
0.0
 20
0.0
 30
0.0
 70
     0
  0
VERTEX
  8
PORTS
 10
10.069876003937
 20
13.609653996063
 42
0.0
  0
VERTEX
  8
PORTS
 10
9.937986003937
 20
13.609653996063
 42
0.0
  0
VERTEX
  8
PORTS
 10
9.937986003937
 20
13.324223996063
 42
0.0
  0
SEQEND
  0
POLYLINE
  8
PORTS
 66
     1
 10
0.0
 20
0.0
 30
0.0
 70
     0
  0
VERTEX
  8
PORTS
 10
9.937986003937
 20
13.324223996063
 42
0.0
  0
VERTEX
  8
PORTS
 10
9.937986003937
 20
13.038793996063
 42
0.0
  0
VERTEX
  8
PORTS
 10
10.069876003937
 20
13.038793996063
 42
0.0
  0
SEQEND
  0
POLYLINE
  8
PORTS
 66
     1
 10
0.0
 20
0.0
 30
0.0
 70
     0
  0
VERTEX
  8
PORTS
 10
10.340560019685
 20
12.5118470275591
 42
0.0
  0
VERTEX
  8
PORTS
 10
9.910638996063
 20
12.5118470275591
 42
0.0
  0
VERTEX
  8
PORTS
 10
9.910638996063
 20
12.828776003937
 42
0.0
  0
VERTEX
  8
PORTS
 10
10.770481003937
 20
12.828776003937
 42
0.0
  0
VERTEX
  8
PORTS
 10
10.770481003937
 20
12.194918011811
 42
0.0
  0
VERTEX
  8
PORTS
 10
9.910638996063
 20
12.194918011811
 42
0.0
  0
VERTEX
  8
PORTS
 10
9.910638996063
 20
12.5118470275591
 42
0.0
  0
SEQEND
  0
POLYLINE
  8
PORTS
 66
     1
 10
0.0
 20
0.0
 30
0.0
 70
     1
  0
VERTEX
  8
PORTS
 10
9.914601003937
 20
11.789506003937
 42
0.0
  0
VERTEX
  8
PORTS
 10
10.316176003937
 20
11.789506003937
 42
0.0
  0
VERTEX
  8
PORTS
 10
10.316176003937
 20
11.395805019685
 42
0.0
  0
VERTEX
  8
PORTS
 10
9.914601003937
 20
11.395805019685
 42
0.0
  0
SEQEND
  0
POLYLINE
  8
PORTS
 66
     1
 10
0.0
 20
0.0
 30
0.0
 70
     0
  0
VERTEX
  8
PORTS
 10
10.074961988189
 20
11.8849020275591
 42
0.0
  0
VERTEX
  8
PORTS
 10
10.307248996063
 20
11.8849020275591
 42
0.0
  0
SEQEND
  0
POLYLINE
  8
PORTS
 66
     1
 10
0.0
 20
0.0
 30
0.0
 70
     0
  0
VERTEX
  8
PORTS
 10
10.074961988189
 20
12.144743996063
 42
0.0
  0
VERTEX
  8
PORTS
 10
10.074961988189
 20
11.8849020275591
 42
0.0
  0
SEQEND
  0
POLYLINE
  8
PORTS
 66
     1
 10
0.0
 20
0.0
 30
0.0
 70
     0
  0
VERTEX
  8
PORTS
 10
10.211970019685
 20
12.122303011811
 42
0.0
  0
VERTEX
  8
PORTS
 10
10.211970019685
 20
11.904193011811
 42
0.0
  0
SEQEND
  0
POLYLINE
  8
PORTS
 66
     1
 10
0.0
 20
0.0
 30
0.0
 70
     0
  0
VERTEX
  8
PORTS
 10
10.307248996063
 20
12.144743996063
 42
0.0
  0
VERTEX
  8
PORTS
 10
10.074961988189
 20
12.144743996063
 42
0.0
  0
SEQEND
  0
POLYLINE
  8
PORTS
 66
     1
 10
0.0
 20
0.0
 30
0.0
 70
     0
  0
VERTEX
  8
PORTS
 10
10.350560019685
 20
11.943953011811
 42
0.0
  0
VERTEX
  8
PORTS
 10
10.350560019685
 20
12.085693011811
 42
0.0
  0
SEQEND
  0
POLYLINE
  8
PORTS
 66
     1
 10
0.0
 20
0.0
 30
0.0
 70
     0
  0
VERTEX
  8
PORTS
 10
10.350560019685
 20
12.085693011811
 42
0.0
  0
VERTEX
  8
PORTS
 10
10.307248996063
 20
12.144743996063
 42
0.0
  0
SEQEND
  0
POLYLINE
  8
PORTS
 66
     1
 10
0.0
 20
0.0
 30
0.0
 70
     0
  0
VERTEX
  8
PORTS
 10
10.307248996063
 20
11.8849020275591
 42
0.0
  0
VERTEX
  8
PORTS
 10
10.350560019685
 20
11.943953011811
 42
0.0
  0
SEQEND
  0
POLYLINE
  8
PORTS
 66
     1
 10
0.0
 20
0.0
 30
0.0
 70
     1
  0
VERTEX
  8
PORTS
 10
11.700358996063
 20
10.946563011811
 42
0.0
  0
VERTEX
  8
PORTS
 10
11.700358996063
 20
11.289083011811
 42
0.0
  0
VERTEX
  8
PORTS
 10
13.235791988189
 20
11.289083011811
 42
0.0
  0
VERTEX
  8
PORTS
 10
13.235791988189
 20
10.946563011811
 42
0.0
  0
SEQEND
  0
POLYLINE
  8
PORTS
 66
     1
 10
0.0
 20
0.0
 30
0.0
 70
     1
  0
VERTEX
  8
PORTS
 10
14.450336003937
 20
11.062823011811
 42
0.0
  0
VERTEX
  8
PORTS
 10
14.450336003937
 20
11.262823011811
 42
0.0
  0
VERTEX
  8
PORTS
 10
14.647186003937
 20
11.262823011811
 42
0.0
  0
VERTEX
  8
PORTS
 10
14.647186003937
 20
10.962823011811
 42
0.0
  0
VERTEX
  8
PORTS
 10
14.450336003937
 20
10.962823011811
 42
0.0
  0
SEQEND
  0
POLYLINE
  8
PORTS
 66
     1
 10
0.0
 20
0.0
 30
0.0
 70
     1
  0
VERTEX
  8
PORTS
 10
14.563918011811
 20
11.024831003937
 42
0.0
  0
VERTEX
  8
PORTS
 10
14.633603996063
 20
11.024831003937
 42
0.0
  0
VERTEX
  8
PORTS
 10
14.633603996063
 20
11.099240019685
 42
0.0
  0
VERTEX
  8
PORTS
 10
14.563918011811
 20
11.099240019685
 42
0.0
  0
SEQEND
  0
POLYLINE
  8
PORTS
 66
     1
 10
0.0
 20
0.0
 30
0.0
 70
     0
  0
VERTEX
  8
PORTS
 10
14.990371003937
 20
11.356141003937
 42
0.0
  0
VERTEX
  8
PORTS
 10
15.069111003937
 20
11.356141003937
 42
0.0
  0
VERTEX
  8
PORTS
 10
15.069111003937
 20
11.552998996063
 42
0.0
  0
VERTEX
  8
PORTS
 10
14.990371003937
 20
11.552998996063
 42
0.0
  0
SEQEND
  0
POLYLINE
  8
PORTS
 66
     1
 10
0.0
 20
0.0
 30
0.0
 70
     0
  0
VERTEX
  8
PORTS
 10
14.990371003937
 20
11.326621003937
 42
0.0
  0
VERTEX
  8
PORTS
 10
14.492338996063
 20
11.326621003937
 42
0.0
  0
VERTEX
  8
PORTS
 10
14.492338996063
 20
11.574648996063
 42
0.0
  0
VERTEX
  8
PORTS
 10
14.990371003937
 20
11.574648996063
 42
0.0
  0
SEQEND
  0
POLYLINE
  8
PORTS
 66
     1
 10
0.0
 20
0.0
 30
0.0
 70
     0
  0
VERTEX
  8
PORTS
 10
14.990371003937
 20
11.326621003937
 42
0.0
  0
VERTEX
  8
PORTS
 10
14.990371003937
 20
11.395511003937
 42
0.0
  0
VERTEX
  8
PORTS
 10
14.951001003937
 20
11.395511003937
 42
0.0
  0
VERTEX
  8
PORTS
 10
14.951001003937
 20
11.513628996063
 42
0.0
  0
VERTEX
  8
PORTS
 10
14.990371003937
 20
11.513628996063
 42
0.0
  0
VERTEX
  8
PORTS
 10
14.990371003937
 20
11.574648996063
 42
0.0
  0
SEQEND
  0
POLYLINE
  8
PORTS
 66
     1
 10
0.0
 20
0.0
 30
0.0
 70
     0
  0
VERTEX
  8
PORTS
 10
15.030301988189
 20
11.991465019685
 42
0.0
  0
VERTEX
  8
PORTS
 10
15.030301988189
 20
11.696181003937
 42
0.0
  0
SEQEND
  0
POLYLINE
  8
PORTS
 66
     1
 10
0.0
 20
0.0
 30
0.0
 70
     0
  0
VERTEX
  8
PORTS
 10
15.089361003937
 20
11.765083011811
 42
0.0
  0
VERTEX
  8
PORTS
 10
15.089361003937
 20
11.922563011811
 42
0.0
  0
SEQEND
  0
POLYLINE
  8
PORTS
 66
     1
 10
0.0
 20
0.0
 30
0.0
 70
     0
  0
VERTEX
  8
PORTS
 10
15.027631003937
 20
12.072181003937
 42
0.0
  0
VERTEX
  8
PORTS
 10
14.769761003937
 20
12.072181003937
 42
0.0
  0
SEQEND
  0
POLYLINE
  8
PORTS
 66
     1
 10
0.0
 20
0.0
 30
0.0
 70
     0
  0
VERTEX
  8
PORTS
 10
15.027631003937
 20
12.367465019685
 42
0.0
  0
VERTEX
  8
PORTS
 10
15.027631003937
 20
12.072181003937
 42
0.0
  0
SEQEND
  0
POLYLINE
  8
PORTS
 66
     1
 10
0.0
 20
0.0
 30
0.0
 70
     0
  0
VERTEX
  8
PORTS
 10
14.769761003937
 20
12.367465019685
 42
0.0
  0
VERTEX
  8
PORTS
 10
15.027631003937
 20
12.367465019685
 42
0.0
  0
SEQEND
  0
POLYLINE
  8
PORTS
 66
     1
 10
0.0
 20
0.0
 30
0.0
 70
     0
  0
VERTEX
  8
PORTS
 10
14.769761003937
 20
12.072181003937
 42
0.0
  0
VERTEX
  8
PORTS
 10
14.769761003937
 20
12.367465019685
 42
0.0
  0
SEQEND
  0
POLYLINE
  8
PORTS
 66
     1
 10
0.0
 20
0.0
 30
0.0
 70
     0
  0
VERTEX
  8
PORTS
 10
15.027793011811
 20
12.141083011811
 42
0.0
  0
VERTEX
  8
PORTS
 10
15.086690019685
 20
12.141083011811
 42
0.0
  0
SEQEND
  0
POLYLINE
  8
PORTS
 66
     1
 10
0.0
 20
0.0
 30
0.0
 70
     0
  0
VERTEX
  8
PORTS
 10
15.027793011811
 20
12.298563011811
 42
0.0
  0
VERTEX
  8
PORTS
 10
15.027793011811
 20
12.141083011811
 42
0.0
  0
SEQEND
  0
POLYLINE
  8
PORTS
 66
     1
 10
0.0
 20
0.0
 30
0.0
 70
     0
  0
VERTEX
  8
PORTS
 10
15.086690019685
 20
12.298563011811
 42
0.0
  0
VERTEX
  8
PORTS
 10
15.027793011811
 20
12.298563011811
 42
0.0
  0
SEQEND
  0
POLYLINE
  8
PORTS
 66
     1
 10
0.0
 20
0.0
 30
0.0
 70
     0
  0
VERTEX
  8
PORTS
 10
15.086690019685
 20
12.141083011811
 42
0.0
  0
VERTEX
  8
PORTS
 10
15.086690019685
 20
12.298563011811
 42
0.0
  0
SEQEND
  0
POLYLINE
  8
PORTS
 66
     1
 10
0.0
 20
0.0
 30
0.0
 70
     0
  0
VERTEX
  8
PORTS
 10
15.030301988189
 20
11.696181003937
 42
0.0
  0
VERTEX
  8
PORTS
 10
14.772431988189
 20
11.696181003937
 42
0.0
  0
SEQEND
  0
POLYLINE
  8
PORTS
 66
     1
 10
0.0
 20
0.0
 30
0.0
 70
     0
  0
VERTEX
  8
PORTS
 10
14.772431988189
 20
11.991465019685
 42
0.0
  0
VERTEX
  8
PORTS
 10
15.030301988189
 20
11.991465019685
 42
0.0
  0
SEQEND
  0
POLYLINE
  8
PORTS
 66
     1
 10
0.0
 20
0.0
 30
0.0
 70
     0
  0
VERTEX
  8
PORTS
 10
14.772431988189
 20
11.696181003937
 42
0.0
  0
VERTEX
  8
PORTS
 10
14.772431988189
 20
11.991465019685
 42
0.0
  0
SEQEND
  0
POLYLINE
  8
PORTS
 66
     1
 10
0.0
 20
0.0
 30
0.0
 70
     0
  0
VERTEX
  8
PORTS
 10
15.030463996063
 20
11.765083011811
 42
0.0
  0
VERTEX
  8
PORTS
 10
15.089361003937
 20
11.765083011811
 42
0.0
  0
SEQEND
  0
POLYLINE
  8
PORTS
 66
     1
 10
0.0
 20
0.0
 30
0.0
 70
     0
  0
VERTEX
  8
PORTS
 10
15.030463996063
 20
11.922563011811
 42
0.0
  0
VERTEX
  8
PORTS
 10
15.030463996063
 20
11.765083011811
 42
0.0
  0
SEQEND
  0
POLYLINE
  8
PORTS
 66
     1
 10
0.0
 20
0.0
 30
0.0
 70
     0
  0
VERTEX
  8
PORTS
 10
15.089361003937
 20
11.922563011811
 42
0.0
  0
VERTEX
  8
PORTS
 10
15.030463996063
 20
11.922563011811
 42
0.0
  0
SEQEND
  0
POLYLINE
  8
PORTS
 66
     1
 10
0.0
 20
0.0
 30
0.0
 70
     1
  0
VERTEX
  8
PORTS
 10
14.758095019685
 20
12.203557386811
 42
0.0
  0
VERTEX
  8
PORTS
 10
14.746669238435
 20
12.196408949311
 42
0.0
  0
VERTEX
  8
PORTS
 10
14.746669238435
 20
12.187834730561
 42
0.0
  0
VERTEX
  8
PORTS
 10
14.758095019685
 20
12.187834730561
 42
0.0
  0
VERTEX
  8
PORTS
 10
14.758095019685
 20
12.1841042618111
 42
0.0
  0
VERTEX
  8
PORTS
 10
14.730575488435
 20
12.1841042618111
 42
0.0
  0
VERTEX
  8
PORTS
 10
14.730575488435
 20
12.197053480561
 42
-0.0621822829115
  0
VERTEX
  8
PORTS
 10
14.7310017151118
 20
12.2008178473541
 42
-0.1114542454852
  0
VERTEX
  8
PORTS
 10
14.732665332185
 20
12.204221449311
 42
-0.1251898819161
  0
VERTEX
  8
PORTS
 10
14.7352563654399
 20
12.206173125478
 42
-0.0994675202623
  0
VERTEX
  8
PORTS
 10
14.738446582185
 20
12.206760511811
 42
-0.0814143257939
  0
VERTEX
  8
PORTS
 10
14.7411905864812
 20
12.2063380764131
 42
-0.0977215614775
  0
VERTEX
  8
PORTS
 10
14.743602832185
 20
12.204963636811
 42
-0.0986026594835
  0
VERTEX
  8
PORTS
 10
14.7453623880578
 20
12.2027390550192
 42
-0.0762661409826
  0
VERTEX
  8
PORTS
 10
14.746239550935
 20
12.200041761811
 42
0.0
  0
VERTEX
  8
PORTS
 10
14.758095019685
 20
12.2078542618111
 42
0.0
  0
SEQEND
  0
POLYLINE
  8
PORTS
 66
     1
 10
0.0
 20
0.0
 30
0.0
 70
     1
  0
VERTEX
  8
PORTS
 10
14.738485644685
 20
12.203010511811
 42
0.1000713743646
  0
VERTEX
  8
PORTS
 10
14.7364582455806
 20
12.2026381696517
 42
0.1331556442807
  0
VERTEX
  8
PORTS
 10
14.734833300935
 20
12.201369886811
 42
0.109140272533
  0
VERTEX
  8
PORTS
 10
14.7338161972895
 20
12.1991296870483
 42
0.0568547409974
  0
VERTEX
  8
PORTS
 10
14.733563769685
 20
12.196682386811
 42
0.0
  0
VERTEX
  8
PORTS
 10
14.733563769685
 20
12.187834730561
 42
0.0
  0
VERTEX
  8
PORTS
 10
14.743720019685
 20
12.187834730561
 42
0.0
  0
VERTEX
  8
PORTS
 10
14.743720019685
 20
12.1968386368111
 42
0.0643117265454
  0
VERTEX
  8
PORTS
 10
14.7434392069764
 20
12.199235034908
 42
0.1130788759514
  0
VERTEX
  8
PORTS
 10
14.742352832185
 20
12.201389418061
 42
0.1241836488402
  0
VERTEX
  8
PORTS
 10
14.7406042195075
 20
12.2026412444069
 42
0.0943518769056
  0
SEQEND
  0
POLYLINE
  8
PORTS
 66
     1
 10
0.0
 20
0.0
 30
0.0
 70
     1
  0
VERTEX
  8
PORTS
 10
14.748270800935
 20
12.215100355561
 42
0.0568364227618
  0
VERTEX
  8
PORTS
 10
14.7511941971965
 20
12.215402567965
 42
0.1060029743539
  0
VERTEX
  8
PORTS
 10
14.753876269685
 20
12.216604261811
 42
0.1331649840507
  0
VERTEX
  8
PORTS
 10
14.755401365031
 20
12.2185596802705
 42
0.1000024579995
  0
VERTEX
  8
PORTS
 10
14.755848925935
 20
12.220998793061
 42
0.0548371688273
  0
VERTEX
  8
PORTS
 10
14.7556579678601
 20
12.2228923304859
 42
0.0930447085607
  0
VERTEX
  8
PORTS
 10
14.754930957185
 20
12.2246511368111
 42
0.1682503435498
  0
VERTEX
  8
PORTS
 10
14.752606738435
 20
12.2265261368111
 42
0.0
  0
VERTEX
  8
PORTS
 10
14.753485644685
 20
12.229612074311
 42
-0.0886376067999
  0
VERTEX
  8
PORTS
 10
14.7557945896192
 20
12.2282604805405
 42
-0.1387797275812
  0
VERTEX
  8
PORTS
 10
14.757935759963
 20
12.2249244877057
 42
-0.0777223242506
  0
VERTEX
  8
PORTS
 10
14.758485644685
 20
12.220998793061
 42
-0.0854089214507
  0
VERTEX
  8
PORTS
 10
14.7578798759626
 20
12.2171156338631
 42
-0.1292576198243
  0
VERTEX
  8
PORTS
 10
14.755692675935
 20
12.213850355561
 42
-0.1186156754243
  0
VERTEX
  8
PORTS
 10
14.7517589217786
 20
12.211893086483
 42
-0.0613242700813
  0
VERTEX
  8
PORTS
 10
14.747391894685
 20
12.211408949311
 42
-0.0647905500269
  0
VERTEX
  8
PORTS
 10
14.7431586736392
 20
12.2119077744671
 42
-0.1155770652446
  0
VERTEX
  8
PORTS
 10
14.739364550935
 20
12.213850355561
 42
-0.1265885040724
  0
VERTEX
  8
PORTS
 10
14.737188637318
 20
12.2170457462902
 42
-0.088130106242
  0
VERTEX
  8
PORTS
 10
14.736571582185
 20
12.2208620743111
 42
-0.096985376348
  0
VERTEX
  8
PORTS
 10
14.7372942172771
 20
12.2249890941199
 42
-0.1098794152768
  0
VERTEX
  8
PORTS
 10
14.7390680649122
 20
12.2275761193054
 42
-0.0733963683867
  0
VERTEX
  8
PORTS
 10
14.7409991561628
 20
12.22888848049
 42
-0.0721840875795
  0
VERTEX
  8
PORTS
 10
14.7443286952964
 20
12.2299126964624
 42
-0.0414675509681
  0
VERTEX
  8
PORTS
 10
14.747802050935
 20
12.230178480561
 42
0.0
  0
VERTEX
  8
PORTS
 10
14.748270800935
 20
12.230178480561
 42
0.0
  0
SEQEND
  0
POLYLINE
  8
PORTS
 66
     1
 10
0.0
 20
0.0
 30
0.0
 70
     1
  0
VERTEX
  8
PORTS
 10
14.745575488435
 20
12.226545668061
 42
0.051527899729
  0
VERTEX
  8
PORTS
 10
14.7430100298578
 20
12.2260790556701
 42
0.1118570103004
  0
VERTEX
  8
PORTS
 10
14.740712207185
 20
12.224846449311
 42
0.1267286982177
  0
VERTEX
  8
PORTS
 10
14.7395036338641
 20
12.2229917763501
 42
0.0835665348228
  0
VERTEX
  8
PORTS
 10
14.739169238435
 20
12.220803480561
 42
0.096735493956
  0
VERTEX
  8
PORTS
 10
14.7395700784958
 20
12.2185782355812
 42
0.1189174330086
  0
VERTEX
  8
PORTS
 10
14.740887988435
 20
12.216740980561
 42
0.1049763360976
  0
VERTEX
  8
PORTS
 10
14.7430943191985
 20
12.215537998129
 42
0.0655890446678
  0
VERTEX
  8
PORTS
 10
14.745575488435
 20
12.2151394180611
 42
0.0
  0
SEQEND
  0
POLYLINE
  8
PORTS
 66
     1
 10
0.0
 20
0.0
 30
0.0
 70
     1
  0
VERTEX
  8
PORTS
 10
14.752255175935
 20
12.250510511811
 42
-0.1124037055329
  0
VERTEX
  8
PORTS
 10
14.7548504591831
 20
12.2499689121154
 42
-0.1285150842267
  0
VERTEX
  8
PORTS
 10
14.756864550935
 20
12.2482448868111
 42
-0.1015115572804
  0
VERTEX
  8
PORTS
 10
14.7581595370006
 20
12.245215075294
 42
-0.0545971886717
  0
VERTEX
  8
PORTS
 10
14.758485644685
 20
12.241936293061
 42
-0.0441124381251
  0
VERTEX
  8
PORTS
 10
14.7582349676814
 20
12.2388061028462
 42
-0.0897395622773
  0
VERTEX
  8
PORTS
 10
14.757196582185
 20
12.235842543061
 42
-0.1106499158061
  0
VERTEX
  8
PORTS
 10
14.7554526270149
 20
12.2340349987708
 42
-0.0889281535729
  0
VERTEX
  8
PORTS
 10
14.753134082185
 20
12.2330691055611
 42
0.0
  0
VERTEX
  8
PORTS
 10
14.752528613435
 20
12.236174574311
 42
0.209289474088
  0
VERTEX
  8
PORTS
 10
14.755028613435
 20
12.238030043061
 42
0.0835037376626
  0
VERTEX
  8
PORTS
 10
14.755656505065
 20
12.2399357142462
 42
0.0421068760323
  0
VERTEX
  8
PORTS
 10
14.755809863435
 20
12.241936293061
 42
0.0410610470853
  0
VERTEX
  8
PORTS
 10
14.755662544289
 20
12.2439446131704
 42
0.1027417559845
  0
VERTEX
  8
PORTS
 10
14.754989550935
 20
12.245842543061
 42
0.268934966017
  0
VERTEX
  8
PORTS
 10
14.752528613435
 20
12.247092543061
 42
0.2207254254292
  0
VERTEX
  8
PORTS
 10
14.750497363435
 20
12.246233168061
 42
0.0812446898464
  0
VERTEX
  8
PORTS
 10
14.7496986984386
 20
12.2449180889359
 42
0.0360942473148
  0
VERTEX
  8
PORTS
 10
14.749208300935
 20
12.243459730561
 42
0.0
  0
VERTEX
  8
PORTS
 10
14.748544238435
 20
12.2409401993111
 42
-0.0165112450424
  0
VERTEX
  8
PORTS
 10
14.7479063153858
 20
12.2387383038044
 42
-0.0471393983115
  0
VERTEX
  8
PORTS
 10
14.747020800935
 20
12.236623793061
 42
-0.1106785984997
  0
VERTEX
  8
PORTS
 10
14.745184863435
 20
12.234631605561
 42
-0.1506742186425
  0
VERTEX
  8
PORTS
 10
14.742548144685
 20
12.2339089493111
 42
-0.104626717901
  0
VERTEX
  8
PORTS
 10
14.740092826027
 20
12.2343813690869
 42
-0.1333341216341
  0
VERTEX
  8
PORTS
 10
14.738153613435
 20
12.235959730561
 42
-0.1052869982262
  0
VERTEX
  8
PORTS
 10
14.7369286196631
 20
12.2388502199997
 42
-0.0527291991126
  0
VERTEX
  8
PORTS
 10
14.736630175935
 20
12.241975355561
 42
-0.0476764913354
  0
VERTEX
  8
PORTS
 10
14.7368795014476
 20
12.2448299636336
 42
-0.0868886469679
  0
VERTEX
  8
PORTS
 10
14.737860644685
 20
12.247522230561
 42
-0.118947970896
  0
VERTEX
  8
PORTS
 10
14.7395449581979
 20
12.2492654916022
 42
-0.0925016143885
  0
VERTEX
  8
PORTS
 10
14.741805957185
 20
12.250139418061
 42
0.0
  0
VERTEX
  8
PORTS
 10
14.742196582185
 20
12.246975355561
 42
0.2240787696909
  0
VERTEX
  8
PORTS
 10
14.740048144685
 20
12.245393324311
 42
0.0865902277481
  0
VERTEX
  8
PORTS
 10
14.7394414004096
 20
12.2437346803695
 42
0.0480493736147
  0
VERTEX
  8
PORTS
 10
14.739286425935
 20
12.241975355561
 42
0.0406407841539
  0
VERTEX
  8
PORTS
 10
14.7394178630584
 20
12.2401702883824
 42
0.0984605172523
  0
VERTEX
  8
PORTS
 10
14.740009082185
 20
12.238459730561
 42
0.2732326398425
  0
VERTEX
  8
PORTS
 10
14.742196582185
 20
12.237326918061
 42
0.173362419836
  0
VERTEX
  8
PORTS
 10
14.743680957185
 20
12.237795668061
 42
0.1178648291306
  0
VERTEX
  8
PORTS
 10
14.744677050935
 20
12.239182386811
 42
0.0308020883217
  0
VERTEX
  8
PORTS
 10
14.7453048067907
 20
12.241098009485
 42
0.007311148252
  0
VERTEX
  8
PORTS
 10
14.745809863435
 20
12.243049574311
 42
-0.0129422852069
  0
VERTEX
  8
PORTS
 10
14.7463741469826
 20
12.2450905690097
 42
-0.0366813486017
  0
VERTEX
  8
PORTS
 10
14.747118457185
 20
12.2470730118111
 42
-0.0870251895459
  0
VERTEX
  8
PORTS
 10
14.748427050935
 20
12.249006605561
 42
-0.1007895575704
  0
VERTEX
  8
PORTS
 10
14.750106738435
 20
12.250119886811
 42
-0.0989940762956
  0
SEQEND
  0
POLYLINE
  8
PORTS
 66
     1
 10
0.0
 20
0.0
 30
0.0
 70
     1
  0
VERTEX
  8
PORTS
 10
14.748270800935
 20
12.2573464493111
 42
0.0568364227618
  0
VERTEX
  8
PORTS
 10
14.7511941971965
 20
12.257648661715
 42
0.1060029743539
  0
VERTEX
  8
PORTS
 10
14.753876269685
 20
12.2588503555611
 42
0.1331649840507
  0
VERTEX
  8
PORTS
 10
14.755401365031
 20
12.2608057740205
 42
0.1000024579995
  0
VERTEX
  8
PORTS
 10
14.755848925935
 20
12.263244886811
 42
0.0548371688273
  0
VERTEX
  8
PORTS
 10
14.7556579678601
 20
12.2651384242359
 42
0.0930447085607
  0
VERTEX
  8
PORTS
 10
14.754930957185
 20
12.266897230561
 42
0.1682503435498
  0
VERTEX
  8
PORTS
 10
14.752606738435
 20
12.2687722305611
 42
0.0
  0
VERTEX
  8
PORTS
 10
14.753485644685
 20
12.2718581680611
 42
-0.0886376067999
  0
VERTEX
  8
PORTS
 10
14.7557945896192
 20
12.2705065742905
 42
-0.1387797275812
  0
VERTEX
  8
PORTS
 10
14.757935759963
 20
12.2671705814557
 42
-0.0777223242506
  0
VERTEX
  8
PORTS
 10
14.758485644685
 20
12.263244886811
 42
-0.0854089214507
  0
VERTEX
  8
PORTS
 10
14.7578798759626
 20
12.2593617276131
 42
-0.1292576198243
  0
VERTEX
  8
PORTS
 10
14.755692675935
 20
12.256096449311
 42
-0.1186156754243
  0
VERTEX
  8
PORTS
 10
14.7517589217786
 20
12.254139180233
 42
-0.0613242700813
  0
VERTEX
  8
PORTS
 10
14.747391894685
 20
12.253655043061
 42
-0.0647905500269
  0
VERTEX
  8
PORTS
 10
14.7431586736392
 20
12.2541538682171
 42
-0.1155770652446
  0
VERTEX
  8
PORTS
 10
14.739364550935
 20
12.256096449311
 42
-0.1265885040724
  0
VERTEX
  8
PORTS
 10
14.737188637318
 20
12.2592918400402
 42
-0.088130106242
  0
VERTEX
  8
PORTS
 10
14.736571582185
 20
12.263108168061
 42
-0.096985376348
  0
VERTEX
  8
PORTS
 10
14.7372942172771
 20
12.2672351878699
 42
-0.1098794152768
  0
VERTEX
  8
PORTS
 10
14.7390680649122
 20
12.2698222130554
 42
-0.0733963683867
  0
VERTEX
  8
PORTS
 10
14.7409991561628
 20
12.27113457424
 42
-0.0721840875795
  0
VERTEX
  8
PORTS
 10
14.7443286952964
 20
12.2721587902124
 42
-0.0414675509681
  0
VERTEX
  8
PORTS
 10
14.747802050935
 20
12.272424574311
 42
0.0
  0
VERTEX
  8
PORTS
 10
14.748270800935
 20
12.272424574311
 42
0.0
  0
SEQEND
  0
POLYLINE
  8
PORTS
 66
     1
 10
0.0
 20
0.0
 30
0.0
 70
     1
  0
VERTEX
  8
PORTS
 10
14.745575488435
 20
12.268791761811
 42
0.051527899729
  0
VERTEX
  8
PORTS
 10
14.7430100298578
 20
12.2683251494201
 42
0.1118570103004
  0
VERTEX
  8
PORTS
 10
14.740712207185
 20
12.267092543061
 42
0.1267286982177
  0
VERTEX
  8
PORTS
 10
14.7395036338641
 20
12.2652378701001
 42
0.0835665348228
  0
VERTEX
  8
PORTS
 10
14.739169238435
 20
12.2630495743111
 42
0.096735493956
  0
VERTEX
  8
PORTS
 10
14.7395700784958
 20
12.2608243293312
 42
0.1189174330086
  0
VERTEX
  8
PORTS
 10
14.740887988435
 20
12.2589870743111
 42
0.1049763360976
  0
VERTEX
  8
PORTS
 10
14.7430943191985
 20
12.257784091879
 42
0.0655890446678
  0
VERTEX
  8
PORTS
 10
14.745575488435
 20
12.2573855118111
 42
0.0
  0
SEQEND
  0
POLYLINE
  8
PORTS
 66
     1
 10
0.0
 20
0.0
 30
0.0
 70
     1
  0
VERTEX
  8
PORTS
 10
14.757938769685
 20
12.2850222305611
 42
-0.0662350177385
  0
VERTEX
  8
PORTS
 10
14.758407519685
 20
12.281467543061
 42
-0.0872079146982
  0
VERTEX
  8
PORTS
 10
14.7581231680136
 20
12.2796614294237
 42
-0.2136184891638
  0
VERTEX
  8
PORTS
 10
14.7562705454485
 20
12.2777130461838
 42
-0.1012773233532
  0
VERTEX
  8
PORTS
 10
14.753622363435
 20
12.277248793061
 42
0.0
  0
VERTEX
  8
PORTS
 10
14.739520800935
 20
12.277248793061
 42
0.0
  0
VERTEX
  8
PORTS
 10
14.739520800935
 20
12.274807386811
 42
0.0
  0
VERTEX
  8
PORTS
 10
14.736962207185
 20
12.274807386811
 42
0.0
  0
VERTEX
  8
PORTS
 10
14.736962207185
 20
12.277385511811
 42
0.0
  0
VERTEX
  8
PORTS
 10
14.732235644685
 20
12.278420668061
 42
0.0
  0
VERTEX
  8
PORTS
 10
14.732235644685
 20
12.280764418061
 42
0.0
  0
VERTEX
  8
PORTS
 10
14.736962207185
 20
12.280764418061
 42
0.0
  0
VERTEX
  8
PORTS
 10
14.736962207185
 20
12.284670668061
 42
0.0
  0
VERTEX
  8
PORTS
 10
14.739520800935
 20
12.284670668061
 42
0.0
  0
VERTEX
  8
PORTS
 10
14.739520800935
 20
12.280764418061
 42
0.0
  0
VERTEX
  8
PORTS
 10
14.752860644685
 20
12.280764418061
 42
0.0428081483856
  0
VERTEX
  8
PORTS
 10
14.7539712047237
 20
12.2808486603781
 42
0.1186347617785
  0
VERTEX
  8
PORTS
 10
14.755009082185
 20
12.2812526993111
 42
0.1507883232064
  0
VERTEX
  8
PORTS
 10
14.7554997411407
 20
12.2820563832737
 42
0.0690987987445
  0
VERTEX
  8
PORTS
 10
14.755614550935
 20
12.282990980561
 42
0.0446520693935
  0
VERTEX
  8
PORTS
 10
14.755341113435
 20
12.2850222305611
 42
0.0
  0
SEQEND
  0
POLYLINE
  8
PORTS
 66
     1
 10
0.0
 20
0.0
 30
0.0
 70
     1
  0
VERTEX
  8
PORTS
 10
14.740856738435
 20
11.809393324311
 42
-0.0939711367672
  0
VERTEX
  8
PORTS
 10
14.7442451688162
 20
11.808800911336
 42
-0.1179517837086
  0
VERTEX
  8
PORTS
 10
14.747067675935
 20
11.806834730561
 42
-0.1119681149034
  0
VERTEX
  8
PORTS
 10
14.7488731307233
 20
11.8035954034457
 42
-0.0737781525339
  0
VERTEX
  8
PORTS
 10
14.749372363435
 20
11.799920668061
 42
0.0
  0
VERTEX
  8
PORTS
 10
14.749372363435
 20
11.791834730561
 42
0.0
  0
VERTEX
  8
PORTS
 10
14.760095019685
 20
11.791834730561
 42
0.0
  0
VERTEX
  8
PORTS
 10
14.760095019685
 20
11.788104261811
 42
0.0
  0
VERTEX
  8
PORTS
 10
14.732575488435
 20
11.788104261811
 42
0.0
  0
VERTEX
  8
PORTS
 10
14.732575488435
 20
11.799686293061
 42
-0.0650161537668
  0
VERTEX
  8
PORTS
 10
14.7330234281655
 20
11.8034626496832
 42
-0.1124752820128
  0
VERTEX
  8
PORTS
 10
14.734743457185
 20
11.806854261811
 42
-0.1258836900951
  0
VERTEX
  8
PORTS
 10
14.7375106073842
 20
11.8088207993167
 42
-0.0928904735865
  0
SEQEND
  0
POLYLINE
  8
PORTS
 66
     1
 10
0.0
 20
0.0
 30
0.0
 70
     1
  0
VERTEX
  8
PORTS
 10
14.740895800935
 20
11.805643324311
 42
0.0964294175536
  0
VERTEX
  8
PORTS
 10
14.7385382103795
 20
11.8052329081611
 42
0.2131084512518
  0
VERTEX
  8
PORTS
 10
14.7361166312293
 20
11.8026985121794
 42
0.0579490703588
  0
VERTEX
  8
PORTS
 10
14.7356806034296
 20
11.8009932848903
 42
0.0357294791235
  0
VERTEX
  8
PORTS
 10
14.735563769685
 20
11.799237074311
 42
0.0
  0
VERTEX
  8
PORTS
 10
14.735563769685
 20
11.791834730561
 42
0.0
  0
VERTEX
  8
PORTS
 10
14.746423144685
 20
11.791834730561
 42
0.0
  0
VERTEX
  8
PORTS
 10
14.746423144685
 20
11.799393324311
 42
0.0570404099821
  0
VERTEX
  8
PORTS
 10
14.7461803808163
 20
11.8017384741913
 42
0.0768113591373
  0
VERTEX
  8
PORTS
 10
14.7455272402775
 20
11.8034127739531
 42
0.1622495279227
  0
VERTEX
  8
PORTS
 10
14.7435204682056
 20
11.805169537582
 42
0.100985269636
  0
SEQEND
  0
POLYLINE
  8
PORTS
 66
     1
 10
0.0
 20
0.0
 30
0.0
 70
     1
  0
VERTEX
  8
PORTS
 10
14.749509082185
 20
11.832069105561
 42
-0.0608685187236
  0
VERTEX
  8
PORTS
 10
14.7538596904981
 20
11.8315920301654
 42
-0.0516634026633
  0
VERTEX
  8
PORTS
 10
14.7559355373157
 20
11.8308493738858
 42
-0.0701867301889
  0
VERTEX
  8
PORTS
 10
14.757770800935
 20
11.829627699311
 42
-0.1285325287733
  0
VERTEX
  8
PORTS
 10
14.7599004419202
 20
11.826378476153
 42
-0.0834805802357
  0
VERTEX
  8
PORTS
 10
14.760485644685
 20
11.822537855561
 42
-0.0875517963203
  0
VERTEX
  8
PORTS
 10
14.7598768340402
 20
11.8187210050764
 42
-0.1332403754576
  0
VERTEX
  8
PORTS
 10
14.757673144685
 20
11.815545668061
 42
-0.1130043828155
  0
VERTEX
  8
PORTS
 10
14.7537951133958
 20
11.8136592981116
 42
-0.0612582181755
  0
VERTEX
  8
PORTS
 10
14.749509082185
 20
11.813182386811
 42
-0.0551001325809
  0
VERTEX
  8
PORTS
 10
14.745447446126
 20
11.8135887718782
 42
-0.0744402605987
  0
VERTEX
  8
PORTS
 10
14.7425322708077
 20
11.8146846722775
 42
-0.1630263701714
  0
VERTEX
  8
PORTS
 10
14.7394221691936
 20
11.8181084505953
 42
-0.0620255527281
  0
VERTEX
  8
PORTS
 10
14.7387590228861
 20
11.8203372486999
 42
-0.0429247682039
  0
VERTEX
  8
PORTS
 10
14.738571582185
 20
11.822655043061
 42
-0.078799807473
  0
VERTEX
  8
PORTS
 10
14.7391198366727
 20
11.8265158796093
 42
-0.1396637388127
  0
VERTEX
  8
PORTS
 10
14.741247363435
 20
11.829783949311
 42
-0.0716794803846
  0
VERTEX
  8
PORTS
 10
14.7431027574444
 20
11.8309476678319
 42
-0.0672637721821
  0
VERTEX
  8
PORTS
 10
14.7462480579268
 20
11.8318389259879
 42
-0.0382487684162
  0
SEQEND
  0
POLYLINE
  8
PORTS
 66
     1
 10
0.0
 20
0.0
 30
0.0
 70
     1
  0
VERTEX
  8
PORTS
 10
14.749509082185
 20
11.828377699311
 42
0.0399321948118
  0
VERTEX
  8
PORTS
 10
14.7462482794831
 20
11.8281452963184
 42
0.0382141473987
  0
VERTEX
  8
PORTS
 10
14.7446495077376
 20
11.8277659488812
 42
0.0669073472528
  0
VERTEX
  8
PORTS
 10
14.743161425935
 20
11.827069105561
 42
0.15748936684
  0
VERTEX
  8
PORTS
 10
14.7415892494978
 20
11.8251548711062
 42
0.0960319240221
  0
VERTEX
  8
PORTS
 10
14.741169238435
 20
11.822713636811
 42
0.0971128614353
  0
VERTEX
  8
PORTS
 10
14.7416069211662
 20
11.8202148378399
 42
0.1498281610387
  0
VERTEX
  8
PORTS
 10
14.743200488435
 20
11.818240980561
 42
0.0657161222318
  0
VERTEX
  8
PORTS
 10
14.7446724732839
 20
11.8175229387676
 42
0.0532335796463
  0
VERTEX
  8
PORTS
 10
14.7470648449086
 20
11.8170051535959
 42
0.0291515323091
  0
VERTEX
  8
PORTS
 10
14.749509082185
 20
11.816873793061
 42
0.0434401005189
  0
VERTEX
  8
PORTS
 10
14.7527437386783
 20
11.8171270343446
 42
0.0967572781919
  0
VERTEX
  8
PORTS
 10
14.755798144685
 20
11.818221449311
 42
0.1445652218802
  0
VERTEX
  8
PORTS
 10
14.7574156057476
 20
11.8200803881443
 42
0.1073626729916
  0
VERTEX
  8
PORTS
 10
14.757887988435
 20
11.822498793061
 42
0.0945764661369
  0
VERTEX
  8
PORTS
 10
14.7574605455598
 20
11.8250194626684
 42
0.1559082902112
  0
VERTEX
  8
PORTS
 10
14.755856738435
 20
11.827010511811
 42
0.0651123558508
  0
VERTEX
  8
PORTS
 10
14.7543741358144
 20
11.82772802831
 42
0.0528779015822
  0
VERTEX
  8
PORTS
 10
14.7519674139042
 20
11.828246105355
 42
0.0290049484221
  0
SEQEND
  0
POLYLINE
  8
PORTS
 66
     1
 10
0.0
 20
0.0
 30
0.0
 70
     1
  0
VERTEX
  8
PORTS
 10
14.760095019685
 20
11.856678480561
 42
0.0
  0
VERTEX
  8
PORTS
 10
14.760095019685
 20
11.852596449311
 42
0.0
  0
VERTEX
  8
PORTS
 10
14.745153613435
 20
11.848905043061
 42
0.0
  0
VERTEX
  8
PORTS
 10
14.741852832185
 20
11.848201918061
 42
-0.0049463763774
  0
VERTEX
  8
PORTS
 10
14.744391894685
 20
11.847655043061
 42
-0.0023816482757
  0
VERTEX
  8
PORTS
 10
14.760095019685
 20
11.843670668061
 42
0.0
  0
VERTEX
  8
PORTS
 10
14.760095019685
 20
11.839608168061
 42
0.0
  0
VERTEX
  8
PORTS
 10
14.738962207185
 20
11.833690199311
 42
0.0
  0
VERTEX
  8
PORTS
 10
14.738962207185
 20
11.837166761811
 42
0.0
  0
VERTEX
  8
PORTS
 10
14.753317675935
 20
11.840740980561
 42
-0.0075985148198
  0
VERTEX
  8
PORTS
 10
14.757184863435
 20
11.841580824311
 42
0.0
  0
VERTEX
  8
PORTS
 10
14.755739550935
 20
11.841912855561
 42
0.0
  0
VERTEX
  8
PORTS
 10
14.738962207185
 20
11.846326918061
 42
0.0
  0
VERTEX
  8
PORTS
 10
14.738962207185
 20
11.850096449311
 42
0.0
  0
VERTEX
  8
PORTS
 10
14.753473925935
 20
11.853787855561
 42
0.0
  0
VERTEX
  8
PORTS
 10
14.757184863435
 20
11.854686293061
 42
0.0
  0
VERTEX
  8
PORTS
 10
14.754470019685
 20
11.855291761811
 42
0.0
  0
VERTEX
  8
PORTS
 10
14.738962207185
 20
11.859295668061
 42
0.0
  0
VERTEX
  8
PORTS
 10
14.738962207185
 20
11.862733168061
 42
0.0
  0
SEQEND
  0
POLYLINE
  8
PORTS
 66
     1
 10
0.0
 20
0.0
 30
0.0
 70
     1
  0
VERTEX
  8
PORTS
 10
14.750270800935
 20
11.868026136811
 42
0.0568364227618
  0
VERTEX
  8
PORTS
 10
14.7531941971965
 20
11.868328349215
 42
0.1060029743539
  0
VERTEX
  8
PORTS
 10
14.755876269685
 20
11.869530043061
 42
0.1331649840507
  0
VERTEX
  8
PORTS
 10
14.757401365031
 20
11.8714854615205
 42
0.1000024579995
  0
VERTEX
  8
PORTS
 10
14.757848925935
 20
11.873924574311
 42
0.0548371688273
  0
VERTEX
  8
PORTS
 10
14.7576579678601
 20
11.8758181117359
 42
0.0930447085607
  0
VERTEX
  8
PORTS
 10
14.756930957185
 20
11.877576918061
 42
0.1682503435498
  0
VERTEX
  8
PORTS
 10
14.754606738435
 20
11.879451918061
 42
0.0
  0
VERTEX
  8
PORTS
 10
14.755485644685
 20
11.882537855561
 42
-0.0886376067999
  0
VERTEX
  8
PORTS
 10
14.7577945896192
 20
11.8811862617905
 42
-0.1387797275812
  0
VERTEX
  8
PORTS
 10
14.759935759963
 20
11.8778502689557
 42
-0.0777223242506
  0
VERTEX
  8
PORTS
 10
14.760485644685
 20
11.873924574311
 42
-0.0854089214507
  0
VERTEX
  8
PORTS
 10
14.7598798759626
 20
11.8700414151131
 42
-0.1292576198243
  0
VERTEX
  8
PORTS
 10
14.757692675935
 20
11.866776136811
 42
-0.1186156754243
  0
VERTEX
  8
PORTS
 10
14.7537589217786
 20
11.864818867733
 42
-0.0613242700813
  0
VERTEX
  8
PORTS
 10
14.749391894685
 20
11.864334730561
 42
-0.0647905500269
  0
VERTEX
  8
PORTS
 10
14.7451586736392
 20
11.8648335557171
 42
-0.1155770652446
  0
VERTEX
  8
PORTS
 10
14.741364550935
 20
11.866776136811
 42
-0.1265885040724
  0
VERTEX
  8
PORTS
 10
14.739188637318
 20
11.8699715275402
 42
-0.088130106242
  0
VERTEX
  8
PORTS
 10
14.738571582185
 20
11.873787855561
 42
-0.096985376348
  0
VERTEX
  8
PORTS
 10
14.7392942172771
 20
11.8779148753699
 42
-0.1098794152768
  0
VERTEX
  8
PORTS
 10
14.7410680649122
 20
11.8805019005554
 42
-0.0733963683867
  0
VERTEX
  8
PORTS
 10
14.7429991561628
 20
11.88181426174
 42
-0.0721840875795
  0
VERTEX
  8
PORTS
 10
14.7463286952964
 20
11.8828384777124
 42
-0.0414675509681
  0
VERTEX
  8
PORTS
 10
14.749802050935
 20
11.883104261811
 42
0.0
  0
VERTEX
  8
PORTS
 10
14.750270800935
 20
11.883104261811
 42
0.0
  0
SEQEND
  0
POLYLINE
  8
PORTS
 66
     1
 10
0.0
 20
0.0
 30
0.0
 70
     1
  0
VERTEX
  8
PORTS
 10
14.747575488435
 20
11.879471449311
 42
0.051527899729
  0
VERTEX
  8
PORTS
 10
14.7450100298578
 20
11.8790048369201
 42
0.1118570103004
  0
VERTEX
  8
PORTS
 10
14.742712207185
 20
11.877772230561
 42
0.1267286982177
  0
VERTEX
  8
PORTS
 10
14.7415036338641
 20
11.8759175576001
 42
0.0835665348228
  0
VERTEX
  8
PORTS
 10
14.741169238435
 20
11.873729261811
 42
0.096735493956
  0
VERTEX
  8
PORTS
 10
14.7415700784958
 20
11.8715040168312
 42
0.1189174330086
  0
VERTEX
  8
PORTS
 10
14.742887988435
 20
11.869666761811
 42
0.1049763360976
  0
VERTEX
  8
PORTS
 10
14.7450943191985
 20
11.868463779379
 42
0.0655890446678
  0
VERTEX
  8
PORTS
 10
14.747575488435
 20
11.868065199311
 42
0.0
  0
SEQEND
  0
POLYLINE
  8
PORTS
 66
     1
 10
0.0
 20
0.0
 30
0.0
 70
     1
  0
VERTEX
  8
PORTS
 10
14.760095019685
 20
11.887655043061
 42
0.0
  0
VERTEX
  8
PORTS
 10
14.743884082185
 20
11.887655043061
 42
0.0107037928904
  0
VERTEX
  8
PORTS
 10
14.738962207185
 20
11.887537855561
 42
0.0
  0
VERTEX
  8
PORTS
 10
14.738962207185
 20
11.890858168061
 42
-0.005516810559
  0
VERTEX
  8
PORTS
 10
14.743278613435
 20
11.891014418061
 42
0.0
  0
VERTEX
  8
PORTS
 10
14.743278613435
 20
11.891092543061
 42
-0.034989383873
  0
VERTEX
  8
PORTS
 10
14.7413085352205
 20
11.8918393835563
 42
-0.0936518072336
  0
VERTEX
  8
PORTS
 10
14.739567675935
 20
11.893026136811
 42
-0.1160317524808
  0
VERTEX
  8
PORTS
 10
14.7387805008576
 20
11.8944757802752
 42
-0.0698966887801
  0
VERTEX
  8
PORTS
 10
14.738571582185
 20
11.896112074311
 42
-0.0663128273887
  0
VERTEX
  8
PORTS
 10
14.738766894685
 20
11.897537855561
 42
0.0
  0
VERTEX
  8
PORTS
 10
14.741989550935
 20
11.897537855561
 42
0.0635202875393
  0
VERTEX
  8
PORTS
 10
14.741794238435
 20
11.895662855561
 42
0.281079678549
  0
VERTEX
  8
PORTS
 10
14.743688769685
 20
11.892323011811
 42
0.0921236763209
  0
VERTEX
  8
PORTS
 10
14.7463084062425
 20
11.8913928308139
 42
0.0442470065863
  0
VERTEX
  8
PORTS
 10
14.749079394685
 20
11.891170668061
 42
0.0
  0
VERTEX
  8
PORTS
 10
14.760095019685
 20
11.891170668061
 42
0.0
  0
SEQEND
  0
POLYLINE
  8
PORTS
 66
     1
 10
0.0
 20
0.0
 30
0.0
 70
     1
  0
VERTEX
  8
PORTS
 10
14.469428011811
 20
11.334717543061
 42
0.0
  0
VERTEX
  8
PORTS
 10
14.456674105561
 20
11.334717543061
 42
0.0
  0
VERTEX
  8
PORTS
 10
14.456674105561
 20
11.319834730561
 42
0.0
  0
VERTEX
  8
PORTS
 10
14.469428011811
 20
11.319834730561
 42
0.0
  0
VERTEX
  8
PORTS
 10
14.469428011811
 20
11.316104261811
 42
0.0
  0
VERTEX
  8
PORTS
 10
14.441908480561
 20
11.316104261811
 42
0.0
  0
VERTEX
  8
PORTS
 10
14.441908480561
 20
11.319834730561
 42
0.0
  0
VERTEX
  8
PORTS
 10
14.453549105561
 20
11.319834730561
 42
0.0
  0
VERTEX
  8
PORTS
 10
14.453549105561
 20
11.334717543061
 42
0.0
  0
VERTEX
  8
PORTS
 10
14.441908480561
 20
11.334717543061
 42
0.0
  0
VERTEX
  8
PORTS
 10
14.441908480561
 20
11.338448011811
 42
0.0
  0
VERTEX
  8
PORTS
 10
14.469428011811
 20
11.338448011811
 42
0.0
  0
SEQEND
  0
POLYLINE
  8
PORTS
 66
     1
 10
0.0
 20
0.0
 30
0.0
 70
     1
  0
VERTEX
  8
PORTS
 10
14.459603793061
 20
11.347100355561
 42
0.0568364227618
  0
VERTEX
  8
PORTS
 10
14.4625271893225
 20
11.347402567965
 42
0.1060029743539
  0
VERTEX
  8
PORTS
 10
14.465209261811
 20
11.348604261811
 42
0.1331649840507
  0
VERTEX
  8
PORTS
 10
14.466734357157
 20
11.3505596802705
 42
0.1000024579995
  0
VERTEX
  8
PORTS
 10
14.467181918061
 20
11.352998793061
 42
0.0548371688273
  0
VERTEX
  8
PORTS
 10
14.4669909599861
 20
11.3548923304859
 42
0.0930447085607
  0
VERTEX
  8
PORTS
 10
14.466263949311
 20
11.356651136811
 42
0.1682503435498
  0
VERTEX
  8
PORTS
 10
14.463939730561
 20
11.358526136811
 42
0.0
  0
VERTEX
  8
PORTS
 10
14.464818636811
 20
11.361612074311
 42
-0.0886376067999
  0
VERTEX
  8
PORTS
 10
14.4671275817452
 20
11.3602604805405
 42
-0.1387797275812
  0
VERTEX
  8
PORTS
 10
14.469268752089
 20
11.3569244877057
 42
-0.0777223242506
  0
VERTEX
  8
PORTS
 10
14.469818636811
 20
11.352998793061
 42
-0.0854089214507
  0
VERTEX
  8
PORTS
 10
14.4692128680886
 20
11.3491156338631
 42
-0.1292576198243
  0
VERTEX
  8
PORTS
 10
14.467025668061
 20
11.345850355561
 42
-0.1186156754243
  0
VERTEX
  8
PORTS
 10
14.4630919139046
 20
11.343893086483
 42
-0.0613242700813
  0
VERTEX
  8
PORTS
 10
14.458724886811
 20
11.343408949311
 42
-0.0647905500269
  0
VERTEX
  8
PORTS
 10
14.4544916657652
 20
11.3439077744671
 42
-0.1155770652446
  0
VERTEX
  8
PORTS
 10
14.450697543061
 20
11.345850355561
 42
-0.1265885040724
  0
VERTEX
  8
PORTS
 10
14.448521629444
 20
11.3490457462902
 42
-0.088130106242
  0
VERTEX
  8
PORTS
 10
14.447904574311
 20
11.352862074311
 42
-0.096985376348
  0
VERTEX
  8
PORTS
 10
14.4486272094031
 20
11.3569890941198
 42
-0.1098794152768
  0
VERTEX
  8
PORTS
 10
14.4504010570382
 20
11.3595761193053
 42
-0.0733963683867
  0
VERTEX
  8
PORTS
 10
14.4523321482888
 20
11.36088848049
 42
-0.0721840875795
  0
VERTEX
  8
PORTS
 10
14.4556616874224
 20
11.3619126964623
 42
-0.0414675509681
  0
VERTEX
  8
PORTS
 10
14.459135043061
 20
11.362178480561
 42
0.0
  0
VERTEX
  8
PORTS
 10
14.459603793061
 20
11.362178480561
 42
0.0
  0
SEQEND
  0
POLYLINE
  8
PORTS
 66
     1
 10
0.0
 20
0.0
 30
0.0
 70
     1
  0
VERTEX
  8
PORTS
 10
14.456908480561
 20
11.358545668061
 42
0.051527899729
  0
VERTEX
  8
PORTS
 10
14.4543430219838
 20
11.3580790556701
 42
0.1118570103004
  0
VERTEX
  8
PORTS
 10
14.452045199311
 20
11.356846449311
 42
0.1267286982177
  0
VERTEX
  8
PORTS
 10
14.4508366259901
 20
11.3549917763501
 42
0.0835665348228
  0
VERTEX
  8
PORTS
 10
14.450502230561
 20
11.352803480561
 42
0.096735493956
  0
VERTEX
  8
PORTS
 10
14.4509030706218
 20
11.3505782355812
 42
0.1189174330086
  0
VERTEX
  8
PORTS
 10
14.452220980561
 20
11.348740980561
 42
0.1049763360976
  0
VERTEX
  8
PORTS
 10
14.4544273113245
 20
11.347537998129
 42
0.0655890446678
  0
VERTEX
  8
PORTS
 10
14.456908480561
 20
11.347139418061
 42
0.0
  0
SEQEND
  0
POLYLINE
  8
PORTS
 66
     1
 10
0.0
 20
0.0
 30
0.0
 70
     1
  0
VERTEX
  8
PORTS
 10
14.469818636811
 20
11.372041761811
 42
-0.0745506471535
  0
VERTEX
  8
PORTS
 10
14.4694720822728
 20
11.3694760286481
 42
-0.1295914724382
  0
VERTEX
  8
PORTS
 10
14.468138949311
 20
11.367256605561
 42
-0.1151632086285
  0
VERTEX
  8
PORTS
 10
14.4659913535412
 20
11.366003708808
 42
-0.0769370926946
  0
VERTEX
  8
PORTS
 10
14.463529574311
 20
11.365655043061
 42
-0.0950109947352
  0
VERTEX
  8
PORTS
 10
14.460758337663
 20
11.3661388968961
 42
-0.1292213454722
  0
VERTEX
  8
PORTS
 10
14.458490511811
 20
11.367803480561
 42
-0.070876603637
  0
VERTEX
  8
PORTS
 10
14.4575627844184
 20
11.3693903906509
 42
-0.0597037427303
  0
VERTEX
  8
PORTS
 10
14.4568473855303
 20
11.3720407414558
 42
-0.032704698439
  0
VERTEX
  8
PORTS
 10
14.456615511811
 20
11.374776136811
 42
0.0
  0
VERTEX
  8
PORTS
 10
14.456537386811
 20
11.379522230561
 42
0.0
  0
VERTEX
  8
PORTS
 10
14.455385043061
 20
11.379522230561
 42
0.0583922321851
  0
VERTEX
  8
PORTS
 10
14.45343732368
 20
11.3793196625074
 42
0.1353290446424
  0
VERTEX
  8
PORTS
 10
14.451693636811
 20
11.378428480561
 42
0.1332414431089
  0
VERTEX
  8
PORTS
 10
14.4507980819667
 20
11.3768194923544
 42
0.0663145505861
  0
VERTEX
  8
PORTS
 10
14.450580355561
 20
11.374990980561
 42
0.0456511492598
  0
VERTEX
  8
PORTS
 10
14.4507254239233
 20
11.37321275153
 42
0.1118844381493
  0
VERTEX
  8
PORTS
 10
14.451381136811
 20
11.371553480561
 42
0.1265935058241
  0
VERTEX
  8
PORTS
 10
14.4525265564207
 20
11.3706432212834
 42
0.0775648421596
  0
VERTEX
  8
PORTS
 10
14.453939730561
 20
11.370264418061
 42
0.0
  0
VERTEX
  8
PORTS
 10
14.453607699311
 20
11.366592543061
 42
-0.105857440443
  0
VERTEX
  8
PORTS
 10
14.4509394175358
 20
11.3675674758555
 42
-0.1739699392002
  0
VERTEX
  8
PORTS
 10
14.4484775444454
 20
11.3709362057253
 42
-0.0786723047346
  0
VERTEX
  8
PORTS
 10
14.447904574311
 20
11.375069105561
 42
-0.0640175396106
  0
VERTEX
  8
PORTS
 10
14.4482711470952
 20
11.3782359838351
 42
-0.1215914964016
  0
VERTEX
  8
PORTS
 10
14.449740511811
 20
11.381065199311
 42
-0.1283532381795
  0
VERTEX
  8
PORTS
 10
14.4521587757283
 20
11.3826437100555
 42
-0.0831282047583
  0
VERTEX
  8
PORTS
 10
14.455013949311
 20
11.383076918061
 42
0.0
  0
VERTEX
  8
PORTS
 10
14.464115511811
 20
11.383076918061
 42
0.0350033778787
  0
VERTEX
  8
PORTS
 10
14.4653195536034
 20
11.3831529179511
 42
0.080780511716
  0
VERTEX
  8
PORTS
 10
14.466478793061
 20
11.383487074311
 42
0.175609806855
  0
VERTEX
  8
PORTS
 10
14.4670980498045
 20
11.3841540088496
 42
0.1021750782811
  0
VERTEX
  8
PORTS
 10
14.467260043061
 20
11.385049574311
 42
0.0513670123826
  0
VERTEX
  8
PORTS
 10
14.467123324311
 20
11.386201918061
 42
0.0
  0
VERTEX
  8
PORTS
 10
14.469310824311
 20
11.386201918061
 42
-0.0580322419806
  0
VERTEX
  8
PORTS
 10
14.469623324311
 20
11.383487074311
 42
-0.0735682292639
  0
VERTEX
  8
PORTS
 10
14.4694206663727
 20
11.3819526082602
 42
-0.1400756828828
  0
VERTEX
  8
PORTS
 10
14.468607699311
 20
11.380635511811
 42
-0.1103659752949
  0
VERTEX
  8
PORTS
 10
14.4670739350234
 20
11.3798865246922
 42
-0.0511276087316
  0
VERTEX
  8
PORTS
 10
14.465385043061
 20
11.379639418061
 42
0.0
  0
VERTEX
  8
PORTS
 10
14.465385043061
 20
11.379522230561
 42
-0.0527237016793
  0
VERTEX
  8
PORTS
 10
14.467318561993
 20
11.3781847421273
 42
-0.0844982669732
  0
VERTEX
  8
PORTS
 10
14.468822543061
 20
11.376377699311
 42
-0.0754513173964
  0
VERTEX
  8
PORTS
 10
14.4695987349363
 20
11.3742736286841
 42
-0.0525031766867
  0
SEQEND
  0
POLYLINE
  8
PORTS
 66
     1
 10
0.0
 20
0.0
 30
0.0
 70
     1
  0
VERTEX
  8
PORTS
 10
14.467181918061
 20
11.372842543061
 42
0.134893252751
  0
VERTEX
  8
PORTS
 10
14.466303011811
 20
11.376280043061
 42
0.1352342272794
  0
VERTEX
  8
PORTS
 10
14.463900668061
 20
11.378643324311
 42
0.1320470783826
  0
VERTEX
  8
PORTS
 10
14.460736605561
 20
11.379522230561
 42
0.0
  0
VERTEX
  8
PORTS
 10
14.458998324311
 20
11.379522230561
 42
0.0
  0
VERTEX
  8
PORTS
 10
14.459076449311
 20
11.375674574311
 42
0.0238796830803
  0
VERTEX
  8
PORTS
 10
14.4591884681502
 20
11.3737706936965
 42
0.0568343088574
  0
VERTEX
  8
PORTS
 10
14.459584261811
 20
11.371905043061
 42
0.1555386719182
  0
VERTEX
  8
PORTS
 10
14.461029574311
 20
11.369951918061
 42
0.0939212150393
  0
VERTEX
  8
PORTS
 10
14.4622564783123
 20
11.3694140215684
 42
0.0591922119401
  0
VERTEX
  8
PORTS
 10
14.463588168061
 20
11.369268324311
 42
0.0752337310715
  0
VERTEX
  8
PORTS
 10
14.4650074284691
 20
11.3694636004357
 42
0.1201779492419
  0
VERTEX
  8
PORTS
 10
14.466244418061
 20
11.370186293061
 42
0.1211490493824
  0
VERTEX
  8
PORTS
 10
14.4669813639148
 20
11.3714197602342
 42
0.0770305171538
  0
SEQEND
  0
POLYLINE
  8
PORTS
 66
     1
 10
0.0
 20
0.0
 30
0.0
 70
     1
  0
VERTEX
  8
PORTS
 10
14.466029574311
 20
11.402237074311
 42
-0.0657582185234
  0
VERTEX
  8
PORTS
 10
14.467691822984
 20
11.4011703397271
 42
-0.0915921572975
  0
VERTEX
  8
PORTS
 10
14.468939730561
 20
11.399639418061
 42
-0.0757818511567
  0
VERTEX
  8
PORTS
 10
14.4696285729655
 20
11.3977022433011
 42
-0.049767465689
  0
VERTEX
  8
PORTS
 10
14.469818636811
 20
11.395655043061
 42
-0.0993275978205
  0
VERTEX
  8
PORTS
 10
14.4692249142664
 20
11.3923613118984
 42
-0.1439681629512
  0
VERTEX
  8
PORTS
 10
14.467123324311
 20
11.389756605561
 42
-0.0635704452849
  0
VERTEX
  8
PORTS
 10
14.4652286550424
 20
11.3887900296743
 42
-0.0558298320607
  0
VERTEX
  8
PORTS
 10
14.4621327523635
 20
11.3880680862004
 42
-0.0317588147428
  0
VERTEX
  8
PORTS
 10
14.458959261811
 20
11.387881605561
 42
-0.0394443627734
  0
VERTEX
  8
PORTS
 10
14.4552299597136
 20
11.3881504400235
 42
-0.0535000282408
  0
VERTEX
  8
PORTS
 10
14.4524520392902
 20
11.38888136684
 42
-0.0653758381131
  0
VERTEX
  8
PORTS
 10
14.4505351196382
 20
11.3899208875376
 42
-0.1350471576961
  0
VERTEX
  8
PORTS
 10
14.4485028244579
 20
11.3924590307822
 42
-0.1021043720158
  0
VERTEX
  8
PORTS
 10
14.447904574311
 20
11.395655043061
 42
-0.0493752667814
  0
VERTEX
  8
PORTS
 10
14.4480937823825
 20
11.3977119287598
 42
-0.0761494185738
  0
VERTEX
  8
PORTS
 10
14.448783480561
 20
11.399658949311
 42
-0.15247787434
  0
VERTEX
  8
PORTS
 10
14.451576449311
 20
11.402237074311
 42
0.0
  0
VERTEX
  8
PORTS
 10
14.451576449311
 20
11.402276136811
 42
0.0
  0
VERTEX
  8
PORTS
 10
14.449213168061
 20
11.402237074311
 42
0.0
  0
VERTEX
  8
PORTS
 10
14.440443636811
 20
11.402237074311
 42
0.0
  0
VERTEX
  8
PORTS
 10
14.440443636811
 20
11.405752699311
 42
0.0
  0
VERTEX
  8
PORTS
 10
14.465072543061
 20
11.405752699311
 42
0.0042997179474
  0
VERTEX
  8
PORTS
 10
14.4672514004043
 20
11.4057695231095
 42
0.0187733693617
  0
VERTEX
  8
PORTS
 10
14.469428011811
 20
11.405869886811
 42
0.0
  0
VERTEX
  8
PORTS
 10
14.469428011811
 20
11.402510511811
 42
-0.0184757576901
  0
VERTEX
  8
PORTS
 10
14.467982699311
 20
11.402373793061
 42
-0.0125468675429
  0
VERTEX
  8
PORTS
 10
14.466029574311
 20
11.402315199311
 42
0.0
  0
SEQEND
  0
POLYLINE
  8
PORTS
 66
     1
 10
0.0
 20
0.0
 30
0.0
 70
     1
  0
VERTEX
  8
PORTS
 10
14.458842074311
 20
11.391573011811
 42
0.0349450755501
  0
VERTEX
  8
PORTS
 10
14.4620868463433
 20
11.3917746679994
 42
0.0346737368613
  0
VERTEX
  8
PORTS
 10
14.4636855259608
 20
11.3921087041474
 42
0.0659307379352
  0
VERTEX
  8
PORTS
 10
14.465189730561
 20
11.392744886811
 42
0.1503906603582
  0
VERTEX
  8
PORTS
 10
14.4666742603987
 20
11.3943840813944
 42
0.1093745928814
  0
VERTEX
  8
PORTS
 10
14.467103793061
 20
11.396553480561
 42
0.1032444054524
  0
VERTEX
  8
PORTS
 10
14.4666474417758
 20
11.3989978145262
 42
0.1493902625048
  0
VERTEX
  8
PORTS
 10
14.465033480561
 20
11.400889418061
 42
0.063381621752
  0
VERTEX
  8
PORTS
 10
14.4635270252886
 20
11.4015965447217
 42
0.0514168080908
  0
VERTEX
  8
PORTS
 10
14.461092145626
 20
11.4021071449767
 42
0.0283510247059
  0
VERTEX
  8
PORTS
 10
14.458607699311
 20
11.402237074311
 42
0.0431156673458
  0
VERTEX
  8
PORTS
 10
14.4554375020666
 20
11.4019924937693
 42
0.0401232236987
  0
VERTEX
  8
PORTS
 10
14.4538884617932
 20
11.4015976700011
 42
0.0666145568106
  0
VERTEX
  8
PORTS
 10
14.452455355561
 20
11.400889418061
 42
0.1479144640314
  0
VERTEX
  8
PORTS
 10
14.4509258966677
 20
11.3989922960254
 42
0.0976997975174
  0
VERTEX
  8
PORTS
 10
14.450502230561
 20
11.396592543061
 42
0.1123398528125
  0
VERTEX
  8
PORTS
 10
14.4509505373228
 20
11.3943928774849
 42
0.1489465360474
  0
VERTEX
  8
PORTS
 10
14.452474886811
 20
11.392744886811
 42
0.0639350720269
  0
VERTEX
  8
PORTS
 10
14.4539853642107
 20
11.3921124263972
 42
0.0456103317266
  0
VERTEX
  8
PORTS
 10
14.456395685634
 20
11.3916803492874
 42
0.0238615528309
  0
SEQEND
  0
POLYLINE
  8
PORTS
 66
     1
 10
0.0
 20
0.0
 30
0.0
 70
     1
  0
VERTEX
  8
PORTS
 10
14.458763949311
 20
11.429014418061
 42
-0.0394443627734
  0
VERTEX
  8
PORTS
 10
14.4624932514084
 20
11.4287455835985
 42
-0.0535000282409
  0
VERTEX
  8
PORTS
 10
14.4652711718318
 20
11.428014656782
 42
-0.0653758381131
  0
VERTEX
  8
PORTS
 10
14.4671880914838
 20
11.4269751360844
 42
-0.1350471576961
  0
VERTEX
  8
PORTS
 10
14.4692203866641
 20
11.4244369928399
 42
-0.1021043720158
  0
VERTEX
  8
PORTS
 10
14.469818636811
 20
11.421240980561
 42
-0.0471485319566
  0
VERTEX
  8
PORTS
 10
14.4696440493655
 20
11.4192638539921
 42
-0.1146426369692
  0
VERTEX
  8
PORTS
 10
14.4684861914606
 20
11.4165205709575
 42
-0.1270406806802
  0
VERTEX
  8
PORTS
 10
14.466146761811
 20
11.414678480561
 42
0.0
  0
VERTEX
  8
PORTS
 10
14.466146761811
 20
11.414580824311
 42
-0.0336286615956
  0
VERTEX
  8
PORTS
 10
14.4669755610005
 20
11.4146374606754
 42
-0.0056235511719
  0
VERTEX
  8
PORTS
 10
14.469467074311
 20
11.414658949311
 42
0.0
  0
VERTEX
  8
PORTS
 10
14.477728793061
 20
11.414658949311
 42
0.0
  0
VERTEX
  8
PORTS
 10
14.477728793061
 20
11.411143324311
 42
0.0
  0
VERTEX
  8
PORTS
 10
14.452611605561
 20
11.411143324311
 42
0.0044501418152
  0
VERTEX
  8
PORTS
 10
14.4504522699332
 20
11.4111264185175
 42
0.0188075798917
  0
VERTEX
  8
PORTS
 10
14.448295199311
 20
11.411026136811
 42
0.0
  0
VERTEX
  8
PORTS
 10
14.448295199311
 20
11.414424574311
 42
-0.0179910318592
  0
VERTEX
  8
PORTS
 10
14.448861605561
 20
11.414483168061
 42
-0.0094202417298
  0
VERTEX
  8
PORTS
 10
14.450326449311
 20
11.414561293061
 42
-0.0110412126345
  0
VERTEX
  8
PORTS
 10
14.451693636811
 20
11.414619886811
 42
0.0
  0
VERTEX
  8
PORTS
 10
14.451693636811
 20
11.414698011811
 42
-0.0631069992525
  0
VERTEX
  8
PORTS
 10
14.4500798481696
 20
11.4157221129554
 42
-0.0866064481502
  0
VERTEX
  8
PORTS
 10
14.448842074311
 20
11.417178480561
 42
-0.0845374391961
  0
VERTEX
  8
PORTS
 10
14.448114421328
 20
11.4191490227607
 42
-0.0494022729294
  0
VERTEX
  8
PORTS
 10
14.447924105561
 20
11.421240980561
 42
-0.098371156479
  0
VERTEX
  8
PORTS
 10
14.4485061406388
 20
11.4244865163541
 42
-0.1387402084467
  0
VERTEX
  8
PORTS
 10
14.450541293061
 20
11.427080824311
 42
-0.06864425627
  0
VERTEX
  8
PORTS
 10
14.4524379833998
 20
11.4280888763179
 42
-0.0577076063149
  0
VERTEX
  8
PORTS
 10
14.4555607277585
 20
11.4288266715634
 42
-0.0317942383632
  0
SEQEND
  0
POLYLINE
  8
PORTS
 66
     1
 10
0.0
 20
0.0
 30
0.0
 70
     1
  0
VERTEX
  8
PORTS
 10
14.458842074311
 20
11.425323011811
 42
0.0356958147288
  0
VERTEX
  8
PORTS
 10
14.4556139818997
 20
11.4251180644371
 42
0.0355228828905
  0
VERTEX
  8
PORTS
 10
14.4540246004819
 20
11.4247782626659
 42
0.0673552154186
  0
VERTEX
  8
PORTS
 10
14.452533480561
 20
11.424131605561
 42
0.1469430100061
  0
VERTEX
  8
PORTS
 10
14.4510678973485
 20
11.4224962321169
 42
0.1096424135491
  0
VERTEX
  8
PORTS
 10
14.450638949311
 20
11.420342543061
 42
0.0577328304677
  0
VERTEX
  8
PORTS
 10
14.4508195298916
 20
11.4186325778753
 42
0.1013552969124
  0
VERTEX
  8
PORTS
 10
14.451517855561
 20
11.417061293061
 42
0.0939695376521
  0
VERTEX
  8
PORTS
 10
14.4527587756987
 20
11.4159543695759
 42
0.0577321596752
  0
VERTEX
  8
PORTS
 10
14.454271761811
 20
11.415264418061
 42
0.0509177849902
  0
VERTEX
  8
PORTS
 10
14.4566709095548
 20
11.4147798647191
 42
0.0268987334435
  0
VERTEX
  8
PORTS
 10
14.459115511811
 20
11.414658949311
 42
0.0429201122768
  0
VERTEX
  8
PORTS
 10
14.4622731444131
 20
11.4149017566724
 42
0.1026366950867
  0
VERTEX
  8
PORTS
 10
14.465248324311
 20
11.415987074311
 42
0.1511126280501
  0
VERTEX
  8
PORTS
 10
14.4667965631606
 20
11.4178884776262
 42
0.0975342590857
  0
VERTEX
  8
PORTS
 10
14.467220980561
 20
11.420303480561
 42
0.1100947347689
  0
VERTEX
  8
PORTS
 10
14.4667877562873
 20
11.4224710239342
 42
0.14769267389
  0
VERTEX
  8
PORTS
 10
14.465306918061
 20
11.424112074311
 42
0.0674732638835
  0
VERTEX
  8
PORTS
 10
14.463777824598
 20
11.4247706543352
 42
0.0465682365252
  0
VERTEX
  8
PORTS
 10
14.46132864251
 20
11.4252138717465
 42
0.0239329467671
  0
SEQEND
  0
POLYLINE
  8
PORTS
 66
     1
 10
0.0
 20
0.0
 30
0.0
 70
     1
  0
VERTEX
  8
PORTS
 10
14.451908480561
 20
11.436885511811
 42
-0.0532098921943
  0
VERTEX
  8
PORTS
 10
14.4502156842783
 20
11.4380431905069
 42
-0.0785489213543
  0
VERTEX
  8
PORTS
 10
14.448881136811
 20
11.439600355561
 42
-0.0828368583619
  0
VERTEX
  8
PORTS
 10
14.4481156286192
 20
11.4415548765955
 42
-0.0542927071293
  0
VERTEX
  8
PORTS
 10
14.447904574311
 20
11.443643324311
 42
-0.0702805754063
  0
VERTEX
  8
PORTS
 10
14.4482465103202
 20
11.4463484304444
 42
-0.1348956722456
  0
VERTEX
  8
PORTS
 10
14.449623324311
 20
11.448701918061
 42
-0.0823524527481
  0
VERTEX
  8
PORTS
 10
14.4508885987945
 20
11.4495559995862
 42
-0.0711139239275
  0
VERTEX
  8
PORTS
 10
14.4530756914758
 20
11.4501850151977
 42
-0.0378332064705
  0
VERTEX
  8
PORTS
 10
14.455345980561
 20
11.450342543061
 42
0.0
  0
VERTEX
  8
PORTS
 10
14.469428011811
 20
11.450342543061
 42
0.0
  0
VERTEX
  8
PORTS
 10
14.469428011811
 20
11.446807386811
 42
0.0
  0
VERTEX
  8
PORTS
 10
14.456029574311
 20
11.446807386811
 42
0.0242495179787
  0
VERTEX
  8
PORTS
 10
14.4543626895371
 20
11.4467350505
 42
0.0633363399712
  0
VERTEX
  8
PORTS
 10
14.452728793061
 20
11.446397230561
 42
0.1863811370583
  0
VERTEX
  8
PORTS
 10
14.451127230561
 20
11.445049574311
 42
0.0817191251131
  0
VERTEX
  8
PORTS
 10
14.450719060238
 20
11.44378090349
 42
0.0411533565601
  0
VERTEX
  8
PORTS
 10
14.450619418061
 20
11.442451918061
 42
0.0997424415149
  0
VERTEX
  8
PORTS
 10
14.451028004336
 20
11.4402652731012
 42
0.1159093567085
  0
VERTEX
  8
PORTS
 10
14.452338168061
 20
11.438467543061
 42
0.1082556398323
  0
VERTEX
  8
PORTS
 10
14.454517604216
 20
11.4373043135704
 42
0.0710850664681
  0
VERTEX
  8
PORTS
 10
14.456967074311
 20
11.436983168061
 42
0.0
  0
VERTEX
  8
PORTS
 10
14.469428011811
 20
11.436983168061
 42
0.0
  0
VERTEX
  8
PORTS
 10
14.469428011811
 20
11.433467543061
 42
0.0
  0
VERTEX
  8
PORTS
 10
14.440443636811
 20
11.433467543061
 42
0.0
  0
VERTEX
  8
PORTS
 10
14.440443636811
 20
11.436983168061
 42
0.0
  0
VERTEX
  8
PORTS
 10
14.447982699311
 20
11.436983168061
 42
-0.015314183035
  0
VERTEX
  8
PORTS
 10
14.450443636811
 20
11.436905043061
 42
-0.0053096905898
  0
VERTEX
  8
PORTS
 10
14.451908480561
 20
11.436826918061
 42
0.0
  0
SEQEND
  0
POLYLINE
  8
PORTS
 66
     1
 10
0.0
 20
0.0
 30
0.0
 70
     1
  0
VERTEX
  8
PORTS
 10
14.458842074311
 20
11.473506605561
 42
-0.0608685187236
  0
VERTEX
  8
PORTS
 10
14.4631926826241
 20
11.4730295301654
 42
-0.0516634026633
  0
VERTEX
  8
PORTS
 10
14.4652685294417
 20
11.4722868738858
 42
-0.0701867301889
  0
VERTEX
  8
PORTS
 10
14.467103793061
 20
11.471065199311
 42
-0.1285325287733
  0
VERTEX
  8
PORTS
 10
14.4692334340462
 20
11.467815976153
 42
-0.0834805802357
  0
VERTEX
  8
PORTS
 10
14.469818636811
 20
11.463975355561
 42
-0.0875517963203
  0
VERTEX
  8
PORTS
 10
14.4692098261662
 20
11.4601585050764
 42
-0.1332403754576
  0
VERTEX
  8
PORTS
 10
14.467006136811
 20
11.456983168061
 42
-0.1130043828155
  0
VERTEX
  8
PORTS
 10
14.4631281055218
 20
11.4550967981116
 42
-0.0612582181755
  0
VERTEX
  8
PORTS
 10
14.458842074311
 20
11.454619886811
 42
-0.0551001325809
  0
VERTEX
  8
PORTS
 10
14.454780438252
 20
11.4550262718782
 42
-0.0744402605987
  0
VERTEX
  8
PORTS
 10
14.4518652629337
 20
11.4561221722775
 42
-0.1630263701714
  0
VERTEX
  8
PORTS
 10
14.4487551613196
 20
11.4595459505953
 42
-0.0620255527281
  0
VERTEX
  8
PORTS
 10
14.4480920150121
 20
11.4617747486999
 42
-0.0429247682039
  0
VERTEX
  8
PORTS
 10
14.447904574311
 20
11.464092543061
 42
-0.078799807473
  0
VERTEX
  8
PORTS
 10
14.4484528287987
 20
11.4679533796092
 42
-0.1396637388127
  0
VERTEX
  8
PORTS
 10
14.450580355561
 20
11.471221449311
 42
-0.0716794803846
  0
VERTEX
  8
PORTS
 10
14.4524357495704
 20
11.4723851678318
 42
-0.0672637721821
  0
VERTEX
  8
PORTS
 10
14.4555810500528
 20
11.4732764259879
 42
-0.0382487684162
  0
SEQEND
  0
POLYLINE
  8
PORTS
 66
     1
 10
0.0
 20
0.0
 30
0.0
 70
     1
  0
VERTEX
  8
PORTS
 10
14.458842074311
 20
11.469815199311
 42
0.0399321948118
  0
VERTEX
  8
PORTS
 10
14.4555812716091
 20
11.4695827963184
 42
0.0382141473987
  0
VERTEX
  8
PORTS
 10
14.4539824998636
 20
11.4692034488812
 42
0.0669073472528
  0
VERTEX
  8
PORTS
 10
14.452494418061
 20
11.468506605561
 42
0.15748936684
  0
VERTEX
  8
PORTS
 10
14.4509222416238
 20
11.4665923711061
 42
0.0960319240221
  0
VERTEX
  8
PORTS
 10
14.450502230561
 20
11.464151136811
 42
0.0971128614353
  0
VERTEX
  8
PORTS
 10
14.4509399132922
 20
11.4616523378398
 42
0.1498281610387
  0
VERTEX
  8
PORTS
 10
14.452533480561
 20
11.459678480561
 42
0.0657161222318
  0
VERTEX
  8
PORTS
 10
14.4540054654099
 20
11.4589604387676
 42
0.0532335796463
  0
VERTEX
  8
PORTS
 10
14.4563978370346
 20
11.4584426535958
 42
0.0291515323091
  0
VERTEX
  8
PORTS
 10
14.458842074311
 20
11.458311293061
 42
0.0434401005189
  0
VERTEX
  8
PORTS
 10
14.4620767308043
 20
11.4585645343446
 42
0.0967572781919
  0
VERTEX
  8
PORTS
 10
14.465131136811
 20
11.459658949311
 42
0.1445652218802
  0
VERTEX
  8
PORTS
 10
14.4667485978736
 20
11.4615178881443
 42
0.1073626729916
  0
VERTEX
  8
PORTS
 10
14.467220980561
 20
11.463936293061
 42
0.0945764661369
  0
VERTEX
  8
PORTS
 10
14.4667935376858
 20
11.4664569626684
 42
0.1559082902112
  0
VERTEX
  8
PORTS
 10
14.465189730561
 20
11.468448011811
 42
0.0651123558508
  0
VERTEX
  8
PORTS
 10
14.4637071279404
 20
11.46916552831
 42
0.0528779015822
  0
VERTEX
  8
PORTS
 10
14.4613004060302
 20
11.4696836053549
 42
0.0290049484221
  0
SEQEND
  0
POLYLINE
  8
PORTS
 66
     1
 10
0.0
 20
0.0
 30
0.0
 70
     1
  0
VERTEX
  8
PORTS
 10
14.469428011811
 20
11.491299574311
 42
0.0
  0
VERTEX
  8
PORTS
 10
14.456029574311
 20
11.491299574311
 42
0.0260446638747
  0
VERTEX
  8
PORTS
 10
14.4543923084565
 20
11.4912223331743
 42
0.0574807644914
  0
VERTEX
  8
PORTS
 10
14.452787386811
 20
11.490889418061
 42
0.1846529015158
  0
VERTEX
  8
PORTS
 10
14.451127230561
 20
11.489580824311
 42
0.0873107515048
  0
VERTEX
  8
PORTS
 10
14.4507147878429
 20
11.4882929986635
 42
0.0391510925564
  0
VERTEX
  8
PORTS
 10
14.450619418061
 20
11.486944105561
 42
0.0990948907612
  0
VERTEX
  8
PORTS
 10
14.4510253272514
 20
11.4847410429751
 42
0.1213633703674
  0
VERTEX
  8
PORTS
 10
14.452357699311
 20
11.482940199311
 42
0.1100592928612
  0
VERTEX
  8
PORTS
 10
14.4546404995191
 20
11.4817819181416
 42
0.0659009766608
  0
VERTEX
  8
PORTS
 10
14.457181918061
 20
11.481475355561
 42
0.0
  0
VERTEX
  8
PORTS
 10
14.469428011811
 20
11.481475355561
 42
0.0
  0
VERTEX
  8
PORTS
 10
14.469428011811
 20
11.477959730561
 42
0.0
  0
VERTEX
  8
PORTS
 10
14.452806918061
 20
11.477959730561
 42
0.0038905020061
  0
VERTEX
  8
PORTS
 10
14.4505499188247
 20
11.4779449942027
 42
0.0214460649856
  0
VERTEX
  8
PORTS
 10
14.448295199311
 20
11.477842543061
 42
0.0
  0
VERTEX
  8
PORTS
 10
14.448295199311
 20
11.481162855561
 42
-0.0213572038911
  0
VERTEX
  8
PORTS
 10
14.448822543061
 20
11.481201918061
 42
-0.0025364206712
  0
VERTEX
  8
PORTS
 10
14.449818636811
 20
11.481240980561
 42
-0.0084333970376
  0
VERTEX
  8
PORTS
 10
14.451908480561
 20
11.481319105561
 42
0.0
  0
VERTEX
  8
PORTS
 10
14.451908480561
 20
11.481377699311
 42
-0.051546858734
  0
VERTEX
  8
PORTS
 10
14.4501756010783
 20
11.4825643524367
 42
-0.0855946072544
  0
VERTEX
  8
PORTS
 10
14.448822543061
 20
11.484170668061
 42
-0.0778330258551
  0
VERTEX
  8
PORTS
 10
14.4481050083517
 20
11.4860932287603
 42
-0.0524868123009
  0
VERTEX
  8
PORTS
 10
14.447904574311
 20
11.488135511811
 42
-0.0703129453713
  0
VERTEX
  8
PORTS
 10
14.4482477082626
 20
11.4908546312931
 42
-0.1378347513505
  0
VERTEX
  8
PORTS
 10
14.449642855561
 20
11.493213636811
 42
-0.0803278958573
  0
VERTEX
  8
PORTS
 10
14.4509081128504
 20
11.4940545308191
 42
-0.0702933911146
  0
VERTEX
  8
PORTS
 10
14.4530860510122
 20
11.4946778165452
 42
-0.0378233451065
  0
VERTEX
  8
PORTS
 10
14.455345980561
 20
11.494834730561
 42
0.0
  0
VERTEX
  8
PORTS
 10
14.469428011811
 20
11.494834730561
 42
0.0
  0
SEQEND
  0
POLYLINE
  8
PORTS
 66
     1
 10
0.0
 20
0.0
 30
0.0
 70
     1
  0
VERTEX
  8
PORTS
 10
14.459603793061
 20
11.502823011811
 42
0.0568364227618
  0
VERTEX
  8
PORTS
 10
14.4625271893225
 20
11.5031252242149
 42
0.1060029743539
  0
VERTEX
  8
PORTS
 10
14.465209261811
 20
11.504326918061
 42
0.1331649840507
  0
VERTEX
  8
PORTS
 10
14.466734357157
 20
11.5062823365205
 42
0.1000024579995
  0
VERTEX
  8
PORTS
 10
14.467181918061
 20
11.508721449311
 42
0.0548371688273
  0
VERTEX
  8
PORTS
 10
14.4669909599861
 20
11.5106149867358
 42
0.0930447085607
  0
VERTEX
  8
PORTS
 10
14.466263949311
 20
11.512373793061
 42
0.1682503435498
  0
VERTEX
  8
PORTS
 10
14.463939730561
 20
11.514248793061
 42
0.0
  0
VERTEX
  8
PORTS
 10
14.464818636811
 20
11.517334730561
 42
-0.0886376067999
  0
VERTEX
  8
PORTS
 10
14.4671275817452
 20
11.5159831367905
 42
-0.1387797275812
  0
VERTEX
  8
PORTS
 10
14.469268752089
 20
11.5126471439557
 42
-0.0777223242506
  0
VERTEX
  8
PORTS
 10
14.469818636811
 20
11.508721449311
 42
-0.0854089214507
  0
VERTEX
  8
PORTS
 10
14.4692128680886
 20
11.5048382901131
 42
-0.1292576198243
  0
VERTEX
  8
PORTS
 10
14.467025668061
 20
11.501573011811
 42
-0.1186156754243
  0
VERTEX
  8
PORTS
 10
14.4630919139046
 20
11.499615742733
 42
-0.0613242700813
  0
VERTEX
  8
PORTS
 10
14.458724886811
 20
11.499131605561
 42
-0.0647905500269
  0
VERTEX
  8
PORTS
 10
14.4544916657652
 20
11.4996304307171
 42
-0.1155770652446
  0
VERTEX
  8
PORTS
 10
14.450697543061
 20
11.501573011811
 42
-0.1265885040724
  0
VERTEX
  8
PORTS
 10
14.448521629444
 20
11.5047684025402
 42
-0.088130106242
  0
VERTEX
  8
PORTS
 10
14.447904574311
 20
11.508584730561
 42
-0.096985376348
  0
VERTEX
  8
PORTS
 10
14.4486272094031
 20
11.5127117503698
 42
-0.1098794152768
  0
VERTEX
  8
PORTS
 10
14.4504010570382
 20
11.5152987755553
 42
-0.0733963683867
  0
VERTEX
  8
PORTS
 10
14.4523321482888
 20
11.51661113674
 42
-0.0721840875795
  0
VERTEX
  8
PORTS
 10
14.4556616874224
 20
11.5176353527123
 42
-0.0414675509681
  0
VERTEX
  8
PORTS
 10
14.459135043061
 20
11.517901136811
 42
0.0
  0
VERTEX
  8
PORTS
 10
14.459603793061
 20
11.517901136811
 42
0.0
  0
SEQEND
  0
POLYLINE
  8
PORTS
 66
     1
 10
0.0
 20
0.0
 30
0.0
 70
     1
  0
VERTEX
  8
PORTS
 10
14.456908480561
 20
11.514268324311
 42
0.051527899729
  0
VERTEX
  8
PORTS
 10
14.4543430219838
 20
11.5138017119201
 42
0.1118570103004
  0
VERTEX
  8
PORTS
 10
14.452045199311
 20
11.512569105561
 42
0.1267286982177
  0
VERTEX
  8
PORTS
 10
14.4508366259901
 20
11.5107144326001
 42
0.0835665348228
  0
VERTEX
  8
PORTS
 10
14.450502230561
 20
11.508526136811
 42
0.096735493956
  0
VERTEX
  8
PORTS
 10
14.4509030706218
 20
11.5063008918312
 42
0.1189174330086
  0
VERTEX
  8
PORTS
 10
14.452220980561
 20
11.504463636811
 42
0.1049763360976
  0
VERTEX
  8
PORTS
 10
14.4544273113245
 20
11.503260654379
 42
0.0655890446678
  0
VERTEX
  8
PORTS
 10
14.456908480561
 20
11.502862074311
 42
0.0
  0
SEQEND
  0
POLYLINE
  8
PORTS
 66
     1
 10
0.0
 20
0.0
 30
0.0
 70
     1
  0
VERTEX
  8
PORTS
 10
14.457553011811
 20
11.532783949311
 42
0.0
  0
VERTEX
  8
PORTS
 10
14.465912386811
 20
11.532783949311
 42
0.0
  0
VERTEX
  8
PORTS
 10
14.465912386811
 20
11.529912855561
 42
0.0
  0
VERTEX
  8
PORTS
 10
14.457553011811
 20
11.529912855561
 42
0.0
  0
VERTEX
  8
PORTS
 10
14.457553011811
 20
11.521631605561
 42
0.0
  0
VERTEX
  8
PORTS
 10
14.454701449311
 20
11.521631605561
 42
0.0
  0
VERTEX
  8
PORTS
 10
14.454701449311
 20
11.529912855561
 42
0.0
  0
VERTEX
  8
PORTS
 10
14.446342074311
 20
11.529912855561
 42
0.0
  0
VERTEX
  8
PORTS
 10
14.446342074311
 20
11.532783949311
 42
0.0
  0
VERTEX
  8
PORTS
 10
14.454701449311
 20
11.532783949311
 42
0.0
  0
VERTEX
  8
PORTS
 10
14.454701449311
 20
11.541065199311
 42
0.0
  0
VERTEX
  8
PORTS
 10
14.457553011811
 20
11.541065199311
 42
0.0
  0
SEQEND
  0
POLYLINE
  8
PORTS
 66
     1
 10
0.0
 20
0.0
 30
0.0
 70
     1
  0
VERTEX
  8
PORTS
 10
14.469428011811
 20
11.558037855561
 42
0.0
  0
VERTEX
  8
PORTS
 10
14.456029574311
 20
11.558037855561
 42
0.0359740531264
  0
VERTEX
  8
PORTS
 10
14.4538545771127
 20
11.5578998102237
 42
0.0380643964622
  0
VERTEX
  8
PORTS
 10
14.4527835364893
 20
11.5576647437621
 42
0.0790673658926
  0
VERTEX
  8
PORTS
 10
14.451791293061
 20
11.557198011811
 42
0.1641025196357
  0
VERTEX
  8
PORTS
 10
14.4508430226383
 20
11.5558245979123
 42
0.0763597933619
  0
VERTEX
  8
PORTS
 10
14.450619418061
 20
11.554170668061
 42
0.112333323795
  0
VERTEX
  8
PORTS
 10
14.4510387407007
 20
11.5521805510923
 42
0.1208849277656
  0
VERTEX
  8
PORTS
 10
14.452338168061
 20
11.550615980561
 42
0.1052502765609
  0
VERTEX
  8
PORTS
 10
14.4546548263786
 20
11.5495722252139
 42
0.0575235316221
  0
VERTEX
  8
PORTS
 10
14.457181918061
 20
11.549307386811
 42
0.0
  0
VERTEX
  8
PORTS
 10
14.469428011811
 20
11.549307386811
 42
0.0
  0
VERTEX
  8
PORTS
 10
14.469428011811
 20
11.545811293061
 42
0.0
  0
VERTEX
  8
PORTS
 10
14.452806918061
 20
11.545811293061
 42
0.0038905020061
  0
VERTEX
  8
PORTS
 10
14.4505499188247
 20
11.5457965567027
 42
0.0214460649856
  0
VERTEX
  8
PORTS
 10
14.448295199311
 20
11.545694105561
 42
0.0
  0
VERTEX
  8
PORTS
 10
14.448295199311
 20
11.549014418061
 42
-0.0213572038911
  0
VERTEX
  8
PORTS
 10
14.448822543061
 20
11.549053480561
 42
-0.0025364206712
  0
VERTEX
  8
PORTS
 10
14.449818636811
 20
11.549092543061
 42
-0.0084333970376
  0
VERTEX
  8
PORTS
 10
14.451908480561
 20
11.549170668061
 42
0.0
  0
VERTEX
  8
PORTS
 10
14.451908480561
 20
11.549229261811
 42
-0.0492366315536
  0
VERTEX
  8
PORTS
 10
14.4501673922136
 20
11.5503132473605
 42
-0.0910624421703
  0
VERTEX
  8
PORTS
 10
14.448783480561
 20
11.551826918061
 42
-0.0791385207308
  0
VERTEX
  8
PORTS
 10
14.4481002422177
 20
11.5535540801741
 42
-0.0563856980406
  0
VERTEX
  8
PORTS
 10
14.447904574311
 20
11.555401136811
 42
-0.0544302715687
  0
VERTEX
  8
PORTS
 10
14.448100476162
 20
11.5573670498382
 42
-0.09652546496
  0
VERTEX
  8
PORTS
 10
14.448861605561
 20
11.559190199311
 42
-0.1084358359054
  0
VERTEX
  8
PORTS
 10
14.4502057703716
 20
11.5604464281807
 42
-0.0722249637065
  0
VERTEX
  8
PORTS
 10
14.451908480561
 20
11.561143324311
 42
0.0
  0
VERTEX
  8
PORTS
 10
14.451908480561
 20
11.561201918061
 42
-0.0535479079788
  0
VERTEX
  8
PORTS
 10
14.4501941739859
 20
11.5623096594907
 42
-0.0841549421851
  0
VERTEX
  8
PORTS
 10
14.448842074311
 20
11.563838636811
 42
-0.1367696343643
  0
VERTEX
  8
PORTS
 10
14.447904574311
 20
11.567608168061
 42
-0.0773194973457
  0
VERTEX
  8
PORTS
 10
14.4482539059315
 20
11.5701267683536
 42
-0.1444810253369
  0
VERTEX
  8
PORTS
 10
14.449642855561
 20
11.572256605561
 42
-0.0765711924575
  0
VERTEX
  8
PORTS
 10
14.4509349493791
 20
11.5730241981662
 42
-0.0635460584198
  0
VERTEX
  8
PORTS
 10
14.4531074839492
 20
11.573581471602
 42
-0.0340346063515
  0
VERTEX
  8
PORTS
 10
14.455345980561
 20
11.573721449311
 42
0.0
  0
VERTEX
  8
PORTS
 10
14.469428011811
 20
11.573721449311
 42
0.0
  0
VERTEX
  8
PORTS
 10
14.469428011811
 20
11.570244886811
 42
0.0
  0
VERTEX
  8
PORTS
 10
14.456029574311
 20
11.570244886811
 42
0.0359740531264
  0
VERTEX
  8
PORTS
 10
14.4538545771127
 20
11.5701068414737
 42
0.0380643964622
  0
VERTEX
  8
PORTS
 10
14.4527835364893
 20
11.5698717750121
 42
0.0790673658926
  0
VERTEX
  8
PORTS
 10
14.451791293061
 20
11.569405043061
 42
0.1641025196357
  0
VERTEX
  8
PORTS
 10
14.4508430226383
 20
11.5680316291623
 42
0.0763597933619
  0
VERTEX
  8
PORTS
 10
14.450619418061
 20
11.566377699311
 42
0.1097830416155
  0
VERTEX
  8
PORTS
 10
14.4510304807612
 20
11.5643664141347
 42
0.1253388600739
  0
VERTEX
  8
PORTS
 10
14.452338168061
 20
11.562783949311
 42
0.1049210545806
  0
VERTEX
  8
PORTS
 10
14.4546601201169
 20
11.5617679395474
 42
0.0553144107824
  0
VERTEX
  8
PORTS
 10
14.457181918061
 20
11.561514418061
 42
0.0
  0
VERTEX
  8
PORTS
 10
14.469428011811
 20
11.561514418061
 42
0.0
  0
SEQEND
  0
POLYLINE
  8
PORTS
 66
     1
 10
0.0
 20
0.0
 30
0.0
 70
     1
  0
VERTEX
  8
PORTS
 10
14.443803011811
 20
11.579033949311
 42
0.0
  0
VERTEX
  8
PORTS
 10
14.440443636811
 20
11.579033949311
 42
0.0
  0
VERTEX
  8
PORTS
 10
14.440443636811
 20
11.582549574311
 42
0.0
  0
VERTEX
  8
PORTS
 10
14.443803011811
 20
11.582549574311
 42
0.0
  0
SEQEND
  0
POLYLINE
  8
PORTS
 66
     1
 10
0.0
 20
0.0
 30
0.0
 70
     1
  0
VERTEX
  8
PORTS
 10
14.469428011811
 20
11.579033949311
 42
0.0
  0
VERTEX
  8
PORTS
 10
14.448295199311
 20
11.579033949311
 42
0.0
  0
VERTEX
  8
PORTS
 10
14.448295199311
 20
11.582549574311
 42
0.0
  0
VERTEX
  8
PORTS
 10
14.469428011811
 20
11.582549574311
 42
0.0
  0
SEQEND
  0
POLYLINE
  8
PORTS
 66
     1
 10
0.0
 20
0.0
 30
0.0
 70
     1
  0
VERTEX
  8
PORTS
 10
14.458763949311
 20
11.590615980561
 42
0.0422996656355
  0
VERTEX
  8
PORTS
 10
14.4619782258611
 20
11.5908599202978
 42
0.0999502541686
  0
VERTEX
  8
PORTS
 10
14.465013949311
 20
11.591944105561
 42
0.1378862451421
  0
VERTEX
  8
PORTS
 10
14.4665688449679
 20
11.5936724784299
 42
0.1139616455064
  0
VERTEX
  8
PORTS
 10
14.467045199311
 20
11.595948011811
 42
0.0749827171691
  0
VERTEX
  8
PORTS
 10
14.466812466329
 20
11.5975999117537
 42
0.0969366644771
  0
VERTEX
  8
PORTS
 10
14.466029574311
 20
11.599073011811
 42
0.1173506533585
  0
VERTEX
  8
PORTS
 10
14.4646185143667
 20
11.6001571407127
 42
0.0737271859717
  0
VERTEX
  8
PORTS
 10
14.462904574311
 20
11.600635511811
 42
0.0
  0
VERTEX
  8
PORTS
 10
14.463138949311
 20
11.604190199311
 42
-0.0875623640532
  0
VERTEX
  8
PORTS
 10
14.4658233988557
 20
11.6033646747602
 42
-0.1002792300024
  0
VERTEX
  8
PORTS
 10
14.468002230561
 20
11.601592543061
 42
-0.0995718621853
  0
VERTEX
  8
PORTS
 10
14.4694061103138
 20
11.5989814230269
 42
-0.0750516709739
  0
VERTEX
  8
PORTS
 10
14.469818636811
 20
11.596045668061
 42
-0.0910005262136
  0
VERTEX
  8
PORTS
 10
14.4692003597737
 20
11.5923362938545
 42
-0.1299953027963
  0
VERTEX
  8
PORTS
 10
14.467025668061
 20
11.589268324311
 42
-0.1131760540677
  0
VERTEX
  8
PORTS
 10
14.4631320640664
 20
11.5874083731788
 42
-0.0596838728518
  0
VERTEX
  8
PORTS
 10
14.458842074311
 20
11.586944105561
 42
-0.0607258283358
  0
VERTEX
  8
PORTS
 10
14.4545770211416
 20
11.5874137932685
 42
-0.1141482473632
  0
VERTEX
  8
PORTS
 10
14.450717074311
 20
11.589287855561
 42
-0.1288639493338
  0
VERTEX
  8
PORTS
 10
14.4485339245391
 20
11.5923220165966
 42
-0.0930209451943
  0
VERTEX
  8
PORTS
 10
14.447904574311
 20
11.596006605561
 42
-0.0715822162753
  0
VERTEX
  8
PORTS
 10
14.4482837633053
 20
11.598836211973
 42
-0.0966017838988
  0
VERTEX
  8
PORTS
 10
14.449584261811
 20
11.601377699311
 42
-0.1886834007325
  0
VERTEX
  8
PORTS
 10
14.454213168061
 20
11.604073011811
 42
0.0
  0
VERTEX
  8
PORTS
 10
14.454486605561
 20
11.600459730561
 42
0.0729982038019
  0
VERTEX
  8
PORTS
 10
14.4529709917824
 20
11.6000063090048
 42
0.0950811990562
  0
VERTEX
  8
PORTS
 10
14.451693636811
 20
11.599073011811
 42
0.1179339980807
  0
VERTEX
  8
PORTS
 10
14.4508752089024
 20
11.5975894075697
 42
0.0706714803971
  0
VERTEX
  8
PORTS
 10
14.450658480561
 20
11.595908949311
 42
0.098221086362
  0
VERTEX
  8
PORTS
 10
14.4510594343908
 20
11.5936457060325
 42
0.1503285597012
  0
VERTEX
  8
PORTS
 10
14.452513949311
 20
11.591865980561
 42
0.0710573821701
  0
VERTEX
  8
PORTS
 10
14.4539808130723
 20
11.5911878383956
 42
0.0497718211934
  0
VERTEX
  8
PORTS
 10
14.4563516967297
 20
11.5907288990393
 42
0.0255217637779
  0
SEQEND
  0
POLYLINE
  8
PORTS
 66
     1
 10
0.0
 20
0.0
 30
0.0
 70
     1
  0
VERTEX
  8
PORTS
 10
14.4215183438422
 20
11.1588650039985
 42
-0.0939711367672
  0
VERTEX
  8
PORTS
 10
14.4241443773877
 20
11.1584058839429
 42
-0.1179517837086
  0
VERTEX
  8
PORTS
 10
14.4263318204047
 20
11.1568820938423
 42
-0.1119681149034
  0
VERTEX
  8
PORTS
 10
14.4277310478657
 20
11.1543716153279
 42
-0.0737781525339
  0
VERTEX
  8
PORTS
 10
14.4281179532172
 20
11.1515236954048
 42
0.0
  0
VERTEX
  8
PORTS
 10
14.4281179532172
 20
11.1452570938423
 42
0.0
  0
VERTEX
  8
PORTS
 10
14.436428011811
 20
11.1452570938423
 42
0.0
  0
VERTEX
  8
PORTS
 10
14.436428011811
 20
11.142365980561
 42
0.0
  0
VERTEX
  8
PORTS
 10
14.4151003750922
 20
11.142365980561
 42
0.0
  0
VERTEX
  8
PORTS
 10
14.4151003750922
 20
11.1513420547798
 42
-0.0650161537668
  0
VERTEX
  8
PORTS
 10
14.4154475283834
 20
11.1542687311619
 42
-0.1124752820128
  0
VERTEX
  8
PORTS
 10
14.4167805508735
 20
11.156897230561
 42
-0.1258836900951
  0
VERTEX
  8
PORTS
 10
14.4189250922779
 20
11.1584212971279
 42
-0.0928904735865
  0
SEQEND
  0
POLYLINE
  8
PORTS
 66
     1
 10
0.0
 20
0.0
 30
0.0
 70
     1
  0
VERTEX
  8
PORTS
 10
14.4215486172797
 20
11.1559587539985
 42
0.0964294175536
  0
VERTEX
  8
PORTS
 10
14.4197214845993
 20
11.1556406814823
 42
0.2131084512518
  0
VERTEX
  8
PORTS
 10
14.4178447607578
 20
11.1536765245965
 42
0.0579490703588
  0
VERTEX
  8
PORTS
 10
14.417506839213
 20
11.1523549734474
 42
0.0357294791235
  0
VERTEX
  8
PORTS
 10
14.417416293061
 20
11.1509939102485
 42
0.0
  0
VERTEX
  8
PORTS
 10
14.417416293061
 20
11.1452570938423
 42
0.0
  0
VERTEX
  8
PORTS
 10
14.425832308686
 20
11.1452570938423
 42
0.0
  0
VERTEX
  8
PORTS
 10
14.425832308686
 20
11.1511150039985
 42
0.0570404099821
  0
VERTEX
  8
PORTS
 10
14.4256441666878
 20
11.1529324951557
 42
0.0768113591373
  0
VERTEX
  8
PORTS
 10
14.4251379827702
 20
11.1542300774711
 42
0.1622495279227
  0
VERTEX
  8
PORTS
 10
14.4235827344145
 20
11.1555915692835
 42
0.100985269636
  0
SEQEND
  0
POLYLINE
  8
PORTS
 66
     1
 10
0.0
 20
0.0
 30
0.0
 70
     1
  0
VERTEX
  8
PORTS
 10
14.436428011811
 20
11.1833713516548
 42
0.0
  0
VERTEX
  8
PORTS
 10
14.436428011811
 20
11.1799201797798
 42
0.0
  0
VERTEX
  8
PORTS
 10
14.4228806485297
 20
11.1762268204048
 42
-0.0134466036374
  0
VERTEX
  8
PORTS
 10
14.418324496186
 20
11.1751672500923
 42
-0.0017583966284
  0
VERTEX
  8
PORTS
 10
14.4212610196235
 20
11.1745012344673
 42
-0.003358841434
  0
VERTEX
  8
PORTS
 10
14.4288499194535
 20
11.1724549077477
 42
-0.0003970632497
  0
VERTEX
  8
PORTS
 10
14.436428011811
 20
11.1703689102485
 42
0.0
  0
VERTEX
  8
PORTS
 10
14.436428011811
 20
11.1669177383735
 42
0.0
  0
VERTEX
  8
PORTS
 10
14.4151003750922
 20
11.1606360000923
 42
0.0
  0
VERTEX
  8
PORTS
 10
14.4151003750922
 20
11.1636482071235
 42
0.0
  0
VERTEX
  8
PORTS
 10
14.4286477383735
 20
11.1674777969673
 42
-0.0128579331178
  0
VERTEX
  8
PORTS
 10
14.433885043061
 20
11.1687341446235
 42
-0.004787293777
  0
VERTEX
  8
PORTS
 10
14.430252230561
 20
11.1695666641548
 42
-0.0040839975477
  0
VERTEX
  8
PORTS
 10
14.4226691699719
 20
11.1716449842613
 42
-0.0005749357025
  0
VERTEX
  8
PORTS
 10
14.4151003750922
 20
11.1737746719673
 42
0.0
  0
VERTEX
  8
PORTS
 10
14.4151003750922
 20
11.1765446914985
 42
0.0
  0
VERTEX
  8
PORTS
 10
14.428375277436
 20
11.1802531875923
 42
-0.0103574404653
  0
VERTEX
  8
PORTS
 10
14.433885043061
 20
11.1815852188423
 42
0.0
  0
VERTEX
  8
PORTS
 10
14.4333552579047
 20
11.181721449311
 42
0.0
  0
VERTEX
  8
PORTS
 10
14.4305246914985
 20
11.182387464936
 42
-0.0032405579647
  0
VERTEX
  8
PORTS
 10
14.4228072938284
 20
11.1844951747141
 42
0.0
  0
VERTEX
  8
PORTS
 10
14.4151003750922
 20
11.1866408829048
 42
0.0
  0
VERTEX
  8
PORTS
 10
14.4151003750922
 20
11.189653089936
 42
0.0
  0
SEQEND
  0
POLYLINE
  8
PORTS
 66
     1
 10
0.0
 20
0.0
 30
0.0
 70
     1
  0
VERTEX
  8
PORTS
 10
14.436428011811
 20
11.2073781875923
 42
0.0
  0
VERTEX
  8
PORTS
 10
14.4275730313422
 20
11.2018381485298
 42
0.0
  0
VERTEX
  8
PORTS
 10
14.4275730313422
 20
11.1951931289985
 42
0.0
  0
VERTEX
  8
PORTS
 10
14.436428011811
 20
11.1951931289985
 42
0.0
  0
VERTEX
  8
PORTS
 10
14.436428011811
 20
11.1923020157173
 42
0.0
  0
VERTEX
  8
PORTS
 10
14.4151003750922
 20
11.1923020157173
 42
0.0
  0
VERTEX
  8
PORTS
 10
14.4151003750922
 20
11.2023376602485
 42
-0.0621822829115
  0
VERTEX
  8
PORTS
 10
14.4154307007668
 20
11.2052550445131
 42
-0.1114542454852
  0
VERTEX
  8
PORTS
 10
14.4167200039985
 20
11.2078928360298
 42
-0.1251898819161
  0
VERTEX
  8
PORTS
 10
14.418728054771
 20
11.2094053850591
 42
-0.0994675202623
  0
VERTEX
  8
PORTS
 10
14.4212004727485
 20
11.2098606094673
 42
-0.0814143257939
  0
VERTEX
  8
PORTS
 10
14.4233270760781
 20
11.2095332220339
 42
-0.0977215614775
  0
VERTEX
  8
PORTS
 10
14.4251965664985
 20
11.2084680313423
 42
-0.0986026594835
  0
VERTEX
  8
PORTS
 10
14.4265602222999
 20
11.2067439804536
 42
-0.0762661409826
  0
VERTEX
  8
PORTS
 10
14.4272400235297
 20
11.2046535782173
 42
0.0
  0
VERTEX
  8
PORTS
 10
14.436428011811
 20
11.2107082657173
 42
0.0
  0
SEQEND
  0
POLYLINE
  8
PORTS
 66
     1
 10
0.0
 20
0.0
 30
0.0
 70
     1
  0
VERTEX
  8
PORTS
 10
14.421230746186
 20
11.2069543594673
 42
0.1000713743646
  0
VERTEX
  8
PORTS
 10
14.4196595118801
 20
11.2066657942938
 42
0.1331556442807
  0
VERTEX
  8
PORTS
 10
14.4184001797797
 20
11.2056828750923
 42
0.109140272533
  0
VERTEX
  8
PORTS
 10
14.4176119244545
 20
11.2039467202762
 42
0.0568547409974
  0
VERTEX
  8
PORTS
 10
14.417416293061
 20
11.2020500625923
 42
0.0
  0
VERTEX
  8
PORTS
 10
14.417416293061
 20
11.1951931289985
 42
0.0
  0
VERTEX
  8
PORTS
 10
14.425287386811
 20
11.1951931289985
 42
0.0
  0
VERTEX
  8
PORTS
 10
14.425287386811
 20
11.2021711563423
 42
0.0643117265454
  0
VERTEX
  8
PORTS
 10
14.4250697569618
 20
11.2040283648674
 42
0.1130788759514
  0
VERTEX
  8
PORTS
 10
14.4242278164985
 20
11.205698011811
 42
0.1241836488402
  0
VERTEX
  8
PORTS
 10
14.4228726416735
 20
11.2066681772291
 42
0.0943518769056
  0
SEQEND
  0
POLYLINE
  8
PORTS
 66
     1
 10
0.0
 20
0.0
 30
0.0
 70
     1
  0
VERTEX
  8
PORTS
 10
14.4236658047797
 20
11.0323820938423
 42
-0.0755969301455
  0
VERTEX
  8
PORTS
 10
14.4193703353525
 20
11.032976236565
 42
-0.1197842855234
  0
VERTEX
  8
PORTS
 10
14.4156282071235
 20
11.0351672500923
 42
-0.1210361017188
  0
VERTEX
  8
PORTS
 10
14.4133997317985
 20
11.0387871377328
 42
-0.0800145109493
  0
VERTEX
  8
PORTS
 10
14.4127825039985
 20
11.042992933686
 42
-0.0455474240831
  0
VERTEX
  8
PORTS
 10
14.413030307729
 20
11.0459416940503
 42
-0.0780493815739
  0
VERTEX
  8
PORTS
 10
14.4139783047797
 20
11.048744886811
 42
-0.0912159217347
  0
VERTEX
  8
PORTS
 10
14.4156088681839
 20
11.0507673706018
 42
-0.0721050236794
  0
VERTEX
  8
PORTS
 10
14.4178078946235
 20
11.0521506485298
 42
0.0
  0
VERTEX
  8
PORTS
 10
14.418625277436
 20
11.0493957657173
 42
0.071482882724
  0
VERTEX
  8
PORTS
 10
14.417097611206
 20
11.0483536393767
 42
0.0867287694455
  0
VERTEX
  8
PORTS
 10
14.4159763516547
 20
11.0468830704048
 42
0.0733885722601
  0
VERTEX
  8
PORTS
 10
14.4153224741207
 20
11.0449500411237
 42
0.0471636255992
  0
VERTEX
  8
PORTS
 10
14.4151438321235
 20
11.0429172500923
 42
0.0871253562803
  0
VERTEX
  8
PORTS
 10
14.4156335526681
 20
11.0398441208328
 42
0.1289656523559
  0
VERTEX
  8
PORTS
 10
14.4173840664985
 20
11.0372712539985
 42
0.1140539789962
  0
VERTEX
  8
PORTS
 10
14.4203476107403
 20
11.0357244698217
 42
0.0670015123503
  0
VERTEX
  8
PORTS
 10
14.4236658047797
 20
11.0353186172798
 42
0.0716521975215
  0
VERTEX
  8
PORTS
 10
14.4270513232137
 20
11.0357650822115
 42
0.1106293339466
  0
VERTEX
  8
PORTS
 10
14.4300535000922
 20
11.0373923477485
 42
0.1221074350556
  0
VERTEX
  8
PORTS
 10
14.4318563136806
 20
11.04000180646
 42
0.0914089837369
  0
VERTEX
  8
PORTS
 10
14.4323845547797
 20
11.0431291641548
 42
0.0854244143379
  0
VERTEX
  8
PORTS
 10
14.4317488125922
 20
11.0470193008735
 42
0.1089367076412
  0
VERTEX
  8
PORTS
 10
14.4300232266547
 20
11.049955824311
 42
0.0
  0
VERTEX
  8
PORTS
 10
14.4261785000922
 20
11.049955824311
 42
0.0
  0
VERTEX
  8
PORTS
 10
14.4261785000922
 20
11.0435832657173
 42
0.0
  0
VERTEX
  8
PORTS
 10
14.4237566250922
 20
11.0435832657173
 42
0.0
  0
VERTEX
  8
PORTS
 10
14.4237566250922
 20
11.052619886811
 42
0.0
  0
VERTEX
  8
PORTS
 10
14.4311130704047
 20
11.052619886811
 42
-0.1077088573874
  0
VERTEX
  8
PORTS
 10
14.4337922696235
 20
11.0484572891548
 42
-0.0921609454993
  0
VERTEX
  8
PORTS
 10
14.434730746186
 20
11.0431291641548
 42
-0.0535278224213
  0
VERTEX
  8
PORTS
 10
14.4344305518038
 20
11.0401611247994
 42
-0.0725396293145
  0
VERTEX
  8
PORTS
 10
14.433398714936
 20
11.037362074311
 42
-0.1525361885436
  0
VERTEX
  8
PORTS
 10
14.4295691250922
 20
11.0336535782173
 42
-0.067224068764
  0
VERTEX
  8
PORTS
 10
14.4266924460606
 20
11.0326697104009
 42
-0.0501403966317
  0
SEQEND
  0
POLYLINE
  8
PORTS
 66
     1
 10
0.0
 20
0.0
 30
0.0
 70
     1
  0
VERTEX
  8
PORTS
 10
14.434428011811
 20
11.0713137344673
 42
0.0
  0
VERTEX
  8
PORTS
 10
14.416263949311
 20
11.0599006485298
 42
0.0
  0
VERTEX
  8
PORTS
 10
14.4177322110297
 20
11.0599763321235
 42
0.0
  0
VERTEX
  8
PORTS
 10
14.420260043061
 20
11.0600520157173
 42
0.0
  0
VERTEX
  8
PORTS
 10
14.434428011811
 20
11.0600520157173
 42
0.0
  0
VERTEX
  8
PORTS
 10
14.434428011811
 20
11.0574787735298
 42
0.0
  0
VERTEX
  8
PORTS
 10
14.4131003750922
 20
11.0574787735298
 42
0.0
  0
VERTEX
  8
PORTS
 10
14.4131003750922
 20
11.0608391250923
 42
0.0
  0
VERTEX
  8
PORTS
 10
14.4313855313422
 20
11.0723733047798
 42
-0.0126384531175
  0
VERTEX
  8
PORTS
 10
14.4270867032172
 20
11.0721916641548
 42
0.0
  0
VERTEX
  8
PORTS
 10
14.4131003750922
 20
11.0721916641548
 42
0.0
  0
VERTEX
  8
PORTS
 10
14.4131003750922
 20
11.0747951797798
 42
0.0
  0
VERTEX
  8
PORTS
 10
14.434428011811
 20
11.0747951797798
 42
0.0
  0
SEQEND
  0
POLYLINE
  8
PORTS
 66
     1
 10
0.0
 20
0.0
 30
0.0
 70
     1
  0
VERTEX
  8
PORTS
 10
14.4235447110297
 20
11.0982268204048
 42
-0.0521210169979
  0
VERTEX
  8
PORTS
 10
14.4265135123957
 20
11.0979326478336
 42
-0.0677675573797
  0
VERTEX
  8
PORTS
 10
14.4293269375922
 20
11.096940199311
 42
-0.1495410895431
  0
VERTEX
  8
PORTS
 10
14.4331111172797
 20
11.0932922500923
 42
-0.0706188547284
  0
VERTEX
  8
PORTS
 10
14.4341216552089
 20
11.090652729398
 42
-0.0570827318073
  0
VERTEX
  8
PORTS
 10
14.434428011811
 20
11.0878430313423
 42
0.0
  0
VERTEX
  8
PORTS
 10
14.434428011811
 20
11.079865980561
 42
0.0
  0
VERTEX
  8
PORTS
 10
14.4131003750922
 20
11.079865980561
 42
0.0
  0
VERTEX
  8
PORTS
 10
14.4131003750922
 20
11.0869196914985
 42
-0.0703690430502
  0
VERTEX
  8
PORTS
 10
14.4136699237425
 20
11.091355933637
 42
-0.1179334024132
  0
VERTEX
  8
PORTS
 10
14.4158249844672
 20
11.0952751602485
 42
-0.1252773851016
  0
VERTEX
  8
PORTS
 10
14.4193667156014
 20
11.0975830280699
 42
-0.0841132172618
  0
SEQEND
  0
POLYLINE
  8
PORTS
 66
     1
 10
0.0
 20
0.0
 30
0.0
 70
     1
  0
VERTEX
  8
PORTS
 10
14.4235447110297
 20
11.0953205704048
 42
0.0779316375706
  0
VERTEX
  8
PORTS
 10
14.4202979024989
 20
11.094859795372
 42
0.1266728407153
  0
VERTEX
  8
PORTS
 10
14.4175051602485
 20
11.0931408829048
 42
0.1221352389671
  0
VERTEX
  8
PORTS
 10
14.4158492710549
 20
11.0902033412984
 42
0.0711880777227
  0
VERTEX
  8
PORTS
 10
14.415416293061
 20
11.0868591446235
 42
0.0
  0
VERTEX
  8
PORTS
 10
14.415416293061
 20
11.0827570938423
 42
0.0
  0
VERTEX
  8
PORTS
 10
14.4321120938422
 20
11.0827570938423
 42
0.0
  0
VERTEX
  8
PORTS
 10
14.4321120938422
 20
11.0875100235298
 42
0.0589185855818
  0
VERTEX
  8
PORTS
 10
14.4318731045743
 20
11.0896375318527
 42
0.073283833821
  0
VERTEX
  8
PORTS
 10
14.4310827969672
 20
11.0916272110298
 42
0.1519912927229
  0
VERTEX
  8
PORTS
 10
14.4281160000922
 20
11.0943669571235
 42
0.0661425916155
  0
VERTEX
  8
PORTS
 10
14.4258851254844
 20
11.0951063120971
 42
0.0483820779077
  0
SEQEND
  0
POLYLINE
  8
PORTS
 66
     1
 10
0.0
 20
0.0
 30
0.0
 70
     1
  0
VERTEX
  8
PORTS
 10
14.6806658047797
 20
11.1393820938423
 42
-0.0755969301455
  0
VERTEX
  8
PORTS
 10
14.6763703353525
 20
11.139976236565
 42
-0.1197842855234
  0
VERTEX
  8
PORTS
 10
14.6726282071235
 20
11.1421672500923
 42
-0.1210361017188
  0
VERTEX
  8
PORTS
 10
14.6703997317985
 20
11.1457871377328
 42
-0.0800145109493
  0
VERTEX
  8
PORTS
 10
14.6697825039985
 20
11.149992933686
 42
-0.0455474240831
  0
VERTEX
  8
PORTS
 10
14.670030307729
 20
11.1529416940503
 42
-0.0780493815739
  0
VERTEX
  8
PORTS
 10
14.6709783047797
 20
11.155744886811
 42
-0.0912159217347
  0
VERTEX
  8
PORTS
 10
14.6726088681839
 20
11.1577673706018
 42
-0.0721050236794
  0
VERTEX
  8
PORTS
 10
14.6748078946235
 20
11.1591506485298
 42
0.0
  0
VERTEX
  8
PORTS
 10
14.675625277436
 20
11.1563957657173
 42
0.071482882724
  0
VERTEX
  8
PORTS
 10
14.674097611206
 20
11.1553536393767
 42
0.0867287694455
  0
VERTEX
  8
PORTS
 10
14.6729763516547
 20
11.1538830704048
 42
0.0733885722601
  0
VERTEX
  8
PORTS
 10
14.6723224741207
 20
11.1519500411237
 42
0.0471636255992
  0
VERTEX
  8
PORTS
 10
14.6721438321235
 20
11.1499172500923
 42
0.0871253562803
  0
VERTEX
  8
PORTS
 10
14.6726335526681
 20
11.1468441208328
 42
0.1289656523559
  0
VERTEX
  8
PORTS
 10
14.6743840664985
 20
11.1442712539985
 42
0.1140539789962
  0
VERTEX
  8
PORTS
 10
14.6773476107403
 20
11.1427244698217
 42
0.0670015123503
  0
VERTEX
  8
PORTS
 10
14.6806658047797
 20
11.1423186172798
 42
0.0716521975215
  0
VERTEX
  8
PORTS
 10
14.6840513232137
 20
11.1427650822115
 42
0.1106293339466
  0
VERTEX
  8
PORTS
 10
14.6870535000922
 20
11.1443923477485
 42
0.1221074350556
  0
VERTEX
  8
PORTS
 10
14.6888563136806
 20
11.14700180646
 42
0.0914089837369
  0
VERTEX
  8
PORTS
 10
14.6893845547797
 20
11.1501291641548
 42
0.0854244143379
  0
VERTEX
  8
PORTS
 10
14.6887488125922
 20
11.1540193008735
 42
0.1089367076412
  0
VERTEX
  8
PORTS
 10
14.6870232266547
 20
11.156955824311
 42
0.0
  0
VERTEX
  8
PORTS
 10
14.6831785000922
 20
11.156955824311
 42
0.0
  0
VERTEX
  8
PORTS
 10
14.6831785000922
 20
11.1505832657173
 42
0.0
  0
VERTEX
  8
PORTS
 10
14.6807566250922
 20
11.1505832657173
 42
0.0
  0
VERTEX
  8
PORTS
 10
14.6807566250922
 20
11.159619886811
 42
0.0
  0
VERTEX
  8
PORTS
 10
14.6881130704047
 20
11.159619886811
 42
-0.1077088573874
  0
VERTEX
  8
PORTS
 10
14.6907922696235
 20
11.1554572891548
 42
-0.0921609454993
  0
VERTEX
  8
PORTS
 10
14.691730746186
 20
11.1501291641548
 42
-0.0535278224213
  0
VERTEX
  8
PORTS
 10
14.6914305518038
 20
11.1471611247994
 42
-0.0725396293145
  0
VERTEX
  8
PORTS
 10
14.690398714936
 20
11.144362074311
 42
-0.1525361885436
  0
VERTEX
  8
PORTS
 10
14.6865691250922
 20
11.1406535782173
 42
-0.067224068764
  0
VERTEX
  8
PORTS
 10
14.6836924460606
 20
11.1396697104009
 42
-0.0501403966317
  0
SEQEND
  0
POLYLINE
  8
PORTS
 66
     1
 10
0.0
 20
0.0
 30
0.0
 70
     1
  0
VERTEX
  8
PORTS
 10
14.691428011811
 20
11.1783137344673
 42
0.0
  0
VERTEX
  8
PORTS
 10
14.673263949311
 20
11.1669006485298
 42
0.0
  0
VERTEX
  8
PORTS
 10
14.6747322110297
 20
11.1669763321235
 42
0.0
  0
VERTEX
  8
PORTS
 10
14.677260043061
 20
11.1670520157173
 42
0.0
  0
VERTEX
  8
PORTS
 10
14.691428011811
 20
11.1670520157173
 42
0.0
  0
VERTEX
  8
PORTS
 10
14.691428011811
 20
11.1644787735298
 42
0.0
  0
VERTEX
  8
PORTS
 10
14.6701003750922
 20
11.1644787735298
 42
0.0
  0
VERTEX
  8
PORTS
 10
14.6701003750922
 20
11.1678391250923
 42
0.0
  0
VERTEX
  8
PORTS
 10
14.6883855313422
 20
11.1793733047798
 42
-0.0126384531175
  0
VERTEX
  8
PORTS
 10
14.6840867032172
 20
11.1791916641548
 42
0.0
  0
VERTEX
  8
PORTS
 10
14.6701003750922
 20
11.1791916641548
 42
0.0
  0
VERTEX
  8
PORTS
 10
14.6701003750922
 20
11.1817951797798
 42
0.0
  0
VERTEX
  8
PORTS
 10
14.691428011811
 20
11.1817951797798
 42
0.0
  0
SEQEND
  0
POLYLINE
  8
PORTS
 66
     1
 10
0.0
 20
0.0
 30
0.0
 70
     1
  0
VERTEX
  8
PORTS
 10
14.6805447110297
 20
11.2052268204048
 42
-0.0521210169979
  0
VERTEX
  8
PORTS
 10
14.6835135123957
 20
11.2049326478336
 42
-0.0677675573797
  0
VERTEX
  8
PORTS
 10
14.6863269375922
 20
11.203940199311
 42
-0.1495410895431
  0
VERTEX
  8
PORTS
 10
14.6901111172797
 20
11.2002922500923
 42
-0.0706188547284
  0
VERTEX
  8
PORTS
 10
14.6911216552089
 20
11.197652729398
 42
-0.0570827318073
  0
VERTEX
  8
PORTS
 10
14.691428011811
 20
11.1948430313423
 42
0.0
  0
VERTEX
  8
PORTS
 10
14.691428011811
 20
11.186865980561
 42
0.0
  0
VERTEX
  8
PORTS
 10
14.6701003750922
 20
11.186865980561
 42
0.0
  0
VERTEX
  8
PORTS
 10
14.6701003750922
 20
11.1939196914985
 42
-0.0703690430502
  0
VERTEX
  8
PORTS
 10
14.6706699237425
 20
11.198355933637
 42
-0.1179334024132
  0
VERTEX
  8
PORTS
 10
14.6728249844672
 20
11.2022751602485
 42
-0.1252773851016
  0
VERTEX
  8
PORTS
 10
14.6763667156014
 20
11.2045830280699
 42
-0.0841132172618
  0
SEQEND
  0
POLYLINE
  8
PORTS
 66
     1
 10
0.0
 20
0.0
 30
0.0
 70
     1
  0
VERTEX
  8
PORTS
 10
14.6805447110297
 20
11.2023205704048
 42
0.0779316375706
  0
VERTEX
  8
PORTS
 10
14.6772979024989
 20
11.201859795372
 42
0.1266728407153
  0
VERTEX
  8
PORTS
 10
14.6745051602485
 20
11.2001408829048
 42
0.1221352389671
  0
VERTEX
  8
PORTS
 10
14.6728492710549
 20
11.1972033412984
 42
0.0711880777227
  0
VERTEX
  8
PORTS
 10
14.672416293061
 20
11.1938591446235
 42
0.0
  0
VERTEX
  8
PORTS
 10
14.672416293061
 20
11.1897570938423
 42
0.0
  0
VERTEX
  8
PORTS
 10
14.6891120938422
 20
11.1897570938423
 42
0.0
  0
VERTEX
  8
PORTS
 10
14.6891120938422
 20
11.1945100235298
 42
0.0589185855818
  0
VERTEX
  8
PORTS
 10
14.6888731045743
 20
11.1966375318527
 42
0.073283833821
  0
VERTEX
  8
PORTS
 10
14.6880827969672
 20
11.1986272110298
 42
0.1519912927229
  0
VERTEX
  8
PORTS
 10
14.6851160000922
 20
11.2013669571235
 42
0.0661425916155
  0
VERTEX
  8
PORTS
 10
14.6828851254844
 20
11.2021063120971
 42
0.0483820779077
  0
SEQEND
  0
POLYLINE
  8
PORTS
 66
     1
 10
0.0
 20
0.0
 30
0.0
 70
     1
  0
VERTEX
  8
PORTS
 10
14.692428011811
 20
11.051442152436
 42
0.0
  0
VERTEX
  8
PORTS
 10
14.6835730313422
 20
11.0459021133735
 42
0.0
  0
VERTEX
  8
PORTS
 10
14.6835730313422
 20
11.0392570938423
 42
0.0
  0
VERTEX
  8
PORTS
 10
14.692428011811
 20
11.0392570938423
 42
0.0
  0
VERTEX
  8
PORTS
 10
14.692428011811
 20
11.036365980561
 42
0.0
  0
VERTEX
  8
PORTS
 10
14.6711003750922
 20
11.036365980561
 42
0.0
  0
VERTEX
  8
PORTS
 10
14.6711003750922
 20
11.0464016250923
 42
-0.0621822829115
  0
VERTEX
  8
PORTS
 10
14.6714307007668
 20
11.0493190093569
 42
-0.1114542454852
  0
VERTEX
  8
PORTS
 10
14.6727200039985
 20
11.0519568008735
 42
-0.1251898819161
  0
VERTEX
  8
PORTS
 10
14.674728054771
 20
11.0534693499029
 42
-0.0994675202623
  0
VERTEX
  8
PORTS
 10
14.6772004727485
 20
11.053924574311
 42
-0.0814143257939
  0
VERTEX
  8
PORTS
 10
14.6793270760781
 20
11.0535971868776
 42
-0.0977215614775
  0
VERTEX
  8
PORTS
 10
14.6811965664985
 20
11.052531996186
 42
-0.0986026594835
  0
VERTEX
  8
PORTS
 10
14.6825602222999
 20
11.0508079452973
 42
-0.0762661409826
  0
VERTEX
  8
PORTS
 10
14.6832400235297
 20
11.048717543061
 42
0.0
  0
VERTEX
  8
PORTS
 10
14.692428011811
 20
11.054772230561
 42
0.0
  0
SEQEND
  0
POLYLINE
  8
PORTS
 66
     1
 10
0.0
 20
0.0
 30
0.0
 70
     1
  0
VERTEX
  8
PORTS
 10
14.677230746186
 20
11.051018324311
 42
0.1000713743646
  0
VERTEX
  8
PORTS
 10
14.6756595118801
 20
11.0507297591376
 42
0.1331556442807
  0
VERTEX
  8
PORTS
 10
14.6744001797797
 20
11.049746839936
 42
0.109140272533
  0
VERTEX
  8
PORTS
 10
14.6736119244545
 20
11.0480106851199
 42
0.0568547409974
  0
VERTEX
  8
PORTS
 10
14.673416293061
 20
11.046114027436
 42
0.0
  0
VERTEX
  8
PORTS
 10
14.673416293061
 20
11.0392570938423
 42
0.0
  0
VERTEX
  8
PORTS
 10
14.681287386811
 20
11.0392570938423
 42
0.0
  0
VERTEX
  8
PORTS
 10
14.681287386811
 20
11.046235121186
 42
0.0643117265454
  0
VERTEX
  8
PORTS
 10
14.6810697569618
 20
11.0480923297112
 42
0.1130788759514
  0
VERTEX
  8
PORTS
 10
14.6802278164985
 20
11.0497619766548
 42
0.1241836488402
  0
VERTEX
  8
PORTS
 10
14.6788726416735
 20
11.0507321420728
 42
0.0943518769056
  0
SEQEND
  0
POLYLINE
  8
PORTS
 66
     1
 10
0.0
 20
0.0
 30
0.0
 70
     1
  0
VERTEX
  8
PORTS
 10
14.692428011811
 20
11.0587531875923
 42
0.0
  0
VERTEX
  8
PORTS
 10
14.6711003750922
 20
11.0587531875923
 42
0.0
  0
VERTEX
  8
PORTS
 10
14.6711003750922
 20
11.074934339936
 42
0.0
  0
VERTEX
  8
PORTS
 10
14.6734617032172
 20
11.074934339936
 42
0.0
  0
VERTEX
  8
PORTS
 10
14.6734617032172
 20
11.0616443008735
 42
0.0
  0
VERTEX
  8
PORTS
 10
14.6803035000922
 20
11.0616443008735
 42
0.0
  0
VERTEX
  8
PORTS
 10
14.6803035000922
 20
11.074026136811
 42
0.0
  0
VERTEX
  8
PORTS
 10
14.6826345547797
 20
11.074026136811
 42
0.0
  0
VERTEX
  8
PORTS
 10
14.6826345547797
 20
11.0616443008735
 42
0.0
  0
VERTEX
  8
PORTS
 10
14.690066683686
 20
11.0616443008735
 42
0.0
  0
VERTEX
  8
PORTS
 10
14.690066683686
 20
11.0755549454048
 42
0.0
  0
VERTEX
  8
PORTS
 10
14.692428011811
 20
11.0755549454048
 42
0.0
  0
SEQEND
  0
POLYLINE
  8
PORTS
 66
     1
 10
0.0
 20
0.0
 30
0.0
 70
     1
  0
VERTEX
  8
PORTS
 10
14.6731438321235
 20
11.0888752579048
 42
0.0930646315811
  0
VERTEX
  8
PORTS
 10
14.673661314421
 20
11.085860962584
 42
0.1246553277881
  0
VERTEX
  8
PORTS
 10
14.6754294766547
 20
11.0833654922798
 42
0.1105513577659
  0
VERTEX
  8
PORTS
 10
14.6783691830382
 20
11.0818160330842
 42
0.0691189073858
  0
VERTEX
  8
PORTS
 10
14.6816658047797
 20
11.0813977188423
 42
0.072600920801
  0
VERTEX
  8
PORTS
 10
14.6850070536581
 20
11.0818472542718
 42
0.105485075261
  0
VERTEX
  8
PORTS
 10
14.6879778164985
 20
11.0834411758735
 42
0.118927910233
  0
VERTEX
  8
PORTS
 10
14.6897976087881
 20
11.0859485872554
 42
0.0980034205628
  0
VERTEX
  8
PORTS
 10
14.6903542813422
 20
11.0889963516548
 42
0.0696001632072
  0
VERTEX
  8
PORTS
 10
14.6900732710038
 20
11.0911109816459
 42
0.1223251236908
  0
VERTEX
  8
PORTS
 10
14.6884927515176
 20
11.0938678985377
 42
0.0857515157617
  0
VERTEX
  8
PORTS
 10
14.6859192227485
 20
11.0957321914985
 42
0.0
  0
VERTEX
  8
PORTS
 10
14.687099886811
 20
11.0980935196235
 42
-0.0679902547151
  0
VERTEX
  8
PORTS
 10
14.6894739929804
 20
11.0965532097965
 42
-0.0787912651079
  0
VERTEX
  8
PORTS
 10
14.6912927579047
 20
11.0943850235298
 42
-0.0752616328741
  0
VERTEX
  8
PORTS
 10
14.692395050062
 20
11.0917223351434
 42
-0.0614520953174
  0
VERTEX
  8
PORTS
 10
14.692730746186
 20
11.088860121186
 42
-0.0555451182072
  0
VERTEX
  8
PORTS
 10
14.6924277180149
 20
11.0859808306545
 42
-0.0732976856122
  0
VERTEX
  8
PORTS
 10
14.691398714936
 20
11.0832746719673
 42
-0.1507848506303
  0
VERTEX
  8
PORTS
 10
14.6875691250922
 20
11.0796872696235
 42
-0.0661401090586
  0
VERTEX
  8
PORTS
 10
14.6846876854974
 20
11.0787361319118
 42
-0.0481139616527
  0
VERTEX
  8
PORTS
 10
14.6816658047797
 20
11.0784611954048
 42
-0.075981526502
  0
VERTEX
  8
PORTS
 10
14.6774001816504
 20
11.0790567041954
 42
-0.1160123398642
  0
VERTEX
  8
PORTS
 10
14.6736736172797
 20
11.0812160782173
 42
-0.1201692355104
  0
VERTEX
  8
PORTS
 10
14.6714232507446
 20
11.084725533972
 42
-0.0844257606308
  0
VERTEX
  8
PORTS
 10
14.6707825039985
 20
11.0888449844673
 42
-0.0529278452677
  0
VERTEX
  8
PORTS
 10
14.6710723676906
 20
11.0917787237402
 42
-0.0792125419036
  0
VERTEX
  8
PORTS
 10
14.6721145352485
 20
11.0945363907173
 42
-0.1692261409239
  0
VERTEX
  8
PORTS
 10
14.6760652188422
 20
11.0978967422798
 42
0.0
  0
VERTEX
  8
PORTS
 10
14.6769734219672
 20
11.095156996186
 42
0.1694719996613
  0
VERTEX
  8
PORTS
 10
14.6741277188422
 20
11.0927653946235
 42
0.0771208620761
  0
VERTEX
  8
PORTS
 10
14.6733682490967
 20
11.0908879883238
 42
0.0588890727708
  0
SEQEND
  0
POLYLINE
  8
PORTS
 66
     1
 10
0.0
 20
0.0
 30
0.0
 70
     1
  0
VERTEX
  8
PORTS
 10
11.659856738435
 20
10.980393324311
 42
-0.0939711367672
  0
VERTEX
  8
PORTS
 10
11.6632451688162
 20
10.979800911336
 42
-0.1179517837086
  0
VERTEX
  8
PORTS
 10
11.666067675935
 20
10.977834730561
 42
-0.1119681149034
  0
VERTEX
  8
PORTS
 10
11.6678731307233
 20
10.9745954034457
 42
-0.0737781525339
  0
VERTEX
  8
PORTS
 10
11.668372363435
 20
10.970920668061
 42
0.0
  0
VERTEX
  8
PORTS
 10
11.668372363435
 20
10.962834730561
 42
0.0
  0
VERTEX
  8
PORTS
 10
11.679095019685
 20
10.962834730561
 42
0.0
  0
VERTEX
  8
PORTS
 10
11.679095019685
 20
10.959104261811
 42
0.0
  0
VERTEX
  8
PORTS
 10
11.651575488435
 20
10.959104261811
 42
0.0
  0
VERTEX
  8
PORTS
 10
11.651575488435
 20
10.970686293061
 42
-0.0650161537668
  0
VERTEX
  8
PORTS
 10
11.6520234281655
 20
10.9744626496832
 42
-0.1124752820128
  0
VERTEX
  8
PORTS
 10
11.653743457185
 20
10.977854261811
 42
-0.1258836900951
  0
VERTEX
  8
PORTS
 10
11.6565106073842
 20
10.9798207993167
 42
-0.0928904735865
  0
SEQEND
  0
POLYLINE
  8
PORTS
 66
     1
 10
0.0
 20
0.0
 30
0.0
 70
     1
  0
VERTEX
  8
PORTS
 10
11.659895800935
 20
10.976643324311
 42
0.0964294175536
  0
VERTEX
  8
PORTS
 10
11.6575382103795
 20
10.9762329081611
 42
0.2131084512518
  0
VERTEX
  8
PORTS
 10
11.6551166312293
 20
10.9736985121794
 42
0.0579490703588
  0
VERTEX
  8
PORTS
 10
11.6546806034296
 20
10.9719932848903
 42
0.0357294791235
  0
VERTEX
  8
PORTS
 10
11.654563769685
 20
10.970237074311
 42
0.0
  0
VERTEX
  8
PORTS
 10
11.654563769685
 20
10.962834730561
 42
0.0
  0
VERTEX
  8
PORTS
 10
11.665423144685
 20
10.962834730561
 42
0.0
  0
VERTEX
  8
PORTS
 10
11.665423144685
 20
10.970393324311
 42
0.0570404099821
  0
VERTEX
  8
PORTS
 10
11.6651803808163
 20
10.9727384741913
 42
0.0768113591373
  0
VERTEX
  8
PORTS
 10
11.6645272402775
 20
10.9744127739531
 42
0.1622495279227
  0
VERTEX
  8
PORTS
 10
11.6625204682056
 20
10.976169537582
 42
0.100985269636
  0
SEQEND
  0
POLYLINE
  8
PORTS
 66
     1
 10
0.0
 20
0.0
 30
0.0
 70
     1
  0
VERTEX
  8
PORTS
 10
11.654212207185
 20
10.997971449311
 42
0.0930646315811
  0
VERTEX
  8
PORTS
 10
11.6548799262785
 20
10.9940820359939
 42
0.1246553277881
  0
VERTEX
  8
PORTS
 10
11.657161425935
 20
10.990862074311
 42
0.1105513577659
  0
VERTEX
  8
PORTS
 10
11.6609545954621
 20
10.9888627721232
 42
0.0691189073858
  0
VERTEX
  8
PORTS
 10
11.665208300935
 20
10.988323011811
 42
0.072600920801
  0
VERTEX
  8
PORTS
 10
11.6695195898103
 20
10.9889030575265
 42
0.105485075261
  0
VERTEX
  8
PORTS
 10
11.673352832185
 20
10.990959730561
 42
0.118927910233
  0
VERTEX
  8
PORTS
 10
11.6757009512683
 20
10.9941951000861
 42
0.0980034205628
  0
VERTEX
  8
PORTS
 10
11.676419238435
 20
10.998127699311
 42
0.0696001632072
  0
VERTEX
  8
PORTS
 10
11.67605664445
 20
11.0008562541383
 42
0.1223251236908
  0
VERTEX
  8
PORTS
 10
11.6740172644677
 20
11.0044135662567
 42
0.0857515157617
  0
VERTEX
  8
PORTS
 10
11.670696582185
 20
11.006819105561
 42
0.0
  0
VERTEX
  8
PORTS
 10
11.672220019685
 20
11.009865980561
 42
-0.0679902547151
  0
VERTEX
  8
PORTS
 10
11.6752833824842
 20
11.00787848401
 42
-0.0787912651079
  0
VERTEX
  8
PORTS
 10
11.677630175935
 20
11.005080824311
 42
-0.0752616328741
  0
VERTEX
  8
PORTS
 10
11.679052488396
 20
11.0016450973609
 42
-0.0614520953174
  0
VERTEX
  8
PORTS
 10
11.679485644685
 20
10.997951918061
 42
-0.0555451182072
  0
VERTEX
  8
PORTS
 10
11.6790946405933
 20
10.9942367044719
 42
-0.0732976856122
  0
VERTEX
  8
PORTS
 10
11.677766894685
 20
10.990744886811
 42
-0.1507848506303
  0
VERTEX
  8
PORTS
 10
11.672825488435
 20
10.986115980561
 42
-0.0661401090586
  0
VERTEX
  8
PORTS
 10
11.669107501861
 20
10.9848887060943
 42
-0.0481139616527
  0
VERTEX
  8
PORTS
 10
11.665208300935
 20
10.984533949311
 42
-0.075981526502
  0
VERTEX
  8
PORTS
 10
11.6597042710907
 20
10.9853023477505
 42
-0.1160123398642
  0
VERTEX
  8
PORTS
 10
11.654895800935
 20
10.988088636811
 42
-0.1201692355104
  0
VERTEX
  8
PORTS
 10
11.65199210218
 20
10.9926169668171
 42
-0.0844257606308
  0
VERTEX
  8
PORTS
 10
11.651165332185
 20
10.997932386811
 42
-0.0529278452677
  0
VERTEX
  8
PORTS
 10
11.6515393498522
 20
11.0017178568407
 42
-0.0792125419036
  0
VERTEX
  8
PORTS
 10
11.652884082185
 20
11.005276136811
 42
-0.1692261409239
  0
VERTEX
  8
PORTS
 10
11.657981738435
 20
11.009612074311
 42
0.0
  0
VERTEX
  8
PORTS
 10
11.659153613435
 20
11.006076918061
 42
0.1694719996613
  0
VERTEX
  8
PORTS
 10
11.655481738435
 20
11.002990980561
 42
0.0771208620761
  0
VERTEX
  8
PORTS
 10
11.654501777473
 20
11.0005685208194
 42
0.0588890727708
  0
SEQEND
  0
POLYLINE
  8
PORTS
 66
     1
 10
0.0
 20
0.0
 30
0.0
 70
     1
  0
VERTEX
  8
PORTS
 10
11.679095019685
 20
11.015080824311
 42
0.0
  0
VERTEX
  8
PORTS
 10
11.651575488435
 20
11.015080824311
 42
0.0
  0
VERTEX
  8
PORTS
 10
11.651575488435
 20
11.018811293061
 42
0.0
  0
VERTEX
  8
PORTS
 10
11.679095019685
 20
11.018811293061
 42
0.0
  0
SEQEND
  0
POLYLINE
  8
PORTS
 66
     1
 10
0.0
 20
0.0
 30
0.0
 70
     1
  0
VERTEX
  8
PORTS
 10
11.679095019685
 20
11.025783949311
 42
0.0
  0
VERTEX
  8
PORTS
 10
11.651575488435
 20
11.025783949311
 42
0.0
  0
VERTEX
  8
PORTS
 10
11.651575488435
 20
11.046662855561
 42
0.0
  0
VERTEX
  8
PORTS
 10
11.654622363435
 20
11.046662855561
 42
0.0
  0
VERTEX
  8
PORTS
 10
11.654622363435
 20
11.029514418061
 42
0.0
  0
VERTEX
  8
PORTS
 10
11.663450488435
 20
11.029514418061
 42
0.0
  0
VERTEX
  8
PORTS
 10
11.663450488435
 20
11.045490980561
 42
0.0
  0
VERTEX
  8
PORTS
 10
11.666458300935
 20
11.045490980561
 42
0.0
  0
VERTEX
  8
PORTS
 10
11.666458300935
 20
11.029514418061
 42
0.0
  0
VERTEX
  8
PORTS
 10
11.676048144685
 20
11.029514418061
 42
0.0
  0
VERTEX
  8
PORTS
 10
11.676048144685
 20
11.047463636811
 42
0.0
  0
VERTEX
  8
PORTS
 10
11.679095019685
 20
11.047463636811
 42
0.0
  0
SEQEND
  0
POLYLINE
  8
PORTS
 66
     1
 10
0.0
 20
0.0
 30
0.0
 70
     1
  0
VERTEX
  8
PORTS
 10
11.670032519685
 20
11.050959730561
 42
0.0
  0
VERTEX
  8
PORTS
 10
11.666907519685
 20
11.050959730561
 42
0.0
  0
VERTEX
  8
PORTS
 10
11.666907519685
 20
11.060725355561
 42
0.0
  0
VERTEX
  8
PORTS
 10
11.670032519685
 20
11.060725355561
 42
0.0
  0
SEQEND
  0
POLYLINE
  8
PORTS
 66
     1
 10
0.0
 20
0.0
 30
0.0
 70
     1
  0
VERTEX
  8
PORTS
 10
11.679095019685
 20
11.084221449311
 42
0.0
  0
VERTEX
  8
PORTS
 10
11.667063769685
 20
11.075959730561
 42
0.0
  0
VERTEX
  8
PORTS
 10
11.679095019685
 20
11.067522230561
 42
0.0
  0
VERTEX
  8
PORTS
 10
11.679095019685
 20
11.063401136811
 42
0.0
  0
VERTEX
  8
PORTS
 10
11.664798144685
 20
11.073869886811
 42
0.0
  0
VERTEX
  8
PORTS
 10
11.651575488435
 20
11.064201918061
 42
0.0
  0
VERTEX
  8
PORTS
 10
11.651575488435
 20
11.068323011811
 42
0.0
  0
VERTEX
  8
PORTS
 10
11.662376269685
 20
11.075979261811
 42
0.0
  0
VERTEX
  8
PORTS
 10
11.651575488435
 20
11.083420668061
 42
0.0
  0
VERTEX
  8
PORTS
 10
11.651575488435
 20
11.087541761811
 42
0.0
  0
VERTEX
  8
PORTS
 10
11.664661425935
 20
11.078127699311
 42
0.0
  0
VERTEX
  8
PORTS
 10
11.679095019685
 20
11.088342543061
 42
0.0
  0
SEQEND
  0
POLYLINE
  8
PORTS
 66
     1
 10
0.0
 20
0.0
 30
0.0
 70
     1
  0
VERTEX
  8
PORTS
 10
11.672864550935
 20
11.106389418061
 42
0.0
  0
VERTEX
  8
PORTS
 10
11.679095019685
 20
11.106389418061
 42
0.0
  0
VERTEX
  8
PORTS
 10
11.679095019685
 20
11.103069105561
 42
0.0
  0
VERTEX
  8
PORTS
 10
11.672864550935
 20
11.103069105561
 42
0.0
  0
VERTEX
  8
PORTS
 10
11.672864550935
 20
11.090100355561
 42
0.0
  0
VERTEX
  8
PORTS
 10
11.670130175935
 20
11.090100355561
 42
0.0
  0
VERTEX
  8
PORTS
 10
11.651575488435
 20
11.102698011811
 42
0.0
  0
VERTEX
  8
PORTS
 10
11.651575488435
 20
11.106389418061
 42
0.0
  0
VERTEX
  8
PORTS
 10
11.670091113435
 20
11.106389418061
 42
0.0
  0
VERTEX
  8
PORTS
 10
11.670091113435
 20
11.110256605561
 42
0.0
  0
VERTEX
  8
PORTS
 10
11.672864550935
 20
11.110256605561
 42
0.0
  0
SEQEND
  0
POLYLINE
  8
PORTS
 66
     1
 10
0.0
 20
0.0
 30
0.0
 70
     1
  0
VERTEX
  8
PORTS
 10
11.655540332185
 20
11.103069105561
 42
-0.0151913303263
  0
VERTEX
  8
PORTS
 10
11.656575488435
 20
11.102522230561
 42
-0.0191783236061
  0
VERTEX
  8
PORTS
 10
11.657864550935
 20
11.101760511811
 42
0.0
  0
VERTEX
  8
PORTS
 10
11.668255175935
 20
11.094709730561
 42
0.0
  0
VERTEX
  8
PORTS
 10
11.669700488435
 20
11.093655043061
 42
0.0
  0
VERTEX
  8
PORTS
 10
11.670091113435
 20
11.093342543061
 42
0.0
  0
VERTEX
  8
PORTS
 10
11.670091113435
 20
11.103069105561
 42
0.0
  0
SEQEND
  0
TEXT
  8
PORTS
 10
10.314761003937
 20
11.823490019685
 30
0.0
 40
0.04
  1
GND
 72
     0
 73
     1
  0
POLYLINE
  8
PORTS
 66
     1
 10
0.0
 20
0.0
 30
0.0
 70
     1
  0
VERTEX
  8
PORTS
 10
14.386420019685
 20
13.132920019685
 42
0.0
  0
VERTEX
  8
PORTS
 10
15.069491003937
 20
13.132920019685
 42
0.0
  0
VERTEX
  8
PORTS
 10
15.069491003937
 20
13.650243011811
 42
0.0
  0
VERTEX
  8
PORTS
 10
14.386420019685
 20
13.650243011811
 42
0.0
  0
SEQEND
  0
POLYLINE
  8
PORTS
 66
     1
 10
0.0
 20
0.0
 30
0.0
 70
     0
  0
VERTEX
  8
PORTS
 10
15.069491003937
 20
12.451323011811
 42
0.0
  0
VERTEX
  8
PORTS
 10
15.069491003937
 20
12.967071003937
 42
0.0
  0
SEQEND
  0
POLYLINE
  8
PORTS
 66
     1
 10
0.0
 20
0.0
 30
0.0
 70
     0
  0
VERTEX
  8
PORTS
 10
14.380176003937
 20
12.451323011811
 42
0.0
  0
VERTEX
  8
PORTS
 10
15.069596988189
 20
12.451323011811
 42
0.0
  0
SEQEND
  0
POLYLINE
  8
PORTS
 66
     1
 10
0.0
 20
0.0
 30
0.0
 70
     0
  0
VERTEX
  8
PORTS
 10
14.380176003937
 20
12.967071003937
 42
0.0
  0
VERTEX
  8
PORTS
 10
15.069596988189
 20
12.967071003937
 42
0.0
  0
SEQEND
  0
POLYLINE
  8
PORTS
 66
     1
 10
0.0
 20
0.0
 30
0.0
 70
     0
  0
VERTEX
  8
PORTS
 10
14.379923996063
 20
12.451323011811
 42
0.0
  0
VERTEX
  8
PORTS
 10
14.379923996063
 20
12.967071003937
 42
0.0
  0
SEQEND
  0
POLYLINE
  8
PORTS
 66
     1
 10
0.0
 20
0.0
 30
0.0
 70
     0
  0
VERTEX
  8
PORTS
 10
10.392706003937
 20
13.068313996063
 42
0.0
  0
VERTEX
  8
PORTS
 10
10.392706003937
 20
13.135243996063
 42
0.0
  0
VERTEX
  8
PORTS
 10
10.420266003937
 20
13.135243996063
 42
0.0
  0
SEQEND
  0
POLYLINE
  8
PORTS
 66
     1
 10
0.0
 20
0.0
 30
0.0
 70
     0
  0
VERTEX
  8
PORTS
 10
10.392706003937
 20
13.580133996063
 42
0.0
  0
VERTEX
  8
PORTS
 10
10.392706003937
 20
13.513203996063
 42
0.0
  0
VERTEX
  8
PORTS
 10
10.420266003937
 20
13.513203996063
 42
0.0
  0
SEQEND
  0
POLYLINE
  8
PORTS
 66
     1
 10
0.0
 20
0.0
 30
0.0
 70
     0
  0
VERTEX
  8
PORTS
 10
10.290346003937
 20
13.609653996063
 42
0.0
  0
VERTEX
  8
PORTS
 10
10.164356003937
 20
13.609653996063
 42
0.0
  0
SEQEND
  0
POLYLINE
  8
PORTS
 66
     1
 10
0.0
 20
0.0
 30
0.0
 70
     0
  0
VERTEX
  8
PORTS
 10
10.164356003937
 20
13.038793996063
 42
0.0
  0
VERTEX
  8
PORTS
 10
10.286406003937
 20
13.038793996063
 42
0.0
  0
SEQEND
  0
POLYLINE
  8
BASE
 66
     1
 10
0.0
 20
0.0
 30
0.0
 70
     1
  0
VERTEX
  8
BASE
 10
9.875
 20
10.8125
 42
0.0
  0
VERTEX
  8
BASE
 10
15.125
 20
10.8125
 42
0.0
  0
VERTEX
  8
BASE
 10
15.125
 20
14.1875
 42
0.0
  0
VERTEX
  8
BASE
 10
9.875
 20
14.1875
 42
0.0
  0
SEQEND
  0
POLYLINE
  8
BASE
 66
     1
 10
0.0
 20
0.0
 30
0.0
 70
     1
  0
VERTEX
  8
BASE
 10
10.136001988189
 20
10.936376003937
 42
0.0
  0
VERTEX
  8
BASE
 10
14.850115019685
 20
10.936376003937
 42
0.414212
  0
VERTEX
  8
BASE
 10
14.991846988189
 20
11.078108011811
 42
0.0
  0
VERTEX
  8
BASE
 10
14.991846988189
 20
13.717548996063
 42
0.0
  0
VERTEX
  8
BASE
 10
14.991593011811
 20
13.717803011811
 42
0.0
  0
VERTEX
  8
BASE
 10
14.991593011811
 20
13.9218920275591
 42
0.414212
  0
VERTEX
  8
BASE
 10
14.849861003937
 20
14.063623996063
 42
0.0
  0
VERTEX
  8
BASE
 10
10.136001988189
 20
14.063623996063
 42
0.414212
  0
VERTEX
  8
BASE
 10
9.994270019685
 20
13.9218920275591
 42
0.0
  0
VERTEX
  8
BASE
 10
9.994270019685
 20
11.078108011811
 42
0.414212
  0
SEQEND
  0
POLYLINE
  8
BASE
 66
     1
 10
0.0
 20
0.0
 30
0.0
 70
     1
  0
VERTEX
  8
BASE
 10
10.136001988189
 20
10.811376003937
 42
0.0
  0
VERTEX
  8
BASE
 10
14.850115019685
 20
10.811376003937
 42
0.414212
  0
VERTEX
  8
BASE
 10
15.1168469881886
 20
11.0781076957797
 42
0.0
  0
VERTEX
  8
BASE
 10
15.116846988189
 20
13.717548996063
 42
0.0159406859317
  0
VERTEX
  8
BASE
 10
15.116593011811
 20
13.7255132656779
 42
0.0
  0
VERTEX
  8
BASE
 10
15.116593011811
 20
13.9218920275591
 42
0.414212
  0
VERTEX
  8
BASE
 10
14.8498613199682
 20
14.1886239960626
 42
0.0
  0
VERTEX
  8
BASE
 10
10.136001988189
 20
14.188623996063
 42
0.414212
  0
VERTEX
  8
BASE
 10
9.8692700196855
 20
13.9218923609515
 42
0.0
  0
VERTEX
  8
BASE
 10
9.869270019685
 20
11.078108011811
 42
0.414212
  0
SEQEND
  0
POLYLINE
  8
BASE
 66
     1
 10
0.0
 20
0.0
 30
0.0
 70
     1
  0
VERTEX
  8
BASE
 10
10.136001988189
 20
10.686376003937
 42
0.0
  0
VERTEX
  8
BASE
 10
14.850115019685
 20
10.686376003937
 42
0.414212
  0
VERTEX
  8
BASE
 10
15.241846988188
 20
11.0781072975608
 42
0.0
  0
VERTEX
  8
BASE
 10
15.241846988189
 20
13.717548996063
 42
0.0112703350102
  0
VERTEX
  8
BASE
 10
15.241593011811
 20
13.7288150372931
 42
0.0
  0
VERTEX
  8
BASE
 10
15.241593011811
 20
13.9218920275591
 42
0.414212
  0
VERTEX
  8
BASE
 10
14.8498617181872
 20
14.313623996062
 42
0.0
  0
VERTEX
  8
BASE
 10
10.136001988189
 20
14.313623996063
 42
0.414212
  0
VERTEX
  8
BASE
 10
9.7442700196862
 20
13.9218927724636
 42
0.0
  0
VERTEX
  8
BASE
 10
9.744270019685
 20
11.078108011811
 42
0.414212
  0
SEQEND
  0
POLYLINE
  8
BASE
 66
     1
 10
0.0
 20
0.0
 30
0.0
 70
     1
  0
VERTEX
  8
BASE
 10
10.136001988189
 20
10.623876003937
 42
0.0
  0
VERTEX
  8
BASE
 10
14.850115019685
 20
10.623876003937
 42
0.414212
  0
VERTEX
  8
BASE
 10
15.3043469881876
 20
11.0781070770268
 42
0.0
  0
VERTEX
  8
BASE
 10
15.304346988189
 20
13.717548996063
 42
0.0100802379795
  0
VERTEX
  8
BASE
 10
15.304093011811
 20
13.7301454531938
 42
0.0
  0
VERTEX
  8
BASE
 10
15.304093011811
 20
13.9218920275591
 42
0.414212
  0
VERTEX
  8
BASE
 10
14.8498619387212
 20
14.3761239960616
 42
0.0
  0
VERTEX
  8
BASE
 10
10.136001988189
 20
14.376123996063
 42
0.414212
  0
VERTEX
  8
BASE
 10
9.6817700196866
 20
13.9218929985837
 42
0.0
  0
VERTEX
  8
BASE
 10
9.681770019685
 20
11.078108011811
 42
0.414212
  0
SEQEND
  0
POLYLINE
  8
TOP
 66
     1
 10
0.0
 20
0.0
 30
0.0
 70
     1
  0
VERTEX
  8
TOP
 10
10.136001988189
 20
10.686376003937
 42
0.0
  0
VERTEX
  8
TOP
 10
14.850115019685
 20
10.686376003937
 42
0.414212
  0
VERTEX
  8
TOP
 10
15.241846988188
 20
11.0781072975608
 42
0.0
  0
VERTEX
  8
TOP
 10
15.241846988189
 20
13.717548996063
 42
0.0112703350102
  0
VERTEX
  8
TOP
 10
15.241593011811
 20
13.7288150372931
 42
0.0
  0
VERTEX
  8
TOP
 10
15.241593011811
 20
13.9218920275591
 42
0.414212
  0
VERTEX
  8
TOP
 10
14.8498617181872
 20
14.313623996062
 42
0.0
  0
VERTEX
  8
TOP
 10
10.136001988189
 20
14.313623996063
 42
0.414212
  0
VERTEX
  8
TOP
 10
9.7442700196862
 20
13.9218927724636
 42
0.0
  0
VERTEX
  8
TOP
 10
9.744270019685
 20
11.078108011811
 42
0.414212
  0
SEQEND
  0
POLYLINE
  8
TOP
 66
     1
 10
0.0
 20
0.0
 30
0.0
 70
     1
  0
VERTEX
  8
TOP
 10
9.875
 20
10.8125
 42
0.0
  0
VERTEX
  8
TOP
 10
15.125
 20
10.8125
 42
0.0
  0
VERTEX
  8
TOP
 10
15.125
 20
14.1875
 42
0.0
  0
VERTEX
  8
TOP
 10
9.875
 20
14.1875
 42
0.0
  0
SEQEND
  0
POLYLINE
  8
TOP
 66
     1
 10
0.0
 20
0.0
 30
0.0
 70
     1
  0
VERTEX
  8
TOP
 10
10.136001988189
 20
10.936376003937
 42
0.0
  0
VERTEX
  8
TOP
 10
14.850115019685
 20
10.936376003937
 42
0.414212
  0
VERTEX
  8
TOP
 10
14.991846988189
 20
11.078108011811
 42
0.0
  0
VERTEX
  8
TOP
 10
14.991846988189
 20
13.717548996063
 42
0.0
  0
VERTEX
  8
TOP
 10
14.991593011811
 20
13.717803011811
 42
0.0
  0
VERTEX
  8
TOP
 10
14.991593011811
 20
13.9218920275591
 42
0.414212
  0
VERTEX
  8
TOP
 10
14.849861003937
 20
14.063623996063
 42
0.0
  0
VERTEX
  8
TOP
 10
10.136001988189
 20
14.063623996063
 42
0.414212
  0
VERTEX
  8
TOP
 10
9.994270019685
 20
13.9218920275591
 42
0.0
  0
VERTEX
  8
TOP
 10
9.994270019685
 20
11.078108011811
 42
0.414212
  0
SEQEND
  0
POLYLINE
  8
TOP
 66
     1
 10
0.0
 20
0.0
 30
0.0
 70
     1
  0
VERTEX
  8
TOP
 10
10.136001988189
 20
10.811376003937
 42
0.0
  0
VERTEX
  8
TOP
 10
14.850115019685
 20
10.811376003937
 42
0.414212
  0
VERTEX
  8
TOP
 10
15.1168469881886
 20
11.0781076957797
 42
0.0
  0
VERTEX
  8
TOP
 10
15.116846988189
 20
13.717548996063
 42
0.0159406859317
  0
VERTEX
  8
TOP
 10
15.116593011811
 20
13.7255132656779
 42
0.0
  0
VERTEX
  8
TOP
 10
15.116593011811
 20
13.9218920275591
 42
0.414212
  0
VERTEX
  8
TOP
 10
14.8498613199682
 20
14.1886239960626
 42
0.0
  0
VERTEX
  8
TOP
 10
10.136001988189
 20
14.188623996063
 42
0.414212
  0
VERTEX
  8
TOP
 10
9.8692700196855
 20
13.9218923609515
 42
0.0
  0
VERTEX
  8
TOP
 10
9.869270019685
 20
11.078108011811
 42
0.414212
  0
SEQEND
  0
POLYLINE
  8
TOP
 66
     1
 10
0.0
 20
0.0
 30
0.0
 70
     1
  0
VERTEX
  8
TOP
 10
10.136001988189
 20
10.623876003937
 42
0.0
  0
VERTEX
  8
TOP
 10
14.850115019685
 20
10.623876003937
 42
0.414212
  0
VERTEX
  8
TOP
 10
15.3043469881876
 20
11.0781070770268
 42
0.0
  0
VERTEX
  8
TOP
 10
15.304346988189
 20
13.717548996063
 42
0.0100802379795
  0
VERTEX
  8
TOP
 10
15.304093011811
 20
13.7301454531938
 42
0.0
  0
VERTEX
  8
TOP
 10
15.304093011811
 20
13.9218920275591
 42
0.414212
  0
VERTEX
  8
TOP
 10
14.8498619387212
 20
14.3761239960616
 42
0.0
  0
VERTEX
  8
TOP
 10
10.136001988189
 20
14.376123996063
 42
0.414212
  0
VERTEX
  8
TOP
 10
9.6817700196866
 20
13.9218929985837
 42
0.0
  0
VERTEX
  8
TOP
 10
9.681770019685
 20
11.078108011811
 42
0.414212
  0
SEQEND
  0
POLYLINE
  8
PINE
 66
     1
 10
0.0
 20
0.0
 30
0.0
 70
     1
  0
VERTEX
  8
PINE
 10
12.3897655935961
 20
12.701795
 42
0.0
  0
VERTEX
  8
PINE
 10
12.4587249636345
 20
12.670315964567
 42
0.0
  0
VERTEX
  8
PINE
 10
12.3612866069572
 20
12.627753464567
 42
0.0
  0
SEQEND
  0
POLYLINE
  8
PINE
 66
     1
 10
0.0
 20
0.0
 30
0.0
 70
     1
  0
VERTEX
  8
PINE
 10
12.3335787016741
 20
12.32519
 42
0.0
  0
VERTEX
  8
PINE
 10
12.2757657889161
 20
12.4577525
 42
0.0
  0
VERTEX
  8
PINE
 10
12.4617024585331
 20
12.381066476378
 42
0.0
  0
SEQEND
  0
POLYLINE
  8
PINE
 66
     1
 10
0.0
 20
0.0
 30
0.0
 70
     1
  0
VERTEX
  8
PINE
 10
12.676536578639
 20
12.467545964567
 42
0.0
  0
VERTEX
  8
PINE
 10
12.5238488284334
 20
12.534376988189
 42
0.0
  0
VERTEX
  8
PINE
 10
12.6764960668974
 20
12.6015455118111
 42
0.0
  0
SEQEND
  0
POLYLINE
  8
PINE
 66
     1
 10
0.0
 20
0.0
 30
0.0
 70
     1
  0
VERTEX
  8
PINE
 10
12.6504111115897
 20
12.3250880118112
 42
0.0
  0
VERTEX
  8
PINE
 10
12.5223698545894
 20
12.3811280118111
 42
0.0
  0
VERTEX
  8
PINE
 10
12.7078685131458
 20
12.457900964567
 42
0.0
  0
SEQEND
  0
POLYLINE
  8
PINE
 66
     1
 10
0.0
 20
0.0
 30
0.0
 70
     1
  0
VERTEX
  8
PINE
 10
12.6473061169096
 20
12.4571480118111
 42
0.0
  0
VERTEX
  8
PINE
 10
12.4921404181936
 20
12.3910025
 42
0.0
  0
VERTEX
  8
PINE
 10
12.3367031845098
 20
12.4571480118111
 42
0.0
  0
VERTEX
  8
PINE
 10
12.4920984300765
 20
12.523210964567
 42
0.0
  0
SEQEND
  0
POLYLINE
  8
PINE
 66
     1
 10
0.0
 20
0.0
 30
0.0
 70
     1
  0
VERTEX
  8
PINE
 10
12.5939737082859
 20
12.701815964567
 42
0.0
  0
VERTEX
  8
PINE
 10
12.6232446817569
 20
12.627545
 42
0.0
  0
VERTEX
  8
PINE
 10
12.5255153610111
 20
12.670398464567
 42
0.0
  0
SEQEND
  0
POLYLINE
  8
PINE
 66
     1
 10
0.0
 20
0.0
 30
0.0
 70
     1
  0
VERTEX
  8
PINE
 10
12.6286401843236
 20
12.602815964567
 42
0.0
  0
VERTEX
  8
PINE
 10
12.4925784292541
 20
12.5443775
 42
0.0
  0
VERTEX
  8
PINE
 10
12.3551621292615
 20
12.602815964567
 42
0.0
  0
VERTEX
  8
PINE
 10
12.4923699059894
 20
12.660460964567
 42
0.0
  0
SEQEND
  0
POLYLINE
  8
PINE
 66
     1
 10
0.0
 20
0.0
 30
0.0
 70
     1
  0
VERTEX
  8
PINE
 10
12.3076407343036
 20
12.601794488189
 42
0.0
  0
VERTEX
  8
PINE
 10
12.4603494490402
 20
12.5346905118112
 42
0.0
  0
VERTEX
  8
PINE
 10
12.3072041996185
 20
12.4673780118112
 42
0.0
  0
SEQEND
  0
POLYLINE
  8
PINE
 66
     1
 10
0.0
 20
0.0
 30
0.0
 70
     1
  0
VERTEX
  8
PINE
 10
12.4886588887256
 20
12.684159488189
 42
0.0
  0
VERTEX
  8
PINE
 10
12.498036884469
 20
12.6850655118112
 42
0.0
  0
VERTEX
  8
PINE
 10
12.5488492974102
 20
12.706295
 42
0.0
  0
VERTEX
  8
PINE
 10
12.4918284305391
 20
12.768565964567
 42
0.0
  0
VERTEX
  8
PINE
 10
12.4357030148898
 20
12.706149488189
 42
0.0
  0
VERTEX
  8
PINE
 10
12.4796409514204
 20
12.6876080118112
 42
0.0
  0
SEQEND
  0
POLYLINE
  8
PINE
 66
     1
 10
0.0
 20
0.0
 30
0.0
 70
     1
  0
VERTEX
  8
PINE
 10
12.5058488592734
 20
12.2510855118112
 42
0.0
  0
VERTEX
  8
PINE
 10
12.5058698828594
 20
12.185710964567
 42
0.0
  0
VERTEX
  8
PINE
 10
12.4784109535278
 20
12.185710964567
 42
0.0
  0
VERTEX
  8
PINE
 10
12.4780374305458
 20
12.255148976378
 42
0.0
  0
VERTEX
  8
PINE
 10
12.4727034633066
 20
12.259794488189
 42
0.0
  0
VERTEX
  8
PINE
 10
12.3555581522049
 20
12.311109488189
 42
0.0
  0
VERTEX
  8
PINE
 10
12.477849930867
 20
12.364618976378
 42
0.0
  0
VERTEX
  8
PINE
 10
12.4887338885971
 20
12.369145964567
 42
0.0
  0
VERTEX
  8
PINE
 10
12.4975988734084
 20
12.368293976378
 42
0.0
  0
VERTEX
  8
PINE
 10
12.6283686493558
 20
12.3110030118112
 42
0.0
  0
VERTEX
  8
PINE
 10
12.5081003908488
 20
12.258171476378
 42
0.0
  0
SEQEND
  0
POLYLINE
  8
PORTS1
 66
     1
 10
0.0
 20
0.0
 30
0.0
 70
     1
  0
VERTEX
  8
PORTS1
 10
9.910638996063
 20
12.194918011811
 42
0.0
  0
VERTEX
  8
PORTS1
 10
10.770481003937
 20
12.194918011811
 42
0.0
  0
VERTEX
  8
PORTS1
 10
10.770481003937
 20
12.828776003937
 42
0.0
  0
VERTEX
  8
PORTS1
 10
9.910638996063
 20
12.828776003937
 42
0.0
  0
SEQEND
  0
POLYLINE
  8
PORTS1
 66
     1
 10
0.0
 20
0.0
 30
0.0
 70
     1
  0
VERTEX
  8
PORTS1
 10
9.937986003937
 20
13.034653996063
 42
0.0
  0
VERTEX
  8
PORTS1
 10
10.4375
 20
13.034653996063
 42
0.0
  0
VERTEX
  8
PORTS1
 10
10.4375
 20
13.609653996063
 42
0.0
  0
VERTEX
  8
PORTS1
 10
9.937986003937
 20
13.609653996063
 42
0.0
  0
SEQEND
  0
POLYLINE
  8
PORTS1
 66
     1
 10
0.0
 20
0.0
 30
0.0
 70
     1
  0
VERTEX
  8
PORTS1
 10
9.914601003937
 20
11.395805019685
 42
0.0
  0
VERTEX
  8
PORTS1
 10
10.316176003937
 20
11.395805019685
 42
0.0
  0
VERTEX
  8
PORTS1
 10
10.316176003937
 20
11.789506003937
 42
0.0
  0
VERTEX
  8
PORTS1
 10
9.914601003937
 20
11.789506003937
 42
0.0
  0
SEQEND
  0
POLYLINE
  8
PORTS1
 66
     1
 10
0.0
 20
0.0
 30
0.0
 70
     1
  0
VERTEX
  8
PORTS1
 10
11.700358996063
 20
10.9375
 42
0.0
  0
VERTEX
  8
PORTS1
 10
13.25
 20
10.9375
 42
0.0
  0
VERTEX
  8
PORTS1
 10
13.25
 20
11.289083011811
 42
0.0
  0
VERTEX
  8
PORTS1
 10
11.700358996063
 20
11.289083011811
 42
0.0
  0
SEQEND
  0
POLYLINE
  8
PORTS1
 66
     1
 10
0.0
 20
0.0
 30
0.0
 70
     1
  0
VERTEX
  8
PORTS1
 10
14.450336003937
 20
10.962823011811
 42
0.0
  0
VERTEX
  8
PORTS1
 10
14.647186003937
 20
10.962823011811
 42
0.0
  0
VERTEX
  8
PORTS1
 10
14.647186003937
 20
11.262823011811
 42
0.0
  0
VERTEX
  8
PORTS1
 10
14.450336003937
 20
11.262823011811
 42
0.0
  0
SEQEND
  0
POLYLINE
  8
PORTS1
 66
     1
 10
0.0
 20
0.0
 30
0.0
 70
     1
  0
VERTEX
  8
PORTS1
 10
14.5031707930936
 20
11.3256148701924
 42
0.0
  0
VERTEX
  8
PORTS1
 10
15.0733317970306
 20
11.3256148701924
 42
0.0
  0
VERTEX
  8
PORTS1
 10
15.0733317970306
 20
11.5756148701924
 42
0.0
  0
VERTEX
  8
PORTS1
 10
14.5031707930936
 20
11.5756148701924
 42
0.0
  0
SEQEND
  0
POLYLINE
  8
PORTS1
 66
     1
 10
0.0
 20
0.0
 30
0.0
 70
     1
  0
VERTEX
  8
PORTS1
 10
14.380176003937
 20
12.451323011811
 42
0.0
  0
VERTEX
  8
PORTS1
 10
15.069596988189
 20
12.451323011811
 42
0.0
  0
VERTEX
  8
PORTS1
 10
15.069596988189
 20
12.967071003937
 42
0.0
  0
VERTEX
  8
PORTS1
 10
14.380176003937
 20
12.967071003937
 42
0.0
  0
SEQEND
  0
POLYLINE
  8
PORTS1
 66
     1
 10
0.0
 20
0.0
 30
0.0
 70
     1
  0
VERTEX
  8
PORTS1
 10
14.386420019685
 20
13.132920019685
 42
0.0
  0
VERTEX
  8
PORTS1
 10
15.069491003937
 20
13.132920019685
 42
0.0
  0
VERTEX
  8
PORTS1
 10
15.069491003937
 20
13.650243011811
 42
0.0
  0
VERTEX
  8
PORTS1
 10
14.386420019685
 20
13.650243011811
 42
0.0
  0
SEQEND
  0
POLYLINE
  8
PORTS1
 66
     1
 10
0.0
 20
0.0
 30
0.0
 70
     1
  0
VERTEX
  8
PORTS1
 10
14.8814466966808
 20
12.1321490676377
 42
0.0
  0
VERTEX
  8
PORTS1
 10
15.0931367163658
 20
12.1321490676377
 42
0.0
  0
VERTEX
  8
PORTS1
 10
15.0931367163658
 20
12.3057120794487
 42
0.0
  0
VERTEX
  8
PORTS1
 10
14.8814466966808
 20
12.3057120794487
 42
0.0
  0
SEQEND
  0
POLYLINE
  8
PORTS1
 66
     1
 10
0.0
 20
0.0
 30
0.0
 70
     1
  0
VERTEX
  8
PORTS1
 10
14.8797756662548
 20
11.7571634993823
 42
0.0
  0
VERTEX
  8
PORTS1
 10
15.0941366701918
 20
11.7571634993823
 42
0.0
  0
VERTEX
  8
PORTS1
 10
15.0941366701918
 20
11.9297265111933
 42
0.0
  0
VERTEX
  8
PORTS1
 10
14.8797756662548
 20
11.9297265111933
 42
0.0
  0
SEQEND
  0
CIRCLE
  8
HOLES
 10
10.1708706271869
 20
13.8936612534534
 30
0.0
 40
0.0625
  0
CIRCLE
  8
HOLES
 10
14.8243073525549
 20
13.8929254306948
 30
0.0
 40
0.0625
  0
CIRCLE
  8
HOLES
 10
14.826388596888
 20
11.1081962794296
 30
0.0
 40
0.0625
  0
CIRCLE
  8
HOLES
 10
10.1693190684688
 20
11.1084389995371
 30
0.0
 40
0.0625
  0
CIRCLE
  8
HOLES
 10
11.5211743477163
 20
12.0052805602422
 30
0.0
 40
0.0625
  0
POLYLINE
  8
HOLES
 66
     1
 10
0.0
 20
0.0
 30
0.0
 70
     1
  0
VERTEX
  8
HOLES
 10
11.6461743477163
 20
12.0052805602422
 42
0.5773502691896
  0
VERTEX
  8
HOLES
 10
11.4586743477163
 20
12.1135337357153
 42
0.5773502691896
  0
VERTEX
  8
HOLES
 10
11.4586743477163
 20
11.8970273847692
 42
0.5773502691896
  0
SEQEND
  0
POLYLINE
  8
HOLES
 66
     1
 10
0.0
 20
0.0
 30
0.0
 70
     1
  0
VERTEX
  8
HOLES
 10
10.2958706271869
 20
13.8936612534534
 42
0.5773502691896
  0
VERTEX
  8
HOLES
 10
10.1083706271869
 20
14.0019144289265
 42
0.5773502691896
  0
VERTEX
  8
HOLES
 10
10.1083706271869
 20
13.7854080779804
 42
0.5773502691896
  0
SEQEND
  0
POLYLINE
  8
HOLES
 66
     1
 10
0.0
 20
0.0
 30
0.0
 70
     1
  0
VERTEX
  8
HOLES
 10
14.9493073525549
 20
13.8929254306948
 42
0.5773502691896
  0
VERTEX
  8
HOLES
 10
14.7618073525549
 20
14.0011786061679
 42
0.5773502691896
  0
VERTEX
  8
HOLES
 10
14.7618073525549
 20
13.7846722552218
 42
0.5773502691896
  0
SEQEND
  0
POLYLINE
  8
HOLES
 66
     1
 10
0.0
 20
0.0
 30
0.0
 70
     1
  0
VERTEX
  8
HOLES
 10
14.951388596888
 20
11.1081962794296
 42
0.5773502691896
  0
VERTEX
  8
HOLES
 10
14.763888596888
 20
11.2164494549026
 42
0.5773502691896
  0
VERTEX
  8
HOLES
 10
14.763888596888
 20
10.9999431039565
 42
0.5773502691896
  0
SEQEND
  0
POLYLINE
  8
HOLES
 66
     1
 10
0.0
 20
0.0
 30
0.0
 70
     1
  0
VERTEX
  8
HOLES
 10
10.2943190684688
 20
11.1084389995371
 42
0.5773502691896
  0
VERTEX
  8
HOLES
 10
10.1068190684688
 20
11.2166921750102
 42
0.5773502691896
  0
VERTEX
  8
HOLES
 10
10.1068190684688
 20
11.0001858240641
 42
0.5773502691896
  0
SEQEND
  0
POLYLINE
  8
HOLES
 66
     1
 10
0.0
 20
0.0
 30
0.0
 70
     1
  0
VERTEX
  8
HOLES
 10
11.7086743477163
 20
12.0052805602422
 42
0.5773502691896
  0
VERTEX
  8
HOLES
 10
11.4274243477163
 20
12.1676603234518
 42
0.5773502691896
  0
VERTEX
  8
HOLES
 10
11.4274243477163
 20
11.8429007970326
 42
0.5773502691896
  0
SEQEND
  0
POLYLINE
  8
HOLES
 66
     1
 10
0.0
 20
0.0
 30
0.0
 70
     1
  0
VERTEX
  8
HOLES
 10
10.3583706271869
 20
13.8936612534534
 42
0.5773502691896
  0
VERTEX
  8
HOLES
 10
10.0771206271869
 20
14.056041016663
 42
0.5773502691896
  0
VERTEX
  8
HOLES
 10
10.0771206271869
 20
13.7312814902438
 42
0.5773502691896
  0
SEQEND
  0
POLYLINE
  8
HOLES
 66
     1
 10
0.0
 20
0.0
 30
0.0
 70
     1
  0
VERTEX
  8
HOLES
 10
15.0118073525549
 20
13.8929254306948
 42
0.5773502691896
  0
VERTEX
  8
HOLES
 10
14.7305573525549
 20
14.0553051939044
 42
0.5773502691896
  0
VERTEX
  8
HOLES
 10
14.7305573525549
 20
13.7305456674852
 42
0.5773502691896
  0
SEQEND
  0
POLYLINE
  8
HOLES
 66
     1
 10
0.0
 20
0.0
 30
0.0
 70
     1
  0
VERTEX
  8
HOLES
 10
15.013888596888
 20
11.1081962794296
 42
0.5773502691896
  0
VERTEX
  8
HOLES
 10
14.732638596888
 20
11.2705760426391
 42
0.5773502691896
  0
VERTEX
  8
HOLES
 10
14.732638596888
 20
10.94581651622
 42
0.5773502691896
  0
SEQEND
  0
POLYLINE
  8
HOLES
 66
     1
 10
0.0
 20
0.0
 30
0.0
 70
     1
  0
VERTEX
  8
HOLES
 10
10.3568190684688
 20
11.1084389995371
 42
0.5773502691896
  0
VERTEX
  8
HOLES
 10
10.0755690684688
 20
11.2708187627467
 42
0.5773502691896
  0
VERTEX
  8
HOLES
 10
10.0755690684688
 20
10.9460592363275
 42
0.5773502691896
  0
SEQEND
  0
CIRCLE
  8
HOLES
 10
10.5
 20
14.25
 30
0.0
 40
0.0625
  0
CIRCLE
  8
HOLES
 10
14.5
 20
14.25
 30
0.0
 40
0.0625
  0
CIRCLE
  8
HOLES
 10
14.5
 20
10.75
 30
0.0
 40
0.0625
  0
CIRCLE
  8
HOLES
 10
10.5
 20
10.75
 30
0.0
 40
0.0625
  0
POLYLINE
  8
HOLES
 66
     1
 10
0.0
 20
0.0
 30
0.0
 70
     1
  0
VERTEX
  8
HOLES
 10
10.625
 20
10.75
 42
0.5773502691896
  0
VERTEX
  8
HOLES
 10
10.4375
 20
10.8582531754731
 42
0.5773502691896
  0
VERTEX
  8
HOLES
 10
10.4375
 20
10.6417468245269
 42
0.5773502691896
  0
SEQEND
  0
POLYLINE
  8
HOLES
 66
     1
 10
0.0
 20
0.0
 30
0.0
 70
     1
  0
VERTEX
  8
HOLES
 10
10.625
 20
14.25
 42
0.5773502691896
  0
VERTEX
  8
HOLES
 10
10.4375
 20
14.3582531754731
 42
0.5773502691896
  0
VERTEX
  8
HOLES
 10
10.4375
 20
14.1417468245269
 42
0.5773502691896
  0
SEQEND
  0
POLYLINE
  8
HOLES
 66
     1
 10
0.0
 20
0.0
 30
0.0
 70
     1
  0
VERTEX
  8
HOLES
 10
14.625
 20
14.25
 42
0.5773502691896
  0
VERTEX
  8
HOLES
 10
14.4375
 20
14.3582531754731
 42
0.5773502691896
  0
VERTEX
  8
HOLES
 10
14.4375
 20
14.1417468245269
 42
0.5773502691896
  0
SEQEND
  0
POLYLINE
  8
HOLES
 66
     1
 10
0.0
 20
0.0
 30
0.0
 70
     1
  0
VERTEX
  8
HOLES
 10
14.625
 20
10.75
 42
0.5773502691896
  0
VERTEX
  8
HOLES
 10
14.4375
 20
10.8582531754731
 42
0.5773502691896
  0
VERTEX
  8
HOLES
 10
14.4375
 20
10.6417468245269
 42
0.5773502691896
  0
SEQEND
  0
CIRCLE
  8
HOLES
 10
11.5211743477163
 20
12.0052805602422
 30
0.0
 40
0.143
  0
CIRCLE
  8
HOLES
 10
10.1708706271869
 20
13.8936612534534
 30
0.0
 40
0.143
  0
CIRCLE
  8
HOLES
 10
14.8243073525549
 20
13.8929254306948
 30
0.0
 40
0.143
  0
CIRCLE
  8
HOLES
 10
14.826388596888
 20
11.1081962794296
 30
0.0
 40
0.143
  0
CIRCLE
  8
HOLES
 10
10.1693190684688
 20
11.1084389995371
 30
0.0
 40
0.143
  0
TEXT
  8
PINETXT
 10
10.118709265198
 20
13.2798855457155
 30
0.0
 40
0.75
  1
RockPro64
 72
     0
 73
     1
  0
POLYLINE
  8
PINE_LG
 66
     1
 10
0.0
 20
0.0
 30
0.0
 70
     1
  0
VERTEX
  8
PINE_LG
 10
12.263725131649
 20
13.0201355963443
 42
0.0
  0
VERTEX
  8
PINE_LG
 10
12.4233833131304
 20
12.9472538222364
 42
0.0
  0
VERTEX
  8
PINE_LG
 10
12.1977891578331
 20
12.8487110788582
 42
0.0
  0
SEQEND
  0
POLYLINE
  8
PINE_LG
 66
     1
 10
0.0
 20
0.0
 30
0.0
 70
     1
  0
VERTEX
  8
PINE_LG
 10
12.1336384301267
 20
12.1482016199582
 42
0.0
  0
VERTEX
  8
PINE_LG
 10
11.9997870838636
 20
12.455116684136
 42
0.0
  0
VERTEX
  8
PINE_LG
 10
12.4302769581942
 20
12.2775695206358
 42
0.0
  0
SEQEND
  0
POLYLINE
  8
PINE_LG
 66
     1
 10
0.0
 20
0.0
 30
0.0
 70
     1
  0
VERTEX
  8
PINE_LG
 10
12.9276716547694
 20
12.4777909834748
 42
0.0
  0
VERTEX
  8
PINE_LG
 10
12.574161341106
 20
12.6325213778473
 42
0.0
  0
VERTEX
  8
PINE_LG
 10
12.9275778599597
 20
12.7880331684233
 42
0.0
  0
SEQEND
  0
POLYLINE
  8
PINE_LG
 66
     1
 10
0.0
 20
0.0
 30
0.0
 70
     1
  0
VERTEX
  8
PINE_LG
 10
12.8671846671835
 20
12.147965492007
 42
0.0
  0
VERTEX
  8
PINE_LG
 10
12.5707371469137
 20
12.2777119904249
 42
0.0
  0
VERTEX
  8
PINE_LG
 10
13.0002129161364
 20
12.4554604164291
 42
0.0
  0
SEQEND
  0
POLYLINE
  8
PINE_LG
 66
     1
 10
0.0
 20
0.0
 30
0.0
 70
     1
  0
VERTEX
  8
PINE_LG
 10
12.8599958282504
 20
12.4537171440603
 42
0.0
  0
VERTEX
  8
PINE_LG
 10
12.5007484442983
 20
12.3005738795429
 42
0.0
  0
VERTEX
  8
PINE_LG
 10
12.140872389012
 20
12.4537171440603
 42
0.0
  0
VERTEX
  8
PINE_LG
 10
12.5006512313102
 20
12.6066692638894
 42
0.0
  0
SEQEND
  0
POLYLINE
  8
PINE_LG
 66
     1
 10
0.0
 20
0.0
 30
0.0
 70
     1
  0
VERTEX
  8
PINE_LG
 10
12.7365179691845
 20
13.0201841345163
 42
0.0
  0
VERTEX
  8
PINE_LG
 10
12.8042875905133
 20
12.8482284316846
 42
0.0
  0
VERTEX
  8
PINE_LG
 10
12.5780197806565
 20
12.9474448301971
 42
0.0
  0
SEQEND
  0
POLYLINE
  8
PINE_LG
 66
     1
 10
0.0
 20
0.0
 30
0.0
 70
     1
  0
VERTEX
  8
PINE_LG
 10
12.8167795278308
 20
12.7909745816366
 42
0.0
  0
VERTEX
  8
PINE_LG
 10
12.5017625494061
 20
12.6556750429056
 42
0.0
  0
VERTEX
  8
PINE_LG
 10
12.1836094608482
 20
12.7909745816366
 42
0.0
  0
VERTEX
  8
PINE_LG
 10
12.5012797659176
 20
12.9244370531088
 42
0.0
  0
SEQEND
  0
POLYLINE
  8
PINE_LG
 66
     1
 10
0.0
 20
0.0
 30
0.0
 70
     1
  0
VERTEX
  8
PINE_LG
 10
12.073585551172
 20
12.7886096104863
 42
0.0
  0
VERTEX
  8
PINE_LG
 10
12.4271444029659
 20
12.6332472627893
 42
0.0
  0
VERTEX
  8
PINE_LG
 10
12.0725748642423
 20
12.4774021311912
 42
0.0
  0
SEQEND
  0
POLYLINE
  8
PINE_LG
 66
     1
 10
0.0
 20
0.0
 30
0.0
 70
     1
  0
VERTEX
  8
PINE_LG
 10
12.4926878331975
 20
12.9793050127381
 42
0.0
  0
VERTEX
  8
PINE_LG
 10
12.5144002378423
 20
12.9814026821254
 42
0.0
  0
VERTEX
  8
PINE_LG
 10
12.6320436769046
 20
13.0305542123843
 42
0.0
  0
VERTEX
  8
PINE_LG
 10
12.5000261148814
 20
13.1747269391093
 42
0.0
  0
VERTEX
  8
PINE_LG
 10
12.3700817462993
 20
13.0302173164535
 42
0.0
  0
VERTEX
  8
PINE_LG
 10
12.4718090538516
 20
12.987289200188
 42
0.0
  0
SEQEND
  0
POLYLINE
  8
PINE_LG
 66
     1
 10
0.0
 20
0.0
 30
0.0
 70
     1
  0
VERTEX
  8
PINE_LG
 10
12.5324869125083
 20
11.9766313512295
 42
0.0
  0
VERTEX
  8
PINE_LG
 10
12.5325355873658
 20
11.8252730608907
 42
0.0
  0
VERTEX
  8
PINE_LG
 10
12.4689613012308
 20
11.8252730608907
 42
0.0
  0
VERTEX
  8
PINE_LG
 10
12.4680965021466
 20
11.986039279477
 42
0.0
  0
VERTEX
  8
PINE_LG
 10
12.4557470344962
 20
11.9967947914476
 42
0.0
  0
VERTEX
  8
PINE_LG
 10
12.1845263529681
 20
12.1156017430236
 42
0.0
  0
VERTEX
  8
PINE_LG
 10
12.4676623935154
 20
12.2394894790096
 42
0.0
  0
VERTEX
  8
PINE_LG
 10
12.49286147665
 20
12.2499705794005
 42
0.0
  0
VERTEX
  8
PINE_LG
 10
12.5133861327344
 20
12.2479980154423
 42
0.0
  0
VERTEX
  8
PINE_LG
 10
12.8161508564966
 20
12.1153552238018
 42
0.0
  0
VERTEX
  8
PINE_LG
 10
12.5376997709883
 20
11.9930371165839
 42
0.0
  0
SEQEND
  0
POLYLINE
  8
AIR_BOTTOM
 66
     1
 10
0.0
 20
0.0
 30
0.0
 70
     1
  0
VERTEX
  8
AIR_BOTTOM
 10
13.5
 20
11.5
 42
0.4142135623731
  0
VERTEX
  8
AIR_BOTTOM
 10
13.5
 20
11.5
 42
0.4142135623731
  0
VERTEX
  8
AIR_BOTTOM
 10
13.5625
 20
11.5625
 42
0.0
  0
VERTEX
  8
AIR_BOTTOM
 10
13.5625
 20
13.4375
 42
0.4142135623731
  0
VERTEX
  8
AIR_BOTTOM
 10
13.5
 20
13.5
 42
0.4142135623731
  0
VERTEX
  8
AIR_BOTTOM
 10
13.5
 20
13.5
 42
0.4142135623731
  0
VERTEX
  8
AIR_BOTTOM
 10
13.4375
 20
13.4375
 42
0.0
  0
VERTEX
  8
AIR_BOTTOM
 10
13.4375
 20
11.5625
 42
0.4142135623731
  0
SEQEND
  0
POLYLINE
  8
AIR_BOTTOM
 66
     1
 10
0.0
 20
0.0
 30
0.0
 70
     1
  0
VERTEX
  8
AIR_BOTTOM
 10
14.5
 20
11.5
 42
0.4142135623731
  0
VERTEX
  8
AIR_BOTTOM
 10
14.5
 20
11.5
 42
0.4142135623731
  0
VERTEX
  8
AIR_BOTTOM
 10
14.5625
 20
11.5625
 42
0.0
  0
VERTEX
  8
AIR_BOTTOM
 10
14.5625
 20
13.4375
 42
0.4142135623731
  0
VERTEX
  8
AIR_BOTTOM
 10
14.5
 20
13.5
 42
0.4142135623731
  0
VERTEX
  8
AIR_BOTTOM
 10
14.5
 20
13.5
 42
0.4142135623731
  0
VERTEX
  8
AIR_BOTTOM
 10
14.4375
 20
13.4375
 42
0.0
  0
VERTEX
  8
AIR_BOTTOM
 10
14.4375
 20
11.5625
 42
0.4142135623731
  0
SEQEND
  0
POLYLINE
  8
AIR_BOTTOM
 66
     1
 10
0.0
 20
0.0
 30
0.0
 70
     1
  0
VERTEX
  8
AIR_BOTTOM
 10
10.5
 20
11.5
 42
0.4142135623731
  0
VERTEX
  8
AIR_BOTTOM
 10
10.5
 20
11.5
 42
0.4142135623731
  0
VERTEX
  8
AIR_BOTTOM
 10
10.5625
 20
11.5625
 42
0.0
  0
VERTEX
  8
AIR_BOTTOM
 10
10.5625
 20
13.4375
 42
0.4142135623731
  0
VERTEX
  8
AIR_BOTTOM
 10
10.5
 20
13.5
 42
0.4142135623731
  0
VERTEX
  8
AIR_BOTTOM
 10
10.5
 20
13.5
 42
0.4142135623731
  0
VERTEX
  8
AIR_BOTTOM
 10
10.4375
 20
13.4375
 42
0.0
  0
VERTEX
  8
AIR_BOTTOM
 10
10.4375
 20
11.5625
 42
0.4142135623731
  0
SEQEND
  0
POLYLINE
  8
AIR_BOTTOM
 66
     1
 10
0.0
 20
0.0
 30
0.0
 70
     1
  0
VERTEX
  8
AIR_BOTTOM
 10
11.5
 20
11.5
 42
0.4142135623731
  0
VERTEX
  8
AIR_BOTTOM
 10
11.5
 20
11.5
 42
0.4142135623731
  0
VERTEX
  8
AIR_BOTTOM
 10
11.5625
 20
11.5625
 42
0.0
  0
VERTEX
  8
AIR_BOTTOM
 10
11.5625
 20
13.4375
 42
0.4142135623731
  0
VERTEX
  8
AIR_BOTTOM
 10
11.5
 20
13.5
 42
0.4142135623731
  0
VERTEX
  8
AIR_BOTTOM
 10
11.5
 20
13.5
 42
0.4142135623731
  0
VERTEX
  8
AIR_BOTTOM
 10
11.4375
 20
13.4375
 42
0.0
  0
VERTEX
  8
AIR_BOTTOM
 10
11.4375
 20
11.5625
 42
0.4142135623731
  0
SEQEND
  0
POLYLINE
  8
AIR_BOTTOM
 66
     1
 10
0.0
 20
0.0
 30
0.0
 70
     1
  0
VERTEX
  8
AIR_BOTTOM
 10
12.5
 20
11.5
 42
0.4142135623731
  0
VERTEX
  8
AIR_BOTTOM
 10
12.5
 20
11.5
 42
0.4142135623731
  0
VERTEX
  8
AIR_BOTTOM
 10
12.5625
 20
11.5625
 42
0.0
  0
VERTEX
  8
AIR_BOTTOM
 10
12.5625
 20
13.4375
 42
0.4142135623731
  0
VERTEX
  8
AIR_BOTTOM
 10
12.5
 20
13.5
 42
0.4142135623731
  0
VERTEX
  8
AIR_BOTTOM
 10
12.5
 20
13.5
 42
0.4142135623731
  0
VERTEX
  8
AIR_BOTTOM
 10
12.4375
 20
13.4375
 42
0.0
  0
VERTEX
  8
AIR_BOTTOM
 10
12.4375
 20
11.5625
 42
0.4142135623731
  0
SEQEND
  0
POLYLINE
  8
AIR_BOTTOM
 66
     1
 10
0.0
 20
0.0
 30
0.0
 70
     1
  0
VERTEX
  8
AIR_BOTTOM
 10
14.0
 20
11.5
 42
0.4142135623731
  0
VERTEX
  8
AIR_BOTTOM
 10
14.0
 20
11.5
 42
0.4142135623731
  0
VERTEX
  8
AIR_BOTTOM
 10
14.0625
 20
11.5625
 42
0.0
  0
VERTEX
  8
AIR_BOTTOM
 10
14.0625
 20
13.4375
 42
0.4142135623731
  0
VERTEX
  8
AIR_BOTTOM
 10
14.0
 20
13.5
 42
0.4142135623731
  0
VERTEX
  8
AIR_BOTTOM
 10
14.0
 20
13.5
 42
0.4142135623731
  0
VERTEX
  8
AIR_BOTTOM
 10
13.9375
 20
13.4375
 42
0.0
  0
VERTEX
  8
AIR_BOTTOM
 10
13.9375
 20
11.5625
 42
0.4142135623731
  0
SEQEND
  0
POLYLINE
  8
AIR_BOTTOM
 66
     1
 10
0.0
 20
0.0
 30
0.0
 70
     1
  0
VERTEX
  8
AIR_BOTTOM
 10
13.0
 20
11.5
 42
0.4142135623731
  0
VERTEX
  8
AIR_BOTTOM
 10
13.0
 20
11.5
 42
0.4142135623731
  0
VERTEX
  8
AIR_BOTTOM
 10
13.0625
 20
11.5625
 42
0.0
  0
VERTEX
  8
AIR_BOTTOM
 10
13.0625
 20
13.4375
 42
0.4142135623731
  0
VERTEX
  8
AIR_BOTTOM
 10
13.0
 20
13.5
 42
0.4142135623731
  0
VERTEX
  8
AIR_BOTTOM
 10
13.0
 20
13.5
 42
0.4142135623731
  0
VERTEX
  8
AIR_BOTTOM
 10
12.9375
 20
13.4375
 42
0.0
  0
VERTEX
  8
AIR_BOTTOM
 10
12.9375
 20
11.5625
 42
0.4142135623731
  0
SEQEND
  0
POLYLINE
  8
AIR_BOTTOM
 66
     1
 10
0.0
 20
0.0
 30
0.0
 70
     1
  0
VERTEX
  8
AIR_BOTTOM
 10
12.0
 20
11.5
 42
0.4142135623731
  0
VERTEX
  8
AIR_BOTTOM
 10
12.0
 20
11.5
 42
0.4142135623731
  0
VERTEX
  8
AIR_BOTTOM
 10
12.0625
 20
11.5625
 42
0.0
  0
VERTEX
  8
AIR_BOTTOM
 10
12.0625
 20
13.4375
 42
0.4142135623731
  0
VERTEX
  8
AIR_BOTTOM
 10
12.0
 20
13.5
 42
0.4142135623731
  0
VERTEX
  8
AIR_BOTTOM
 10
12.0
 20
13.5
 42
0.4142135623731
  0
VERTEX
  8
AIR_BOTTOM
 10
11.9375
 20
13.4375
 42
0.0
  0
VERTEX
  8
AIR_BOTTOM
 10
11.9375
 20
11.5625
 42
0.4142135623731
  0
SEQEND
  0
POLYLINE
  8
AIR_BOTTOM
 66
     1
 10
0.0
 20
0.0
 30
0.0
 70
     1
  0
VERTEX
  8
AIR_BOTTOM
 10
11.0
 20
11.5
 42
0.4142135623731
  0
VERTEX
  8
AIR_BOTTOM
 10
11.0
 20
11.5
 42
0.4142135623731
  0
VERTEX
  8
AIR_BOTTOM
 10
11.0625
 20
11.5625
 42
0.0
  0
VERTEX
  8
AIR_BOTTOM
 10
11.0625
 20
13.4375
 42
0.4142135623731
  0
VERTEX
  8
AIR_BOTTOM
 10
11.0
 20
13.5
 42
0.4142135623731
  0
VERTEX
  8
AIR_BOTTOM
 10
11.0
 20
13.5
 42
0.4142135623731
  0
VERTEX
  8
AIR_BOTTOM
 10
10.9375
 20
13.4375
 42
0.0
  0
VERTEX
  8
AIR_BOTTOM
 10
10.9375
 20
11.5625
 42
0.4142135623731
  0
SEQEND
  0
POLYLINE
  8
AIR_TOP
 66
     1
 10
0.0
 20
0.0
 30
0.0
 70
     1
  0
VERTEX
  8
AIR_TOP
 10
13.5
 20
11.5
 42
0.4142135623731
  0
VERTEX
  8
AIR_TOP
 10
13.5
 20
11.5
 42
0.4142135623731
  0
VERTEX
  8
AIR_TOP
 10
13.5625
 20
11.5625
 42
0.0
  0
VERTEX
  8
AIR_TOP
 10
13.5625
 20
12.9375
 42
0.4142135623731
  0
VERTEX
  8
AIR_TOP
 10
13.5
 20
13.0
 42
0.4142135623731
  0
VERTEX
  8
AIR_TOP
 10
13.5
 20
13.0
 42
0.4142135623731
  0
VERTEX
  8
AIR_TOP
 10
13.4375
 20
12.9375
 42
0.0
  0
VERTEX
  8
AIR_TOP
 10
13.4375
 20
11.5625
 42
0.4142135623731
  0
SEQEND
  0
POLYLINE
  8
AIR_TOP
 66
     1
 10
0.0
 20
0.0
 30
0.0
 70
     1
  0
VERTEX
  8
AIR_TOP
 10
14.5
 20
11.5
 42
0.4142135623731
  0
VERTEX
  8
AIR_TOP
 10
14.5
 20
11.5
 42
0.4142135623731
  0
VERTEX
  8
AIR_TOP
 10
14.5625
 20
11.5625
 42
0.0
  0
VERTEX
  8
AIR_TOP
 10
14.5625
 20
12.9375
 42
0.4142135623731
  0
VERTEX
  8
AIR_TOP
 10
14.5
 20
13.0
 42
0.4142135623731
  0
VERTEX
  8
AIR_TOP
 10
14.5
 20
13.0
 42
0.4142135623731
  0
VERTEX
  8
AIR_TOP
 10
14.4375
 20
12.9375
 42
0.0
  0
VERTEX
  8
AIR_TOP
 10
14.4375
 20
11.5625
 42
0.4142135623731
  0
SEQEND
  0
POLYLINE
  8
AIR_TOP
 66
     1
 10
0.0
 20
0.0
 30
0.0
 70
     1
  0
VERTEX
  8
AIR_TOP
 10
10.5
 20
11.5
 42
0.4142135623731
  0
VERTEX
  8
AIR_TOP
 10
10.5
 20
11.5
 42
0.4142135623731
  0
VERTEX
  8
AIR_TOP
 10
10.5625
 20
11.5625
 42
0.0
  0
VERTEX
  8
AIR_TOP
 10
10.5625
 20
12.9375
 42
0.4142135623731
  0
VERTEX
  8
AIR_TOP
 10
10.5
 20
13.0
 42
0.4142135623731
  0
VERTEX
  8
AIR_TOP
 10
10.5
 20
13.0
 42
0.4142135623731
  0
VERTEX
  8
AIR_TOP
 10
10.4375
 20
12.9375
 42
0.0
  0
VERTEX
  8
AIR_TOP
 10
10.4375
 20
11.5625
 42
0.4142135623731
  0
SEQEND
  0
POLYLINE
  8
AIR_TOP
 66
     1
 10
0.0
 20
0.0
 30
0.0
 70
     1
  0
VERTEX
  8
AIR_TOP
 10
11.5
 20
11.5
 42
0.4142135623731
  0
VERTEX
  8
AIR_TOP
 10
11.5
 20
11.5
 42
0.4142135623731
  0
VERTEX
  8
AIR_TOP
 10
11.5625
 20
11.5625
 42
0.0
  0
VERTEX
  8
AIR_TOP
 10
11.5625
 20
12.9375
 42
0.4142135623731
  0
VERTEX
  8
AIR_TOP
 10
11.5
 20
13.0
 42
0.4142135623731
  0
VERTEX
  8
AIR_TOP
 10
11.5
 20
13.0
 42
0.4142135623731
  0
VERTEX
  8
AIR_TOP
 10
11.4375
 20
12.9375
 42
0.0
  0
VERTEX
  8
AIR_TOP
 10
11.4375
 20
11.5625
 42
0.4142135623731
  0
SEQEND
  0
POLYLINE
  8
AIR_TOP
 66
     1
 10
0.0
 20
0.0
 30
0.0
 70
     1
  0
VERTEX
  8
AIR_TOP
 10
14.0
 20
11.5
 42
0.4142135623731
  0
VERTEX
  8
AIR_TOP
 10
14.0
 20
11.5
 42
0.4142135623731
  0
VERTEX
  8
AIR_TOP
 10
14.0625
 20
11.5625
 42
0.0
  0
VERTEX
  8
AIR_TOP
 10
14.0625
 20
12.9375
 42
0.4142135623731
  0
VERTEX
  8
AIR_TOP
 10
14.0
 20
13.0
 42
0.4142135623731
  0
VERTEX
  8
AIR_TOP
 10
14.0
 20
13.0
 42
0.4142135623731
  0
VERTEX
  8
AIR_TOP
 10
13.9375
 20
12.9375
 42
0.0
  0
VERTEX
  8
AIR_TOP
 10
13.9375
 20
11.5625
 42
0.4142135623731
  0
SEQEND
  0
POLYLINE
  8
AIR_TOP
 66
     1
 10
0.0
 20
0.0
 30
0.0
 70
     1
  0
VERTEX
  8
AIR_TOP
 10
11.0
 20
11.5
 42
0.4142135623731
  0
VERTEX
  8
AIR_TOP
 10
11.0
 20
11.5
 42
0.4142135623731
  0
VERTEX
  8
AIR_TOP
 10
11.0625
 20
11.5625
 42
0.0
  0
VERTEX
  8
AIR_TOP
 10
11.0625
 20
12.9375
 42
0.4142135623731
  0
VERTEX
  8
AIR_TOP
 10
11.0
 20
13.0
 42
0.4142135623731
  0
VERTEX
  8
AIR_TOP
 10
11.0
 20
13.0
 42
0.4142135623731
  0
VERTEX
  8
AIR_TOP
 10
10.9375
 20
12.9375
 42
0.0
  0
VERTEX
  8
AIR_TOP
 10
10.9375
 20
11.5625
 42
0.4142135623731
  0
SEQEND
  0
ENDSEC
  0
EOF
